<?xml version="1.0" standalone="no"?>
<!DOCTYPE svg PUBLIC "-//W3C//DTD SVG 20010904//EN"
 "http://www.w3.org/TR/2001/REC-SVG-20010904/DTD/svg10.dtd">
<svg version="1.0" xmlns="http://www.w3.org/2000/svg"
 width="800.000000pt" height="800.000000pt" viewBox="0 0 800.000000 800.000000"
 preserveAspectRatio="xMidYMid meet">
<metadata>
Created by potrace 1.14, written by Peter Selinger 2001-2017
</metadata>
<g transform="translate(0.000000,800.000000) scale(0.100000,-0.100000)"
fill="#000000" stroke="none">
<path d="M4715 7273 c-41 -8 -76 -26 -86 -46 -7 -13 -12 -169 -15 -446 -4
-455 -12 -924 -18 -981 -2 -19 -7 -87 -11 -150 -4 -63 -8 -130 -10 -150 -4
-38 -13 -126 -20 -205 -3 -27 -7 -66 -10 -85 -2 -19 -9 -73 -15 -120 -6 -47
-13 -96 -15 -110 -2 -14 -7 -47 -11 -75 -3 -27 -7 -57 -9 -65 -1 -8 -6 -40
-10 -70 -4 -30 -9 -64 -11 -75 -2 -11 -7 -51 -11 -88 -5 -62 -4 -70 17 -92 40
-42 125 -56 201 -34 46 14 104 60 124 99 14 27 38 131 50 215 3 22 8 46 11 54
2 8 7 28 9 45 23 161 35 249 40 291 4 28 8 61 10 74 2 13 7 65 10 115 6 86 21
195 28 203 2 1 26 -32 52 -75 116 -182 248 -274 386 -267 71 4 112 21 184 80
75 62 87 75 196 223 50 67 94 122 98 122 3 0 6 -190 5 -422 0 -276 4 -437 11
-463 14 -53 56 -77 143 -81 80 -4 129 19 160 75 25 44 30 73 37 227 3 67 8
131 10 143 2 11 6 60 9 108 4 49 8 120 11 158 5 71 11 194 20 430 3 72 7 171
10 220 3 50 7 135 10 190 9 184 16 309 20 370 3 33 7 92 10 130 3 39 7 93 10
120 3 28 7 98 10 157 4 118 -1 133 -59 162 -45 23 -153 16 -198 -12 -54 -33
-70 -66 -133 -277 -90 -300 -310 -953 -346 -1030 -54 -115 -130 -217 -186
-251 -81 -51 -171 2 -231 136 -51 113 -123 340 -138 437 -3 21 -8 41 -10 44
-2 3 -6 21 -9 40 -3 19 -10 57 -15 84 -9 46 -12 63 -24 143 -4 25 -32 218 -41
287 -2 17 -7 57 -10 90 -4 33 -8 71 -10 85 -2 14 -7 48 -10 75 -10 76 -34 177
-47 192 -25 30 -121 56 -173 46z"/>
<path d="M760 7262 c-19 -1 -71 -7 -115 -12 -269 -35 -362 -58 -487 -122 -90
-46 -94 -55 -86 -186 4 -72 34 -159 56 -164 32 -6 77 -4 137 7 39 8 84 16 100
19 17 3 54 9 83 14 29 5 54 6 56 3 2 -3 7 -44 10 -91 4 -47 9 -110 11 -140 3
-30 7 -86 10 -125 3 -38 7 -97 10 -130 6 -78 13 -176 20 -300 3 -55 8 -129 10
-165 2 -36 7 -123 10 -195 4 -71 8 -152 11 -180 2 -27 6 -156 9 -285 4 -189 3
-239 -8 -254 -12 -16 -32 -19 -158 -24 -79 -2 -149 -8 -155 -13 -31 -25 -39
-187 -13 -265 17 -55 40 -67 106 -59 69 9 174 9 207 1 26 -6 46 -49 46 -96 0
-15 8 -38 19 -51 16 -20 27 -23 92 -23 130 0 242 18 273 43 10 8 10 24 3 64
-15 82 -6 105 46 111 46 6 182 24 237 32 84 12 352 68 430 91 501 144 825 457
904 873 28 145 14 348 -34 491 -96 285 -373 618 -680 819 -209 137 -469 234
-725 270 -44 6 -93 14 -110 16 -64 9 -102 14 -165 20 -96 8 -121 9 -160 6z
m370 -431 c152 -26 397 -110 580 -199 219 -107 404 -283 489 -466 45 -97 60
-181 56 -311 -1 -66 -6 -130 -9 -142 -3 -13 -8 -31 -10 -40 -24 -106 -92 -228
-175 -312 -104 -108 -329 -233 -543 -304 -106 -35 -117 -38 -213 -56 -27 -5
-63 -12 -80 -15 -72 -14 -202 -18 -209 -7 -11 18 -13 38 -21 191 -3 80 -8 168
-10 195 -6 63 -18 284 -29 490 -3 50 -7 194 -11 320 -8 327 -14 479 -21 568
-8 103 -1 111 86 104 36 -4 90 -10 120 -16z"/>
<path d="M3485 6289 c-142 -27 -275 -126 -338 -251 -31 -61 -65 -186 -74 -271
l-6 -57 -33 19 c-54 32 -103 35 -154 8 -31 -16 -47 -32 -55 -57 -18 -52 -11
-176 20 -362 25 -149 88 -296 170 -401 85 -108 194 -177 375 -238 85 -29 108
-32 215 -33 116 -1 122 0 200 34 113 50 188 102 275 190 150 151 209 312 208
570 0 195 -31 347 -99 487 -47 96 -167 214 -274 269 -153 80 -315 115 -430 93z
m265 -294 c47 -24 133 -109 171 -169 37 -56 74 -141 83 -188 2 -13 7 -40 11
-60 13 -66 12 -221 -1 -288 -29 -149 -114 -265 -239 -325 -132 -64 -285 -66
-377 -5 -84 56 -164 177 -214 322 -34 101 -33 105 24 110 62 6 124 36 139 68
6 14 14 54 18 90 24 251 55 349 132 418 66 59 170 70 253 27z"/>
<path d="M7145 6289 c-252 -35 -452 -211 -570 -500 -48 -119 -64 -216 -60
-379 3 -125 5 -152 21 -220 3 -14 8 -36 10 -50 35 -197 213 -350 409 -350 79
0 142 19 239 70 68 35 190 113 206 131 3 3 22 15 43 28 28 17 38 19 41 9 2 -7
7 -69 10 -138 11 -211 23 -350 37 -401 29 -114 143 -150 274 -88 72 34 96 85
90 188 -26 471 -26 1102 0 1250 44 253 43 272 -9 306 -28 19 -327 104 -452
129 -92 19 -218 25 -289 15z m207 -353 c78 -8 165 -42 173 -67 7 -22 0 -103
-16 -189 -17 -88 -83 -211 -155 -289 -107 -115 -265 -221 -331 -221 -43 0 -91
40 -121 100 -22 46 -27 69 -28 139 -2 103 25 229 66 316 39 83 118 169 173
190 49 18 132 34 162 29 11 -1 46 -5 77 -8z"/>
<path d="M1435 4111 c-64 -16 -115 -63 -134 -123 -16 -49 -29 -58 -97 -63 -69
-6 -180 -22 -244 -36 -25 -5 -54 -11 -65 -13 -11 -2 -40 -9 -65 -16 -25 -7
-53 -14 -63 -16 -64 -12 -196 -60 -223 -81 -63 -47 -96 -159 -73 -245 5 -20
29 -58 52 -84 39 -43 48 -48 88 -48 42 0 156 10 209 19 14 2 61 9 105 14 44 6
100 14 125 17 25 4 68 7 95 8 l50 1 -1 -40 c-1 -44 -14 -201 -19 -226 -7 -34
-18 -312 -18 -452 l-1 -147 -40 -11 c-95 -26 -134 -85 -152 -227 -9 -76 8
-117 57 -136 22 -9 55 -16 73 -16 56 0 66 -19 67 -123 1 -51 3 -130 5 -177 3
-47 6 -291 7 -542 l2 -457 28 -29 c42 -44 102 -57 257 -56 143 0 199 13 218
51 12 24 4 336 -13 503 -2 25 -7 90 -11 145 -3 55 -7 107 -9 115 -5 28 -15
195 -20 340 -3 80 -8 163 -10 185 -3 22 -1 46 4 54 9 14 30 14 984 8 71 0 80
2 115 30 56 45 100 145 93 214 -4 54 -122 112 -269 134 -21 3 -49 7 -62 10
-14 3 -52 8 -85 11 -33 3 -85 9 -116 13 -31 4 -189 8 -350 10 -323 2 -317 1
-313 63 1 18 5 87 9 153 3 66 8 131 10 145 2 14 6 61 10 105 3 44 8 91 10 105
2 14 7 61 11 105 4 44 8 94 10 110 1 17 3 39 3 50 1 11 5 26 9 32 21 33 671
39 882 8 14 -2 52 -6 85 -9 33 -4 76 -9 95 -11 19 -3 54 -7 78 -10 41 -5 127
-20 366 -65 125 -23 178 -25 209 -8 30 16 41 31 87 122 80 158 57 187 -222
282 -84 29 -185 58 -238 69 -117 25 -224 45 -260 50 -25 3 -52 8 -60 10 -8 2
-41 7 -73 10 -32 4 -68 8 -80 11 -25 5 -104 13 -197 20 -36 3 -192 5 -347 5
l-281 0 -10 28 c-14 40 -47 68 -101 85 -58 19 -147 27 -186 17z"/>
<path d="M6591 3834 c-35 -25 -79 -186 -145 -534 -30 -156 -76 -379 -81 -392
-8 -21 -27 -28 -57 -22 -94 18 -293 21 -359 4 -59 -15 -78 -47 -88 -148 -18
-182 -8 -200 119 -217 25 -3 56 -8 70 -10 14 -2 50 -7 80 -9 137 -13 151 -17
161 -43 5 -14 7 -28 5 -31 -4 -7 -10 -51 -21 -149 -3 -27 -8 -64 -11 -83 -6
-44 -6 -346 0 -380 2 -14 7 -50 10 -80 38 -347 222 -701 456 -876 161 -120
417 -171 581 -116 80 28 157 76 228 145 53 51 156 180 179 224 21 38 14 79
-20 124 -59 76 -152 103 -225 66 -17 -9 -53 -45 -81 -81 -86 -109 -146 -142
-242 -133 -77 7 -143 43 -236 130 -125 117 -213 285 -248 477 -20 103 -26 358
-13 500 4 41 10 109 13 150 4 41 12 81 18 89 10 13 106 12 271 -3 22 -2 94 -7
160 -11 66 -4 136 -9 155 -11 19 -3 68 -5 108 -6 82 -1 120 17 133 64 11 41
11 242 0 271 -13 33 -58 49 -180 63 -31 3 -65 8 -76 10 -11 2 -69 6 -130 9
-60 3 -130 7 -155 10 -25 2 -83 7 -130 10 -46 4 -88 9 -92 12 -7 4 -1 89 7
103 2 3 6 25 10 49 5 34 41 211 60 291 56 245 77 344 82 386 5 47 2 54 -26 87
-20 23 -51 42 -84 53 -67 23 -178 27 -206 8z"/>
<path d="M5050 2612 c-99 -16 -218 -59 -284 -103 -188 -125 -278 -360 -201
-523 59 -125 185 -203 375 -232 177 -27 494 -152 577 -228 100 -90 120 -285
39 -378 -71 -80 -288 -133 -404 -99 -51 15 -116 56 -150 95 -58 66 -49 162 23
247 37 44 51 99 34 135 -20 41 -94 75 -170 79 -107 6 -170 -34 -219 -140 -23
-51 -40 -94 -45 -115 -1 -3 -7 -24 -14 -48 -43 -151 -6 -325 88 -419 92 -92
207 -132 420 -149 41 -3 77 -6 80 -7 3 0 42 3 86 7 211 21 460 121 556 223 50
53 73 89 99 158 31 80 34 234 7 312 -50 142 -295 379 -493 476 -89 44 -145 62
-272 87 -135 27 -209 56 -249 96 -61 60 -35 139 62 192 48 27 225 23 290 -6
70 -32 95 -62 119 -146 14 -49 33 -54 116 -36 99 22 163 65 177 117 22 90 -62
244 -172 317 -133 89 -294 119 -475 88z"/>
<path d="M3559 2573 c-180 -31 -308 -94 -422 -210 -170 -172 -290 -384 -322
-572 -3 -19 -7 -37 -9 -40 -16 -25 -24 -323 -12 -415 3 -25 9 -67 12 -93 22
-173 140 -342 285 -410 144 -68 232 -86 414 -86 175 0 297 40 489 157 204 126
366 365 314 465 -27 51 -170 103 -247 89 -51 -9 -91 -35 -176 -114 -163 -153
-288 -222 -416 -229 -98 -5 -196 60 -240 161 -24 53 -19 63 37 69 436 47 611
95 780 217 129 93 200 222 239 438 33 182 -13 350 -122 439 -136 112 -396 170
-604 134z m259 -382 c150 -77 167 -254 35 -371 -25 -22 -69 -51 -97 -65 -49
-24 -186 -65 -266 -79 -19 -3 -46 -8 -60 -11 -14 -3 -55 -7 -92 -10 -59 -4
-71 -2 -93 18 -44 38 -38 114 18 227 40 81 170 214 242 249 28 13 60 28 72 34
65 30 189 34 241 8z"/>
</g>
</svg>
