<?xml version="1.0" standalone="no"?>
<!DOCTYPE svg PUBLIC "-//W3C//DTD SVG 20010904//EN"
 "http://www.w3.org/TR/2001/REC-SVG-20010904/DTD/svg10.dtd">
<svg version="1.0" xmlns="http://www.w3.org/2000/svg"
 width="117.000000pt" height="117.000000pt" viewBox="0 0 117.000000 117.000000"
 preserveAspectRatio="xMidYMid meet">
<metadata>
Created by potrace 1.14, written by Peter Selinger 2001-2017
</metadata>
<g transform="translate(0.000000,117.000000) scale(0.100000,-0.100000)"
fill="#000000" stroke="none">
<path d="M688 1140 c-37 -20 -78 -67 -93 -105 -11 -30 -15 -85 -6 -85 4 0 14
15 23 33 9 18 33 42 56 55 45 25 67 14 26 -13 -38 -25 -57 -46 -76 -85 -16
-33 -16 -35 0 -42 22 -8 80 1 112 17 66 35 104 97 103 171 0 29 -4 57 -7 63
-11 18 -98 12 -138 -9z"/>
<path d="M395 808 c-30 -11 -74 -37 -65 -39 28 -4 41 -9 64 -24 25 -17 35 -35
18 -35 -4 0 -18 7 -31 17 -51 35 -158 16 -198 -36 -28 -35 -51 -90 -39 -95 8
-3 8 -5 -1 -5 -18 -1 5 -65 40 -106 26 -32 87 -68 105 -62 4 1 8 -2 9 -8 2 -5
-9 -10 -22 -10 -18 0 -30 -9 -40 -29 -54 -103 28 -226 150 -226 25 0 37 -5 41
-17 46 -142 199 -173 279 -56 30 45 31 50 5 58 -11 3 -20 12 -20 20 0 11 8 11
36 3 82 -22 158 11 192 85 36 76 11 170 -42 160 -19 -4 -26 -1 -26 10 0 9 9
15 24 15 50 0 120 59 131 111 3 11 7 30 9 41 3 11 1 22 -4 25 -5 3 -7 11 -4
18 7 19 -36 78 -73 100 -44 25 -99 27 -152 5 -24 -10 -47 -16 -50 -13 -8 9 41
45 62 45 33 0 17 29 -28 45 -53 21 -98 15 -150 -21 l-37 -25 -37 25 c-43 30
-104 40 -146 24z m255 -105 c0 -10 -7 -12 -22 -8 -13 4 -31 9 -40 11 -10 3
-27 0 -39 -6 -13 -8 -25 -8 -31 -2 -5 5 3 15 22 24 38 18 110 6 110 -19z"/>
</g>
</svg>
