<?xml version="1.0" encoding="utf-8"?>
<!-- Generator: Adobe Illustrator 26.0.0, SVG Export Plug-In . SVG Version: 6.00 Build 0)  -->
<svg version="1.1" id="Layer_1" xmlns="http://www.w3.org/2000/svg" xmlns:xlink="http://www.w3.org/1999/xlink" x="0px" y="0px"
	 viewBox="0 0 642.3 272.4" style="enable-background:new 0 0 642.3 272.4;" xml:space="preserve">
<style type="text/css">
	.st0{fill:#306850;}
</style>
<g>
	<path class="st0" d="M158.3,187.8c-0.2,13.9-2.1,27.4-10.5,38.8c-9.6,13-22,21.1-38.9,20.4c-2-0.1-4-0.3-6-0.9
		c-9.3-2.7-17.8-6.8-25.3-12.9c-9.3-7.6-13.9-17.9-15.4-29.6c-1.7-13.4,0-26.5,5.5-38.9c1.4-3.2,3.5-5.9,5.6-8.6
		c2.6-3.5,5.9-4.6,9.9-3.1c2.6,1,3.8,0.1,5.2-2.1c5.6-8.8,13.1-15.5,23.6-18c3.4-0.8,6.9-1,10.2-0.2c18.2,4.3,29.6,15.3,34.1,34
		C157.8,173.4,158.1,180.7,158.3,187.8z M81.9,170.7c-2,1.2-2.2,2.9-2.7,4.5c-3.5,11.7-2.9,23.1,1.7,34.4c2.1,5.1,4.9,9.7,9.1,13.5
		c16.9,15.1,42.6,8.3,49.3-11.6c4.7-14.1,4.9-28.1,1.8-42.4c-1-4.7-3-9.2-5.8-13.3c-5.5-8.3-14.7-10.9-23.8-7
		c-5,2.2-8.6,5.6-10.9,10.5c-2.4,5-3.6,10.2-3.5,15.8c0.2,6.2-0.8,7.2-7.1,7.4c-0.9,0-1.9,0-2.8-0.1c-3.6-0.4-4-1-4.7-4.6
		C82.2,175.6,82.8,173.2,81.9,170.7z"/>
	<path class="st0" d="M96.8,59.5c-0.3,11.6-6.1,21.3-16.2,28.6c-8.3,6-17.9,8.7-27.8,10.5c-4.8,0.9-9.5,1.9-14.4,2.1
		c-1.5,0-3.5,0.3-3.5,0.3s-0.1,2.5,0.1,3.5c0.5,2.8-0.9,3.7-3.2,3.9c-1.6,0.1-3.1,0.4-4.7,0.4c-4.5,0.1-4.6,0.1-5.6-4.1
		c-0.2-1-0.6-2.6-0.6-2.6s-1.7,0-2.6,0.1c-2.2,0.1-4.4,0-6.6,0.2c-2.3,0.2-3.5-0.7-3.9-3c-0.2-1.5-0.5-3-0.3-4.6
		c0.3-2.4,1.3-3.6,3.9-3.4c1.7,0.2,3.4,0,5.1-0.1c1.9-0.2,4.3-0.6,4.3-0.6s0-2,0-4c0.3-9.1-0.5-18.1-0.9-27.2
		c-0.6-11.8-1.7-23.7-2.6-35.5c-0.1-1.8-0.2-3.9-0.2-3.9s-2,0.1-4,0.3c-2.6,0.3-5.3,0.8-7.8,1.5c-2.6,0.7-3.8-0.6-4.5-2.8
		c-1.6-5.5-0.4-8.2,5-10.1c4.2-1.5,9.2-2.8,13.7-3.2c4.7-0.4,8.2-0.7,12.7-0.1c7.9,1,15.8,1.7,23.4,4.4
		c16.4,5.9,28.9,16.5,37.3,31.8C95.7,47.2,96.7,52.8,96.8,59.5z M83.3,57.6c-0.2-11.6-5.5-19.7-14-25.5C59.8,25.5,49,21.6,37.6,20
		c-3.2-0.5-6.5,0-6.5,0s0.1,3,0.4,5.8c1.1,12.6,0.9,24.9,2.1,37.5c0.7,7.8,0.7,15.9,0.8,23.7c0,1.3,0.2,3.4,0.2,3.4s2,0.1,3.1,0
		c12.7-1.1,24.5-4.8,34.9-12.3C79.7,72.9,82.7,65.4,83.3,57.6z"/>
	<path class="st0" d="M399.5,65.3c-2.9,1.1-3.7,3.1-4.8,4.7c-2.2,3.3-4.7,6.3-7.6,8.9c-5,4.4-9.2,4.7-15,1.3c-3.3-2-5.6-4.9-7.7-8.1
		c-0.4-0.7-1-1.7-1.6-2.3c-0.4-0.4-1.7-1.4-1.7-1.4s-0.4,3.2-0.5,4.5c-1.1,11.2-2.4,22.4-4.7,33.4c-1.2,5.8-3.8,7.6-9.7,6.5
		c-3.6-0.7-4.2-1.4-3.7-5c0.6-4.6,1.3-9.3,1.9-13.9c3-20.6,3.8-41.4,3.9-62.2c0-8.6,0.4-17.2,0.4-25.8c0-2.4,0.7-3.9,3.2-4.3
		c3.3-0.5,6.3,0.6,7,3.1c0.9,3.3,1.3,6.7,1.7,10.1c1.9,15.2,3.5,30.4,9.1,44.9c0.8,2.2,1.7,4.4,3.2,6.2c3.5,4.3,7.5,4.3,10.9-0.1
		c3.9-5,6.4-10.7,8.4-16.7c4.2-13.1,8.5-26.2,12.7-39.3c1.5-4.6,4.5-6.2,8.9-5.1c2.3,0.5,3.6,1.7,3.4,4.2c-0.2,3-0.2,5.9-0.4,8.9
		c-1.6,18.4-2.2,36.8-2.9,55.2c-0.3,8.7-1.7,17.4-1.9,26.2c-0.1,3.2-3.4,5.3-7.1,5c-3.8-0.3-5.4-1.8-5.4-5.5c0-9.7,0-19.4,0-29.1
		C399.5,68.4,399.5,67.2,399.5,65.3z"/>
	<path class="st0" d="M382.4,219.3c0.4-6.1-0.5-12.1-0.6-18c0-1.1-0.1-3.4-0.1-3.4s-1.3,0-2.1-0.2c-1.7-0.3-3.6-0.5-3.6-2.9
		c0.1-2.6-0.4-5.9,2.4-7.1c1.2-0.5,3.2-1.7,3.2-1.7s0.3-2.9,0.2-4.6c-0.3-6.4,0.5-12.8,1-19.2c0.2-2.3,0.4-4.7,0.4-4.7
		s-2.8,0.3-4.7,0.5c-3.7,0.4-7.4,0.9-11.1,1.4c-4.1,0.5-5.5-0.3-6.4-3.6c-0.9-3.3,0.4-6.7,3.3-7.9c2.6-1,5.4-1.7,8.1-2.4
		c2.6-0.6,5.2-1.3,7.8-1.5c1.7-0.1,5.5-0.8,5.5-0.8s0.7-1.9,1.4-3.5c1.4-3,7.4-3.1,9.8-0.2c0.8,1,0.8,2.3,0.8,2.3s4,0.2,5.3,0.1
		c14.5-0.5,28.7,1.1,42.5,5.5c0.9,0.3,1.8,0.6,2.7,0.9c5.3,2.1,6,6,1.9,10c-1.5,1.4-3.1,1.2-4.8,0.8c-8.8-2-17.8-3.3-26.8-3.9
		c-6.2-0.5-12.5-0.5-18.7,0.3c-0.9,0.1-2.9,0.4-2.9,0.4s-0.3,1.5-0.4,2.7c-0.7,7.3-1.7,14.6-1.7,21.9c0,2.3,0.2,4.4,0.2,4.4
		s2.2-0.1,4-0.1c8.1,0,16.2-0.2,24.3,1.3c1.4,0.3,2.8,0.5,4.1,0.9c2,0.6,3.9,1.6,3.8,4.1c-0.1,2.4-2.6,5.3-4.8,5.6
		c-1.2,0.2-2.5,0-3.7,0c-7.8,0-15.6-0.1-23.4-0.1c-2.8,0-4.4,0.6-4.4,0.6s-0.1,2.3,0,3.9c0.6,11.1,1.3,22.1,1.8,33.2
		c0.3,6.6,0,6.9-6.6,6.8c-0.9,0-1.9,0-2.8-0.1c-3.6-0.4-4.7-1.4-4.7-5C382.3,230.7,382.4,224.9,382.4,219.3z"/>
	<path class="st0" d="M185.3,183.2c6.1-4,12.9-5.3,20.1-5.3c13.6,0.1,23.4,9.4,24.3,22.9c0.3,4.1,0.1,8.1-0.6,12.1
		c-2.1,10.9-9.2,18.4-23,21.8c-5.8,1.4-11.8,1.3-17.7,1.7c-2.5,0.2-4.7,0.3-4.7,0.3s0,2.6,0,4.7c-0.2,8.6-0.5,17.2,0,25.7
		c0.2,3.6-0.5,4.2-4.1,4.9c-0.5,0.1-0.9,0.1-1.4,0.1c-6.5,0.5-7.4-0.3-7.4-6.8c0-8.3,0.1-16.6,0.1-24.9c0-1.5-0.2-4.3-0.2-4.3
		s-2-0.2-3.1-0.3c-2-0.2-2.9-1.7-2.9-3.6c0-3.7-1-7.7,4.3-9c0.7-0.2,1.6-0.5,1.6-0.5s-0.1-2.3-0.1-3.1c0.1-11,0.5-22.1,0.3-33.3
		c0-0.3,0-0.6,0-0.9c0.1-5.6,0.4-6.2,4.1-7.1c4.4-1.2,7.3-0.1,9.6,3.5C184.4,182.4,184.8,182.7,185.3,183.2z M183.9,221.8
		c0,1.1,0.1,2.9,0.1,2.9s2,0.2,3,0.3c6.3,0.2,12.5-0.3,18.4-2.5c4.8-1.8,7.9-5.2,9.4-10.3c1.3-4.4,0.7-8.6-0.6-12.9
		c-1.2-4.1-4-6.5-8.1-7.6c-6.8-1.8-12.5,0.6-18.2,4c-1.4,0.8-3.9,2.7-3.9,2.7s-0.2,2.6-0.2,4.2C183.8,205.5,183.9,218.2,183.9,221.8
		z"/>
	<path class="st0" d="M624.8,82.6c0,0-3.6,2.2-4.9,3.2c-5,3.9-10.1,7.3-16.5,8.5c-6,1.1-10.8-1-13.8-6.3c-1.3-2.3-2.3-4.8-2.5-7.5
		c-0.7-9.2,0.6-18.1,5-26.4c6.1-11.5,16.1-15.4,28.4-11.2c1.5,0.5,3,1,4.4,1.7c2.3,1.2,7.6,2.7,7.6,2.7s1.1-0.4,2.1-0.7
		c1.1-0.4,2.5,0.1,3.7,0.4c4,1.1,4.8,2.4,3.6,6.5c-2.6,9-4.3,18.2-4.6,27.6c-0.3,10.5,0.9,20.9,1.8,31.3c0.1,0.9,0.3,1.9,0.4,2.8
		c0.4,5.1-0.3,6.2-4.1,6.9c-5.1,1-8.5-0.7-9.6-5c-0.8-3-1-6.2-1-9.3c0.1-7.5,0.1-15,0.2-22.5C624.8,84.6,624.8,82.6,624.8,82.6z
		 M597.9,73.6c0,3.1,0.4,6.1,3.5,7.6c2.9,1.5,5.5,0.2,7.9-1.4c0.9-0.6,1.8-1.3,2.6-2c5-4.2,8.2-9.8,11.6-15.2
		c1.1-1.7,0.7-3.2-0.4-4.7c-4.1-5.8-12.6-6.3-18.1-0.7C600.5,61.7,598.3,67.3,597.9,73.6z"/>
	<path class="st0" d="M251.4,72.3c0.5-8,1.4-15.8,6.6-22.6c8.2-10.7,21.1-13.3,32.4-6c1.3,0.8,2.6,3.1,2.6,3.1s1.6-1.5,3.8-1.6
		c5-0.2,7.7,2.3,6.9,7.5c-2.7,16.6-0.1,32.7,4.4,48.6c0.8,2.7,1.5,5.4,2.5,8.1c0.8,2.2,0,3.6-1.9,4.6c-1.2,0.7-2.5,1.3-3.9,1.5
		c-4.2,0.8-5.7,0.1-7.3-3.9c-2.7-7.2-4.9-14.5-6.8-21.9c-0.2-0.9-0.3-1.9-0.6-2.7c-0.2-0.8-0.6-2.6-0.6-2.6s-1.4,1.2-2.1,1.9
		c-1.8,1.8-3.4,3.7-5.3,5.3c-4.9,4.1-10.3,6.2-16.9,4.4c-5.4-1.5-9-4.7-11-9.9C252.3,81.6,251.2,77.1,251.4,72.3z M277.7,51.6
		c-1.9,0.1-3.5,0.3-5.2,1c-8.2,3.6-13.6,17.5-9.8,25.7c2.2,4.8,7.1,6.3,11.6,3.4c1.3-0.8,2.5-1.9,3.6-3c4.2-4.3,7-9.5,9-15.2
		c2.7-7.8,1.2-10.3-7-11.7C279.1,51.7,278.4,51.7,277.7,51.6z"/>
	<path class="st0" d="M449.7,36.9c7.7-0.1,14.7,2.7,21.9,4.7c3.1,0.9,3.3,2,2.7,5.3c-2.5,13.5-2.2,27.1-1.5,40.6
		c0.2,4.4,0.1,8.8,0.5,13.1c0.4,3.8-2.8,5.8-6.7,6.1c-3.9,0.3-5.7-1.3-6-5.4c-0.4-5-0.7-10-1.1-14.9c-0.1-1.3-0.3-4.2-0.3-4.2
		s-2.9,1.2-3.8,1.9c-3.1,2.3-6.4,4.5-10,6c-8.6,3.5-18-0.8-20.5-9.8c-2.7-9.6-2.4-19.3,2.1-28.3C431.5,42.8,438.7,36.9,449.7,36.9z
		 M435.3,69.1c0.2,1,0.2,2.6,0.6,4.1c1.1,3.7,4.1,5,7.7,3.6c1.8-0.7,3.3-1.8,4.7-3.1c3.1-2.7,5.5-6,7.9-9.2c2.5-3.2,2.4-7,3.1-10.7
		c0.3-1.4-0.6-2.3-1.8-2.9c-4.3-2.4-10.2-2.1-14.2,0.9C437.8,56.1,435.5,61.9,435.3,69.1z"/>
	<path class="st0" d="M302.1,186.4c4-3.7,8.8-6.7,13.3-8.3c5.1-1.8,9-0.8,12.6,3.3c4.2,4.8,5.3,10.6,5.3,16.6c0,7.3-0.4,14.7-0.6,22
		c-0.3,9.7-0.2,19.4,0.4,29.1c0.2,3.9-0.9,5-4.8,4.8c-3.6-0.2-6.3-2.4-7.1-6.3c-0.6-2.9-1.1-5.8-1.1-8.8c0.1-12,0-24.1,0-36.1
		c0-1.9,0.1-3.8-0.5-5.6c-1.1-3.3-3.3-4.4-6.6-3.2c-5.9,2-10.9,9.1-11.1,15.4c-0.2,7-0.4,14.1-0.8,21.1c-0.2,4.3-0.9,4.7-5.2,4.7
		c-0.9,0-1.9,0-2.8-0.2c-3.4-0.5-4.1-1.1-4.1-4.4c-0.1-6.6-0.1-13.1,0.1-19.7c0.3-10.8,0.8-21.5,1.2-32.3c0.1-2.4-0.2-4.8,3.1-5.3
		c3.4-0.5,6.2,0.6,7.5,3.3C302.3,179.3,301.4,182.5,302.1,186.4z"/>
	<path class="st0" d="M196.5,57.7c0-5.9,0-12,0.4-17.9c0.3-5,4.9-7.4,9.4-5.1c2,1,2,3,2,4.9c0,2.8-0.2,5.6-0.2,8.4
		c0,0.8,0,2.5,0,2.5s1.9-1,2.8-1.6c3.7-2.3,6.5-5.1,10.5-6.7c6.8-2.9,11.8-1.1,15.3,5.5c1.6,3.1,2.4,6.4,3.1,9.8
		c1.7,8,2,16.1,2.5,24.2c0.6,8.3,1.8,16.5,2.7,24.7c0.5,4.3-0.2,5.4-4.5,5.5c-1.4,0-2.8-0.4-4.2-0.4c-2.5-0.1-3.6-1.4-4.1-3.7
		c-0.7-3.5-1-7.1-1-10.7c0-8.8-0.2-17.5-1.5-26.2c-0.5-3-1.2-5.8-2.8-8.4c-2.1-3.3-4.4-4-8-2.3c-2.6,1.2-4.8,2.9-6.7,5
		c-1.1,1.2-2.8,2.8-2.8,2.8s0,3.5,0.1,4.9c0.6,4.6,1.1,9.3,1.5,14c0.2,2.4,1.2,5.2-1.5,6.8c-2.8,1.8-6,1.6-9.1,1
		c-1.6-0.3-1.6-2.1-1.9-3.5c-1-6-1.2-12.1-1.6-18.2C196.6,67.9,196.5,62.8,196.5,57.7z"/>
	<path class="st0" d="M565.3,80c0.1-5.5-0.2-10.9-0.6-16.4c-0.1-1.7-0.5-3.4-1.1-5c-2.2-5.7-8.5-7.6-13.5-4.2
		c-2.4,1.6-2.7,4-2.9,6.6c-0.5,8.6-0.8,17.1-0.1,25.7c0.5,5.5-0.1,5.8-5.7,5.7c-0.9,0-1.9-0.1-2.8-0.1c-2.6,0-4-1.3-4.6-3.8
		c-1-4-1.5-8-1.6-12c-0.1-11.2,0.1-22.5,1-33.7c0.2-2.5,1.3-3.8,3.5-4.2c3.4-0.6,6.9-1.4,9.2,2.3c0.4,0.7,0.5,1.6,0.5,1.6
		s2.2-0.9,3-1.3c5.3-2.8,10.8-3.7,16.7-2.1c3.9,1.1,6.7,3.3,8.2,7c1.1,2.8,1.7,5.7,1.9,8.7c0.7,14,1.2,28.1,2.8,42
		c0.3,2.3,0.6,4.6,1.3,6.9c0.3,1.1,0.5,2.1-0.4,3c-3.4,3.4-11.2,1.6-12.7-3c-1.6-4.8-2-9.8-2.2-14.8C565.2,85.9,565.3,82.9,565.3,80
		z"/>
	<path class="st0" d="M115.8,57.9c0.6-4,1.2-7.5,2.4-10.9c3.1-8.9,11.4-13.8,20.7-12.1c4.2,0.7,8.1,2.3,11.9,4.2
		c7.5,3.9,10.4,11,12.3,18.6c1.9,7.5,2.1,15.2-0.7,22.6c-4.1,10.9-11.8,18.1-23.6,19.5c-12.2,1.4-24.8-6.9-29.3-18.4
		c-2.2-5.8-3.1-11.8-3.7-17.8c-0.6-6.3,2.2-8.3,8.2-6.1C114.5,57.7,115,57.7,115.8,57.9z M154.6,68.8c0.3-8.9-2.4-16.1-9-21.5
		c-6.4-5.3-13.6-3.3-16.5,4.5c-1.2,3.4-1.8,6.9-2.1,10.5c-0.4,5.8-0.6,6.1-6.3,7.4c-1.7,0.4-2.5,1-2,2.8c1.6,5.5,3.8,10.6,8.2,14.5
		c2.3,2.1,5,3.3,8.1,3.2c7.4-0.1,13.3-2.9,17.1-9.6C154.2,76.8,154.9,72.7,154.6,68.8z"/>
	<path class="st0" d="M548.5,206.5c0.1,5.4-0.2,10.9,1.9,16.2c1.5,3.7,3.5,6.9,6.6,9.5c5.1,4.2,10.4,3.9,14.9-1
		c2.7-3,4.1-3.3,6.7-1.6c2.7,1.8,3,3.3,1.2,6.2c-4.2,6.5-9.4,11.4-18,10.4c-6.8-0.8-11.9-4.3-15.8-9.8c-5.7-8-8.2-17.1-8.5-26.8
		c-0.2-4.9,0.3-9.7,0.7-14.5c0.2-2,0.4-4.2,0.4-4.2s-2.3-0.5-4.5-0.8c-2.2-0.3-4.3-0.6-6.5-0.9c-1.7-0.2-2.5-1.1-2.4-2.8
		c0-1.1,0-2.2,0-3.3c0.2-3.2,1.1-4.2,4.3-4.3c2.5-0.1,5,0,7.5,0.3c1.3,0.1,3.6-0.1,3.6-0.1s0.3-1.8,0.5-3.1
		c1.1-6.3,2.3-12.6,3.5-18.9c0.3-1.4,0.8-2.7,1-4.1c0.7-4.5,3.1-5.1,7.7-3.4c2.6,1,2.9,2.2,2.2,5.8c-1.4,6.7-2.9,13.4-4.2,20.2
		c-0.4,2.3-0.6,4.3-0.6,4.3s2.2,0.5,4.6,0.7c4.8,0.3,9.7,0.7,14.5,1.2c1.8,0.2,4.2,0.1,4.6,2.4c0.4,2.6,0.9,5.3-0.5,7.8
		c-0.7,1.3-2.2,1.1-3.4,1c-5.5-0.4-10.9-0.8-16.4-1.1c-2.4-0.1-5.2,0-5.2,0s-0.3,2.2-0.4,4.9C548.3,199.9,548.5,203.2,548.5,206.5z"
		/>
	<path class="st0" d="M473.1,202.4c0.4,6.6-2.1,11.8-7.7,15.6c-5.1,3.5-10.8,4.8-16.7,5.7c-2.2,0.3-4.3,0.5-6.5,0.9
		c-0.9,0.2-2.2,0.4-2.2,0.4s0,1.8,0.6,2.9c1.4,2.5,3.6,3.8,6.5,3.8c4.6,0,8.6-1.6,12.1-4.4c1.5-1.2,2.8-2.5,4.2-3.7
		c2.4-1.9,5.8-2,8.3-0.3c1.6,1,1.8,2.4,1.4,4.1c-0.7,3.2-2.3,5.9-4.7,7.9c-7.9,6.8-16.8,10-27.3,7.1c-6.6-1.8-10.7-6-12.8-12.5
		c-4.3-13.3,3.2-32.7,14.5-40.4c6.8-4.6,18.7-4.3,25.3,0.7C471.7,192.8,472.7,195.3,473.1,202.4z M445.3,215.1
		c4.8-0.6,10.2-0.7,14.6-4.2c2.5-2,3.8-4.5,2.9-7.8c-0.8-2.9-3.7-4.8-7.1-5c-6.6-0.3-13,5.5-14.3,12.9c-0.3,1.8-0.6,4.3-0.6,4.3
		S443.2,215.1,445.3,215.1z"/>
	<path class="st0" d="M258.1,214.1c-1.6,0-3.7,0-5.7,0c-1.1,0-2.7-0.2-2.7-0.2s-0.1,2.2,0.1,3.1c1,5.1,3.2,8.7,9.2,8.8
		c2.9,0,5.6-0.6,8.2-1.8c1.4-0.6,2.8-1.4,4.3-1.9c3.1-1,4.4-0.5,5.8,2.1c1.6,3,1.4,4.3-1.5,6.3c-5.8,4.1-12.1,6.5-19.2,6.3
		c-7.6-0.2-13-4-16.3-10.7c-6.6-13.5-3.3-32.5,7.3-43.2c2.3-2.4,5-4.3,8.1-5.4c6.6-2.4,13.2-3,19,1.8c6.5,5.4,9.5,12.2,7.9,20.8
		c-1.2,6.3-5.3,10.1-11.1,12.2C267.3,213.9,262.9,214.3,258.1,214.1z M258.6,205.3c2.4,0.1,5.8-0.2,9-1.7c5.1-2.6,6.1-10.1,2-13.9
		c-4.9-4.5-12.7-3.5-16.3,2.1c-1.4,2.1-2.2,4.5-2.9,6.9c-0.8,2.8-1,5.7-1,5.7s3.1,0.7,5.9,0.8C256,205.1,256.8,205.2,258.6,205.3z"
		/>
	<path class="st0" d="M503.1,245.5c-5.1-0.2-9.7-0.3-13.7-2.9c-2.7-1.8-4.6-3.9-5.4-7.3c-1.3-5.7,0-10.9,2.8-15.7
		c1.5-2.7,4.2-3.6,7.3-2.8c3.7,0.9,4.5,2.7,2.7,6.1c-4.1,7.5-0.7,13.2,7.9,13.2c1.1,0,2.2,0,3.3-0.2c4.4-0.7,8.2-3.9,8.9-7.3
		c1-4.7-0.8-9.1-5-11.7c-4.1-2.6-8.7-4.3-13.4-5.6c-2.7-0.7-5.5-1.3-8.2-2.1c-6.4-1.9-9.3-6.7-8.3-13.3c0.6-3.9,2.4-7.2,5.6-9.5
		c7.2-5.2,15.1-6.7,23.4-3c3.9,1.7,6.6,4.8,7.5,9c0.8,3.7-3.4,7.4-7.1,6.4c-1.1-0.3-1.1-1.4-1.5-2.2c-2.6-4.8-9.2-6.9-14.1-4.3
		c-1.9,1-3.3,2.5-3.3,4.7c0,2.1,1.5,3.4,3.3,4.2c2,0.9,4.1,1.5,6.3,1.9c9.8,1.8,17.1,7.3,22.8,15.2c5.3,7.3,3.2,17.4-4.5,22
		C514.9,243.9,508.8,245.4,503.1,245.5z"/>
	<path class="st0" d="M483.6,58.9c-0.2-17.3,1.2-34.3,5-51.2c1.4-6,6.6-7.6,11.5-3.6c1.8,1.5,1.5,3.4,1.2,5.2
		c-1.2,7.2-2.2,14.5-3.1,21.8c-1.7,15.1-3.2,30.1-1,45.3c0.7,5.1,1.5,10.2,1.3,15.4c-0.1,4.4-1.7,6.4-5.4,6.7c-4,0.3-6.7-1.8-7.4-6
		c-1.8-10.2-2.1-20.5-2.1-30.8C483.6,60.8,483.6,59.9,483.6,58.9z"/>
	<path class="st0" d="M172.2,39.9c0.4-11.4,0.2-22.8,2.9-34c1.2-5.1,4.7-7,9.6-5.3c1.6,0.5,1.6,1.7,1.5,3c-0.3,2.2-0.6,4.3-0.9,6.5
		c-2.4,19-1.4,38-0.2,57c0.5,7.6,0.9,15.3,1.9,22.9c0.1,1.1,0.1,2.2,0.1,3.3c0.1,2.3-1.3,3.4-3.4,3.7c-1.1,0.2-2.2,0.2-3.3,0.2
		c-3.5-0.1-4-0.4-4.3-4c-0.7-6.8-1.3-13.7-1.7-20.5C173.6,61.7,172,50.9,172.2,39.9z"/>
	<path class="st0" d="M508.2,76.4c0.6-11.4,1.1-22.8,1.8-34.1c0.3-4.1,0.7-4.3,4.8-4.5c0.8,0,1.6,0,2.3,0C521,38.1,522,39,522,43
		c-0.2,8.1-0.5,16.2-0.8,24.3c-0.3,8.1-0.5,16.2,0.4,24.3c0.1,0.8,0.1,1.5-0.4,2.2c-1.3,1.9-5.6,3.1-8.1,2.5c-3-0.7-3.8-2.8-4-5.5
		C508.7,86,508,81.2,508.2,76.4z"/>
	<path class="st0" d="M510.4,25.3c0.2-1.4,0.6-4.1,1-6.7c0.4-2.5,1.7-3.8,4.3-4.1c1.7-0.2,3.4-0.2,5.1,0.2c3.4,1,4.1,2.2,3.7,5.8
		c-0.3,2.5-0.6,4.9-0.9,7.4c-0.3,2.8-1.9,4.1-4.6,4.4c-1.1,0.1-2.2,0.1-3.3,0C511.5,32,510.3,30.8,510.4,25.3z"/>
</g>
</svg>
