<svg version="1.1" id="Layer_1" xmlns="http://www.w3.org/2000/svg" x="0" y="0" viewBox="0 0 1891 2459.71" xml:space="preserve"><style>.st0{display:none}.st1,.st4{stroke-miterlimit:10}.st1{display:inline;fill:none;stroke:#000;stroke-width:5}.st4{fill:#c61f4a;stroke:#c61f4a;stroke-width:50;stroke-linecap:round;stroke-linejoin:round}.st5,.st6{display:inline;fill:#2d6e50}.st6{fill:#c61f4a;stroke:#c61f4a;stroke-width:50;stroke-linecap:round;stroke-linejoin:round;stroke-miterlimit:10}.st7{fill:#337454}.st8{fill:#327454}</style><g class="st0"><circle class="st1" cx="667.5" cy="1093.21" r="350"/><circle class="st1" cx="942.5" cy="1372.21" r="350"/><circle class="st1" cx="1514" cy="1283.46" r="350"/><circle class="st1" cx="374.5" cy="1283.46" r="350"/><circle class="st1" cx="1355.5" cy="1839.21" r="350"/><circle class="st1" cx="516.5" cy="1839.21" r="350"/><circle class="st1" cx="942.5" cy="2107.21" r="350"/><circle class="st1" cx="1194.5" cy="1093.21" r="350"/></g><path d="M1082.33 630.93c-38.54 0-76.77-5.41-114.26-16.22h0a2.5 2.5 0 01-1.6-1.41h0c-13.23-30.7-22.76-63.14-28.33-96.41-9.26-55.41-7.4-110.98 5.55-165.17 12.5-52.33 34.76-101.18 66.15-145.17 31.39-44 70.34-80.93 115.76-109.77 47.03-29.86 98.97-49.7 154.38-58.97 61.94-10.35 123.72-6.85 183.62 10.41h0a2.5 2.5 0 011.6 1.41h0c13.23 30.7 22.76 63.14 28.33 96.41 9.26 55.41 7.4 110.98-5.55 165.17-12.5 52.33-34.76 101.18-66.15 145.17-31.39 44-70.34 80.93-115.76 109.77-47.03 29.86-98.97 49.7-154.38 58.97-23.17 3.87-46.32 5.81-69.36 5.81zm-112.21-21.82c.3.7.9 1.24 1.64 1.45 58.46 16.48 118.7 19.73 179.11 9.63 223.61-37.38 375.12-249.71 337.74-473.32-5.36-32.08-14.46-63.37-27.04-93.05-.3-.7-.9-1.24-1.64-1.45-58.46-16.49-118.7-19.73-179.11-9.63-223.62 37.38-375.13 249.71-337.75 473.32 5.37 32.08 14.46 63.37 27.05 93.05z" fill="#c61f4a" stroke="#c61f4a" stroke-width="50" stroke-miterlimit="10"/><path class="st4" d="M1164.32 319.14c-46.23 25.96-50.95 33.98-58.68 40.45-.76.62-1.5 1.24-2.24 1.88l-5.15 4.46c-1.43 1.24-2.84 2.5-4.24 3.78a381.33 381.33 0 00-45.26 48.91c-.93 1.18-1.82 2.35-2.73 3.55l-.06.07c-1.1 1.44-2.19 2.9-3.25 4.35-1.02 1.4-2.03 2.8-3.04 4.19-.85 1.19-1.69 2.36-2.52 3.55-.12.16-.24.32-.33.48-17.58 25.24-31.91 52.17-42.91 80.57-.45 1.15-.89 2.31-1.32 3.47-.44 1.15-.87 2.33-1.29 3.46-.37.98-.71 1.96-1.06 2.95-.13.36-.26.72-.38 1.09l-2.26 6.63c-4.52 13.59-8.28 27.48-11.31 41.67a397.267 397.267 0 00-6.41 40.22c3.88-23.72 9.79-47.22 17.74-70.27.68-2 1.37-3.99 2.1-5.97.18-.46.34-.93.51-1.4.14-.39.27-.76.42-1.14.09-.26.2-.52.29-.78.09-.25.2-.51.29-.77.32-.9.68-1.79 1.01-2.68.02-.07.05-.13.08-.21.24-.65.51-1.33.76-1.97.26-.65.5-1.29.75-1.93.62-1.55 1.24-3.13 1.87-4.69.78-1.93 1.59-3.86 2.4-5.77 11.53-27.24 26.07-53.64 43.67-78.74.62-.94 1.28-1.85 1.95-2.78.25-.36.51-.74.78-1.1a448.592 448.592 0 016.16-8.39c.99-1.32 1.98-2.62 3-3.92 15.2-19.71 31.79-37.74 49.56-54.04.33-.3.66-.61.99-.91.49-.46 1-.91 1.5-1.35.82-.76 1.66-1.5 2.5-2.24h-.01c.22-.2.43-.39.66-.58 4.36-3.86 8.79-7.63 13.28-11.29 1.65-1.34 3.29-2.67 4.95-3.98 23.14-18.31 47.9-33.97 73.79-46.95a396.708 396.708 0 00-36.56 18.12z"/><g class="st0"><path class="st5" d="M481.52 1158.72c-4.73-4.72-7.09-9.08-7.09-13.09 0-.72.36-2.54 1.09-5.45 1.81-4.36 5.81-6.9 12-7.63l14.18-1.64c30.89 6.54 62.88 23.63 95.96 51.25 8.72 7.28 15.81 14.91 21.26 22.9 17.45 25.81 26.17 49.98 26.17 72.52 0 12.73-2.37 23.81-7.09 33.26-1.82 4-3.54 8.18-5.18 12.54s-3.37 8.54-5.18 12.54c-3.64 8.37-8.37 16.18-14.18 23.45-5.82 7.28-11.45 14.36-16.9 21.26a835.337 835.337 0 01-16.9 20.72c-13.82 16.36-26.36 28.35-37.62 35.98-3.64 4.36-7.55 8.72-11.72 13.09-4.18 4.36-8.27 6.54-12.27 6.54-2.55 0-6.73-1-12.54-3-5.82-2-9.81-5.18-12-9.54-1.09-15.27-1.64-31.62-1.64-49.07 0-9.08.18-20.17.54-33.26.36-13.09.9-28.53 1.64-46.34.72-17.81 1.27-33.26 1.64-46.34.36-13.09.55-24.17.55-33.26 0-11.63-.27-22.9-.82-33.8-.55-10.9-1.18-21.26-1.91-31.08l-11.99-12.55zm56.7 226.27c41.07-41.07 61.61-80.15 61.61-117.22 0-2.54-.09-5.09-.27-7.63-.19-2.54-.46-5.09-.82-7.63-3.27-22.9-22.72-43.07-58.34-60.52-.73 20.72-1.36 41.71-1.91 62.97-.54 21.26-.82 43.35-.82 66.25v31.62c0 10.54.18 21.25.55 32.16zm339.65-82.23c-5.95 13.9-13.09 26.69-21.43 38.39-8.33 11.71-17.36 21.83-27.08 30.36-9.73 8.54-20.24 15.18-31.55 19.94s-22.92 7.14-34.82 7.14c-8.33 0-17.76-2.18-28.27-6.55-10.52-4.36-20.44-10.91-29.76-19.64-9.33-8.72-17.26-19.35-23.81-31.85-6.55-12.5-9.82-27.08-9.82-43.75 0-13.09 2.47-28.27 7.44-45.54 4.96-17.26 11.5-33.63 19.64-49.11 8.13-15.48 17.56-28.57 28.27-39.29 10.71-10.71 21.82-16.07 33.33-16.07 2.77 0 5.06.4 6.84 1.19 1.79.8 3.77 1.79 5.95 2.98s4.86 2.78 8.04 4.76c3.17 1.99 7.53 4.17 13.09 6.55 3.57 1.59 7.64 3.27 12.2 5.06 4.56 1.79 10.02 3.67 16.37 5.65 11.9 3.97 21.82 10.32 29.76 19.05 7.93 8.73 14.29 18.15 19.05 28.27 4.76 10.12 8.04 20.04 9.82 29.76 1.79 9.73 2.68 17.56 2.68 23.51.01 11.54-1.98 21.26-5.94 29.19zm-47.62-36.9c-1.99-15.87-5.26-28.66-9.82-38.39-4.57-9.72-10.82-14.58-18.75-14.58-2.38 0-5.46 1.49-9.23 4.46-3.78 2.98-7.54 6.25-11.31 9.82-3.78 3.57-7.35 6.85-10.71 9.82-3.38 2.98-5.65 4.46-6.84 4.46-3.18 0-6.95-1.58-11.31-4.76-4.37-3.17-7.35-4.76-8.93-4.76-3.97 0-7.44 2.08-10.42 6.25-2.98 4.17-5.46 9.13-7.44 14.88-1.99 5.76-3.48 11.91-4.46 18.45-1 6.55-1.49 12.2-1.49 16.96 0 10.32 1.58 19.64 4.76 27.98 3.17 8.33 6.94 15.48 11.31 21.43 4.36 5.95 8.83 10.52 13.39 13.69 4.56 3.18 8.04 4.76 10.42 4.76 7.53 0 15.48-2.68 23.81-8.04 8.33-5.36 15.97-12.2 22.92-20.54 6.94-8.33 12.7-17.46 17.26-27.38 4.56-9.91 6.85-19.44 6.85-28.57v-5.94zm214.61 157.74c-8.24-1.71-14.52-4.89-18.81-9.53-4.3-4.64-8.68-10.73-13.14-18.29-2.75-4.81-5.5-10.99-8.24-18.55-2.75-7.55-5.5-16.66-8.24-27.31-2.75-12.02-5.5-24.04-8.24-36.07-2.75-12.02-4.81-21.12-6.18-27.31a1910.76 1910.76 0 01-11.85 53.33c-4.12 17.35-8.24 33.75-12.37 49.21s-8.24 29.63-12.37 42.51c-4.12 12.88-8.24 23.78-12.37 32.72-1.03 2.4-3.27 3.61-6.7 3.61-3.78 0-8.76-1.54-14.94-4.64-4.81-2.41-8.16-5.33-10.05-8.76-1.89-3.44-2.83-7.39-2.83-11.85 0-2.75 3.61-13.73 10.82-32.97 1.71-4.12 5.49-15.97 11.33-35.55s14.08-47.4 24.73-83.47c3.78-12.37 7.55-29.37 11.34-51.01 3.78-21.64 7.55-48.09 11.33-79.35.68-.68 2.4-4.29 5.15-10.82 1.71-4.81 4.81-7.21 9.27-7.21 12.7 0 21.29 2.24 25.76 6.7v19.58c0 8.25.68 17.86 2.06 28.85 1.37 11 2.4 20.61 3.09 28.85.68 8.24 1.03 15.29 1.03 21.12 1.03 12.37 2.75 22.76 5.15 31.17 2.4 8.42 4.46 17.44 6.18 27.05 3.78 23.02 10.47 41.4 20.09 55.13 16.49-46.02 29.96-87.15 40.45-123.4 10.47-36.24 17.95-67.92 22.41-95.06 1.37-5.49 6.52-8.24 15.46-8.24 12.7 0 19.92 4.12 21.64 12.37 2.4 11 3.61 25.25 3.61 42.76 0 2.75-.09 6.88-.26 12.37-.18 5.5-.43 12.71-.77 21.64-.35 3.78-.52 7.21-.52 10.3v17c0 2.75.17 5.15.52 7.21 3.09 72.83 9.79 133.62 20.09 182.39 0 .68.08 1.11.26 1.29.17.17.26.43.26.77 0 5.84-5.67 8.93-17 9.27-6.88 0-14.09-3.27-21.64-9.79-6.88-5.84-12.03-15.28-15.46-28.34-3.78-11.67-5.84-28.68-6.18-51.01v-21.12c0-7.9-.09-15.54-.26-22.93-.18-7.38-.35-14.08-.51-20.09-.18-6.01-.44-10.38-.77-13.14-1.03 3.78-2.75 9.45-5.15 17-2.41 7.56-5.07 15.89-7.99 24.99-2.92 9.11-5.92 18.38-9.02 27.82-3.09 9.45-5.84 17.95-8.24 25.5-6.18 16.83-9.97 26.45-11.33 28.85-5.15 9.62-11.33 14.43-18.55 14.43h-2.05zm143.74 30.92c0-13.4 3.78-29.37 11.33-47.92 10.3-25.07 15.97-43.28 17-54.61 0-2.75-2.24-5.84-6.7-9.27-4.81-3.78-7.21-6.7-7.21-8.76s.68-3.78 2.06-5.15c1.37-2.06 4.98-3.61 10.82-4.64 5.84-1.37 9.1-3.26 9.79-5.67 6.18-16.83 15.97-48.77 29.37-95.83 5.84-20.61 11.25-38.55 16.23-53.84 4.97-15.28 9.7-28.42 14.17-39.42 2.06-4.81 6.35-7.21 12.88-7.21 4.81 0 9.1 1.55 12.88 4.64 9.61 8.24 15.79 20.61 18.55 37.1 1.03 6.88 2.06 13.91 3.09 21.12a529.21 529.21 0 012.58 21.12c8.58 40.53 17.34 77.37 26.28 110.52 8.93 33.15 18.03 63.12 27.31 89.91 2.06 5.84 3.09 10.65 3.09 14.43 0 6.88-2.92 12.88-8.76 18.03-5.5 4.81-9.45 7.21-11.85 7.21-16.83-3.09-27.49-16.66-31.95-40.7-4.47-26.1-10.13-47.92-17-65.43l-35.04 3.09c-13.4 1.72-23.88 5.84-31.43 12.37-1.72 5.5-3.86 12.88-6.44 22.16s-5.41 20.79-8.5 34.52c-5.84 25.42-11.51 44.48-17 57.19-1.72 4.12-5.15 6.18-10.3 6.18h-3.35c-1.21 0-2.5-.35-3.86-1.03-11.33-3.44-17.35-8.59-18.03-15.46v-4.65zm125.21-146.33c-.69-6.87-1.55-13.82-2.58-20.87-1.03-7.04-2.41-14.34-4.12-21.9-1.72-6.87-3.35-13.73-4.89-20.61a917.35 917.35 0 00-4.9-20.61c-10.3 28.85-19.24 57.37-26.79 85.53 5.49-1.02 19.91-1.54 43.28-1.54z"/></g><g class="st0"><path class="st5" d="M624.82 1795.11c-2.75.35-6.36.95-10.82 1.8-4.47.86-9.79 1.98-15.97 3.35-.35 3.44-.6 7.04-.77 10.82-.18 3.78-.26 7.91-.26 12.37 0 4.12.08 9.27.26 15.46.17 6.18.43 13.57.77 22.15 1.03 17.18 1.55 29.71 1.55 37.61 0 29.88-4.64 53.24-13.91 70.07-2.06 3.78-5.15 5.67-9.27 5.67-4.12 0-8.42-1.89-12.88-5.67-4.47-3.78-7.39-7.91-8.76-12.37-3.44-9.97-5.15-22.33-5.15-37.1 0-2.41.26-7.73.77-15.97.52-8.24 1.46-19.58 2.83-34.01.34-4.46.6-8.76.77-12.88.17-4.12.26-8.07.26-11.85 0-10.99-.69-19.4-2.06-25.25-.69-4.81-4.12-8.41-10.3-10.82-7.91-3.43-12.88-6.18-14.94-8.24-.35-.34-.52-1.71-.52-4.12 0-1.71.17-3.94.52-6.7.34-2.75 1.2-6 2.58-9.79 3.78 0 6.96-1.55 9.53-4.64 2.58-3.09 5.23-4.64 7.99-4.64 2.06 0 3.43.18 4.12.52 1.71-7.9 3-16.57 3.86-26.02.85-9.44 1.29-19.66 1.29-30.66 0-3.43-.35-10.82-1.03-22.16-.69-11.33-1.55-26.79-2.58-46.37 0-1.71-.09-3.52-.26-5.41-.18-1.88-.26-3.86-.26-5.93-6.53-2.06-12.97-6.09-19.32-12.11-6.36-6.01-9.53-12.28-9.53-18.81 0-8.58 6.18-13.73 18.55-15.46 8.58-1.37 20.61-4.12 36.07-8.24s34.52-9.96 57.19-17.52c39.5-12.7 71.44-19.4 95.83-20.09 6.18 0 11.59 1.63 16.23 4.89 4.64 3.27 6.96 7.65 6.96 13.14 0 6.88-2.15 13.14-6.44 18.81-4.3 5.67-9.88 9.19-16.75 10.56h-2.06c-3.09 0-6.62-.85-10.56-2.58-3.95-1.71-7.3-2.58-10.05-2.58-7.91.69-16.41 2.41-25.5 5.15-9.1 2.75-19.15 6.36-30.14 10.82-14.43 5.84-26.02 10.48-34.78 13.91-8.76 3.44-15.38 5.84-19.84 7.21-.69 11-1.21 21.99-1.55 32.98-.35 11-.52 21.99-.52 32.97 0 11 .17 22.16.52 33.49.34 11.33.85 22.5 1.55 33.49 1.71.35 3.26.6 4.64.77 1.37.18 2.75.26 4.12.26 6.52 0 18.89-2.58 37.1-7.73 6.87-2.06 13.22-3.69 19.06-4.89 5.84-1.2 10.82-1.8 14.94-1.8.68 0 1.46.09 2.32.26.85.18 1.63.26 2.32.26 6.87.69 10.3 3.61 10.3 8.76-2.06 13.4-10.65 23.7-25.76 30.91l-42.26 13.95z"/><path class="st5" d="M726.85 1751.31c.68-3.09 3.26-5.84 7.73-8.24 5.15-2.75 8.07-5.49 8.76-8.24.34-1.37.85-6.01 1.55-13.91.68-7.9 1.55-19.58 2.58-35.04-18.89-3.43-28.34-10.64-28.34-21.64.34-9.96 6.35-17.86 18.03-23.7l32.98-13.4c6.52-3.43 13.73-6.52 21.64-9.27 7.9-2.75 16.66-5.49 26.28-8.24 8.58-2.4 17-4.64 25.25-6.7 8.24-2.06 16.66-4.12 25.25-6.18.68-.34 2.75-.52 6.18-.52 9.27 0 20.09 3.61 32.46 10.82.34 1.38 1.2 3.95 2.58 7.73 1.37 3.78 2.06 6.53 2.06 8.24 0 3.09-1.21 5.33-3.61 6.7-6.53 2.75-14.43 5.59-23.7 8.5-9.27 2.92-20.09 6.1-32.46 9.53-12.37 3.44-23.19 6.62-32.46 9.53-9.27 2.92-17.18 5.76-23.7 8.5-1.38 4.12-2.66 11.17-3.86 21.12-1.21 9.97-2.15 22.85-2.83 38.64 5.49 2.06 11.85 3.09 19.06 3.09 2.75 0 6.09-.26 10.05-.77 3.94-.51 8.67-1.11 14.17-1.8 5.49-.68 10.22-1.29 14.17-1.8 3.94-.51 7.29-.77 10.05-.77 9.61 0 17.86 2.06 24.73 6.18 4.81 6.88 7.21 11.33 7.21 13.4 0 2.41-1.21 4.3-3.61 5.67-.35.35-1.12 1.03-2.32 2.06-1.21 1.03-2.83 2.75-4.89 5.15-2.06 2.75-5.5 4.12-10.3 4.12-7.21 1.38-20.44 2.41-39.67 3.09-16.15.69-29.03 2.75-38.64 6.18-6.53 24.05-9.79 44.14-9.79 60.28 0 9.27 1.37 17.18 4.12 23.7 14.08 9.97 37.27 14.94 69.56 14.94 2.4 0 4.72-.08 6.96-.26 2.23-.17 4.72-.26 7.47-.26s5.67-1.29 8.76-3.86c3.09-2.58 5.67-3.86 7.73-3.86.68 0 1.2-.08 1.54-.26.34-.17.85-.26 1.55-.26 8.24 0 13.57 7.39 15.97 22.15 0 .69.08 1.38.26 2.06.17.69.26 1.38.26 2.06 0 4.81-1.46 9.02-4.38 12.62-2.92 3.61-6.79 5.58-11.59 5.93-3.09 0-6.18.08-9.27.26-3.09.17-6.18.26-9.27.26-32.97 0-62.86-3.44-89.65-10.3-9.62-2.41-18.38-7.73-26.28-15.97-7.91-8.24-12.37-17.52-13.4-27.82-.69-7.55-1.29-14.76-1.8-21.64-.52-6.87-.77-13.73-.77-20.61 0-6.87.26-13.48.77-19.84.52-6.35 1.11-12.45 1.8-18.29-8.59-6.18-12.88-11.85-12.88-17v-2.06zm251.94 190.12c-10.3-4.47-15.46-10.14-15.46-17 0-4.12 2.58-9.11 7.73-14.94 1.37-1.38 4.64-2.41 9.79-3.09 5.15-.35 8.58-2.41 10.3-6.18 7.21-14.76 10.82-30.22 10.82-46.37 0-21.64-11.17-53.92-33.49-96.86-21.99-42.59-32.98-76.59-32.98-102.02 0-20.95 4.12-39.67 12.37-56.16 9.27-18.89 22.49-32.46 39.67-40.7 8.58-3.78 16.31-5.67 23.19-5.67 14.43 0 25.25 3.95 32.46 11.85 3.43 3.44 5.15 7.21 5.15 11.33 0 6.88-4.98 12.88-14.94 18.03-1.38.69-2.92 1.03-4.64 1.03-2.06 0-3.44-.17-4.12-.51-3.78-1.37-6.36-2.06-7.73-2.06-2.06 0-4.12 1.03-6.18 3.09-18.55 18.55-27.82 41.22-27.82 68.01 0 9.97 1.55 19.24 4.64 27.82.68 1.72 4.29 9.27 10.82 22.67 6.52 13.4 15.97 32.46 28.34 57.19 16.49 32.97 24.73 60.97 24.73 83.98 0 18.89-4.64 37.1-13.91 54.62-3.09 5.84-10.82 13.4-23.19 22.67-9.97 7.21-18.89 10.82-26.79 10.82-3.44 0-6.36-.52-8.76-1.55zm232.37-48.95c0 2.06-.09 3.86-.26 5.41-.18 1.55-.43 3-.77 4.38-1.72 5.15-5.15 7.73-10.3 7.73-9.97-.35-18.12-4.56-24.47-12.62-6.36-8.07-9.88-17.08-10.56-27.05-1.03-12.7-1.55-26.1-1.55-40.19 0-22.67 1.55-58.56 4.64-107.68 1.37-20.61 2.4-39.07 3.09-55.39.68-16.31 1.03-30.48 1.03-42.51v-9.79h-6.7c-4.12 0-8.85.18-14.17.51-5.33.35-11.25 1.03-17.78 2.06-3.78.69-6.7 1.29-8.76 1.8-2.06.52-4.98.77-8.76.77-16.49 0-30.23-4.46-41.22-13.4-4.12-8.58-6.18-13.22-6.18-13.91 0-2.75 1.21-5.32 3.61-7.73 5.49-1.71 11.85-3.35 19.06-4.89 7.21-1.55 16.14-2.83 26.79-3.86 28.85-3.09 68.1-7.42 68.1-7.42s25.67-3.4 40.1-3.4 29.19-1.88 44.31-5.67c2.06-.34 5.32-1.11 9.79-2.32 4.46-1.2 9.1-2.49 13.91-3.86 8.24-2.4 16.31-3.61 24.22-3.61 1.03 0 2.14.09 3.35.26 1.2.18 2.32.26 3.35.26 5.15 0 7.73 1.89 7.73 5.67v2.06c9.27 0 13.91 3.09 13.91 9.27-3.09 12.37-8.94 19.58-17.52 21.64-11 2.75-24.99 5.76-41.99 9.02-17 3.27-39.25 7.13-66.72 11.59-3.44 43.28-6.01 82.44-7.73 117.47-1.72 35.04-2.58 67.16-2.58 96.35 0 11 .08 21.73.26 32.2.17 10.48.43 21.04.77 31.69v5.16z"/></g><path class="st4" d="M1053.26 973.68c-28.48-12.89-33.94-12.33-39.71-13.73-.56-.14-1.12-.28-1.68-.41l-3.91-.89c-1.1-.25-2.18-.47-3.28-.69a225.05 225.05 0 00-39.04-4.41c-.89-.02-1.76-.03-2.64-.05h-.06c-1.07-.01-2.14-.02-3.2-.02-1.02 0-2.04.01-3.05.02-.86.01-1.71.02-2.57.05h-.34c-1.93.05-3.86.13-5.78.23-16.14.83-32 3.35-47.48 7.55-.7.19-1.41.39-2.11.59-.48.13-.96.27-1.44.4-.74.22-1.49.43-2.22.66-.29.09-.57.17-.85.26l-3.94 1.24c-8.03 2.61-15.95 5.68-23.75 9.2a234.93 234.93 0 00-21.34 11.01 251.515 251.515 0 0139.57-16.14c1.19-.37 2.37-.73 3.57-1.08.28-.08.56-.17.85-.25.23-.08.45-.14.69-.21.15-.04.31-.08.46-.13.16-.04.32-.09.47-.13.54-.16 1.09-.31 1.63-.46.04-.01.08-.02.12-.04.4-.1.81-.21 1.21-.32.4-.11.78-.21 1.18-.32.95-.25 1.91-.51 2.88-.75a250.93 250.93 0 0150.5-7.45c1.9-.09 3.81-.16 5.73-.2.66-.03 1.33-.04 2-.05.26 0 .53-.01.8-.01 1.06-.02 2.13-.02 3.21-.02.97 0 1.94 0 2.92.02.97.01 1.94.02 2.91.05 14.67.33 29.03 1.91 42.98 4.65l.78.15c.39.08.78.16 1.16.24.65.13 1.29.27 1.94.41v-.01c.17.03.34.07.51.11a255.008 255.008 0 0113.62 3.32 252.5 252.5 0 0148.08 18.64c-6.93-4.04-14.06-7.71-21.38-11.03z"/><g class="st0"><path class="st6" d="M805.89 1733.48c-39.21 17.36-43.62 23.45-50.33 28.07-.66.44-1.31.88-1.95 1.33l-4.49 3.2c-1.25.89-2.48 1.8-3.71 2.71a308.599 308.599 0 00-40.18 35.91c-.83.87-1.64 1.75-2.46 2.65l-.06.05c-.99 1.08-1.98 2.17-2.94 3.26-.93 1.04-1.86 2.09-2.77 3.13-.78.89-1.55 1.77-2.3 2.67-.11.12-.22.24-.3.36-16.09 18.97-29.69 39.55-40.72 61.56-.45.9-.89 1.8-1.33 2.69-.31.61-.61 1.24-.9 1.86-.46.94-.92 1.91-1.37 2.86-.16.38-.35.74-.5 1.12l-2.34 5.16c-4.68 10.59-8.77 21.49-12.3 32.68-3.28 10.49-6.05 21.13-8.24 31.88a345.2 345.2 0 0119.67-55.2c.7-1.56 1.4-3.11 2.14-4.65.18-.36.35-.72.52-1.09.14-.3.28-.59.43-.88.09-.2.2-.41.29-.61.09-.19.2-.4.29-.6.33-.7.68-1.39 1.02-2.08.02-.05.04-.1.08-.16.24-.51.51-1.03.76-1.53.26-.5.5-1 .75-1.49.62-1.21 1.24-2.43 1.87-3.64.77-1.49 1.57-2.98 2.37-4.46 11.37-21.04 25.1-41.17 41.19-60.03.58-.71 1.18-1.39 1.79-2.09.22-.27.46-.55.71-.82.96-1.11 1.93-2.21 2.92-3.31.89-1 1.77-1.98 2.68-2.97.9-.99 1.8-1.96 2.72-2.93 13.74-14.69 28.48-27.94 44.04-39.7.29-.21.57-.44.86-.65.43-.34.87-.65 1.31-.98.72-.54 1.45-1.08 2.19-1.61.19-.15.36-.28.56-.42a347.07 347.07 0 0115.85-10.89 346.027 346.027 0 0163-32.14 321.52 321.52 0 00-30.82 11.78z"/></g><g class="st0"><path class="st6" d="M745.16 1242.56l-.06-3-.06-2.06c-.03-1.05-.07-2.12-.12-3.18-.02-.41-.03-.81-.06-1.22l-.32-5.66c-.75-11.55-2.16-23.1-4.21-34.65a321.707 321.707 0 00-7.44-32.09c4.31 18.96 7.04 38.36 8.1 58.04.09 1.7.18 3.41.24 5.12.01.4.03.8.05 1.2l.03.98c.01.23.01.46.02.68.01.21.01.44.02.66.03.77.04 1.55.06 2.31.01.06 0 .11 0 .19.02.56.03 1.14.03 1.71l.03 1.67.03 4.08c0 1.69-.02 3.37-.05 5.05-.34 23.92-3.2 48.12-8.75 72.28-.18.89-.4 1.78-.62 2.68-.07.34-.15.7-.25 1.06-.34 1.43-.69 2.85-1.05 4.28-.33 1.3-.66 2.58-1.01 3.88-.34 1.29-.68 2.57-1.05 3.85-5.39 19.39-12.33 37.94-20.69 55.56-.15.33-.3.66-.46.99-.22.49-.47.98-.71 1.46-.38.82-.79 1.62-1.18 2.44-.1.22-.21.43-.32.64-2.09 4.22-4.26 8.39-6.51 12.5-.83 1.5-1.65 3-2.5 4.49a346.28 346.28 0 01-40.99 57.63 320.5 320.5 0 0021.87-24.7c26.74-33.52 27.83-40.97 31.65-48.16.38-.7.75-1.39 1.11-2.09l2.5-4.91c.7-1.37 1.37-2.74 2.03-4.12a309.026 309.026 0 0019.02-50.42c.33-1.16.64-2.31.96-3.49l.02-.07c.38-1.42.75-2.84 1.11-4.25.34-1.36.67-2.71 1-4.06.28-1.15.55-2.28.81-3.43.04-.16.08-.31.1-.46 5.48-24.25 8.02-48.79 7.62-73.41z"/></g><path class="st4" d="M684.5 730.71c103.38 0 196.35 45.38 260.06 117.26 1.16 1.31 2.31 2.62 3.44 3.95v-7.88c-4.59-5.15-9.34-10.18-14.25-15.09-32.37-32.37-70.06-57.78-112.04-75.54-43.46-18.38-89.62-27.7-137.21-27.7s-93.75 9.32-137.21 27.7c-41.98 17.76-79.67 43.17-112.05 75.54a354.595 354.595 0 00-35.82 41.84c-.82-.02-1.63-.04-2.45-.05h-.08c-1.46-.02-2.93-.03-4.39-.03-1.4 0-2.79.01-4.18.03-1.18.01-2.35.03-3.52.06-.16 0-.32 0-.47.01-2.19.05-4.38.12-6.57.22-1.99.07-3.97.17-5.95.28a350.227 350.227 0 00-60.8 8.85c-1.64.38-3.28.78-4.91 1.2-1.19.3-2.38.6-3.57.92-1.74.46-3.47.93-5.2 1.41-.06.02-.12.04-.18.05l-2.73.78c-.33.09-.66.19-.99.28-.41.13-.82.25-1.23.37a350.236 350.236 0 00-36.91 13.24c-34.56 14.62-66.21 34.42-94.38 59.04-1.4 1.21-2.78 2.44-4.15 3.68-4.6 4.14-9.11 8.42-13.52 12.83-.25.25-.49.49-.73.74-1.25 1.25-2.48 2.51-3.7 3.78-30.27 31.34-54.17 67.48-71.11 107.52-18.38 43.46-27.7 89.62-27.7 137.21 0 8.55.3 17.05.91 25.49.14 2.07.3 4.13.48 6.19 1.15 12.95 3.01 25.76 5.56 38.42.33 1.66.68 3.31 1.04 4.95 2.06 9.53 4.53 18.98 7.41 28.31.02.09.05.19.08.28.51 1.71 1.06 3.42 1.61 5.11.03.1.07.2.1.3 3.09 9.51 6.6 18.89 10.51 28.16 2.16 5.1 4.43 10.15 6.82 15.12.79 1.66 1.6 3.31 2.42 4.95 16.94 33.99 39.18 64.85 66.3 91.97 20.18 20.18 42.42 37.65 66.47 52.25 1.67 1.02 3.35 2.01 5.04 2.99a351.02 351.02 0 0040.54 20.31c6.95 2.94 13.98 5.65 21.07 8.13-21.68 26.24-39.33 55.35-52.66 86.86-18.38 43.46-27.7 89.62-27.7 137.21s9.32 93.75 27.7 137.21c17.76 41.98 43.17 79.67 75.54 112.04 32.38 32.38 70.07 57.79 112.05 75.55 43.46 18.38 89.62 27.7 137.21 27.7 17.13 0 40.94-1.21 62.89-3.62a341.282 341.282 0 003.6 19.17c4.4 20.35 10.64 40.25 18.67 59.64.34.84.69 1.68 1.04 2.52.31.74.63 1.47.95 2.2 17.7 41.1 42.79 78.04 74.59 109.84 32.38 32.38 70.07 57.79 112.05 75.55 39.95 16.9 82.18 26.14 125.71 27.51v-5c-161.17-5.26-294.94-120.82-328.1-273.46-.36-1.65-.71-3.3-1.04-4.96a338.081 338.081 0 01-3.22-18.57c-1.65.2-3.32.4-5 .58-21.6 2.37-45.13 3.6-62.14 3.6-191.61 0-347.5-155.89-347.5-347.5 0-84.47 30.3-162.01 80.61-222.29.12-.14.23-.28.35-.42.83.26 1.67.51 2.51.76 1.46.43 2.93.86 4.41 1.26l5.32 1.43c.76.21 1.51.39 2.29.58 7.9 1.99 15.16 6.18 57.95 8.82 11 .67 22 .79 32.99.34-23.41-.35-46.96-3.05-70.24-8.24-1.67-.38-3.33-.76-5-1.15a364.36 364.36 0 01-13.64-3.55c-.24-.07-.46-.13-.68-.2v-.01c-.87-.24-1.75-.48-2.62-.75-.52-.15-1.04-.29-1.56-.46-.34-.09-.69-.21-1.04-.31-11.67-3.51-26.45-9.02-40.29-14.86-.14-.05-.27-.11-.4-.17a342.419 342.419 0 01-32.09-16.29c-1.72-.97-3.42-1.97-5.12-2.98-57.48-34.36-104.26-84.84-134.04-145.16-.82-1.65-1.62-3.31-2.41-4.98a344.671 344.671 0 01-16.97-43.03c-.03-.09-.06-.19-.09-.28-.56-1.72-1.09-3.45-1.61-5.19-.03-.08-.05-.17-.07-.25-2.54-8.46-4.77-17.06-6.66-25.77-.36-1.65-.71-3.3-1.04-4.96-2.7-13.38-4.64-27.04-5.74-40.93-.18-2.1-.32-4.2-.46-6.31-.44-7.16-.66-14.38-.66-21.65 0-92.96 36.69-177.51 96.35-239.93 1.23-1.3 2.48-2.58 3.74-3.85 4.33-4.4 8.79-8.69 13.35-12.86 1.38-1.26 2.77-2.5 4.17-3.74a348.886 348.886 0 0172.36-49.32 345.464 345.464 0 0154.27-22.13c1.62-.51 3.25-1.01 4.89-1.49.39-.11.77-.23 1.16-.34.32-.1.63-.19.95-.28l.64-.18.64-.18c.74-.22 1.49-.42 2.23-.63.06-.02.11-.03.17-.05l1.66-.45c.54-.14 1.07-.29 1.61-.43 1.31-.35 2.63-.7 3.95-1.03 1.63-.42 3.27-.82 4.91-1.21 3.86-.92 7.74-1.77 11.65-2.55 14.84-3 30.01-5.04 45.45-6.06.1-.01.2-.02.3-.02 1.84-.13 3.69-.23 5.54-.32.03 0 .06-.01.09 0 3.05-.16 6.11-.27 9.18-.34.91-.04 1.82-.05 2.74-.06.36-.01.73-.02 1.1-.02 1.46-.02 2.93-.03 4.4-.03 1.13 0 2.25.01 3.38.03.21-.01.42 0 .63 0 1.33.01 2.66.03 3.99.07.55.01 1.1.03 1.65.04 17.11.46 33.89 2.17 50.29 5.04.08.01.17.03.25.04 1.81.31 3.63.63 5.44.96.8.12 1.59.27 2.4.43l.3.06c.34.06.71.13 1.07.21 1.19.23 2.38.46 3.58.72l.74.15c1.31.26 2.61.54 3.92.84 1.3.28 2.59.57 3.89.88 19.6 4.54 38.44 10.67 56.41 18.25.33.15.67.28.99.42.51.21 1.01.43 1.51.65.83.34 1.66.72 2.49 1.09v-.01c.22.09.43.18.65.28a353.693 353.693 0 0117.36 8.27 346.497 346.497 0 0159.35 38.45c-8.17-7.36-16.73-14.28-25.62-20.78-34.65-25.25-42.14-26.02-49.49-29.52-.72-.36-1.41-.7-2.14-1.02l-5.01-2.29c-1.39-.63-2.79-1.24-4.2-1.84a308.699 308.699 0 00-51.2-16.83c-1.17-.28-2.34-.53-3.53-.8l-.07-.02c-1.42-.32-2.87-.63-4.29-.92-1.38-.29-2.74-.55-4.1-.83-1.16-.22-2.31-.45-3.46-.66-.16-.03-.32-.06-.47-.08-.16-.03-.31-.06-.47-.08l-.3-.06c-17.31-3.28-34.9-5.25-52.71-5.89 63.4-85.06 164.76-140.25 278.77-140.25z"/><g class="st0"><path class="st6" d="M1060.93 1721.7a346.027 346.027 0 0167.29 34.96c3.9 2.6 7.75 5.3 11.56 8.07.2.14.37.27.56.42.74.53 1.47 1.07 2.19 1.61.44.33.88.64 1.31.98.29.21.57.44.86.65 15.56 11.76 30.3 25.01 44.04 39.7.92.97 1.82 1.94 2.72 2.93.91.99 1.79 1.97 2.68 2.97.99 1.1 1.96 2.2 2.92 3.31.25.27.49.55.71.82.61.7 1.21 1.38 1.79 2.09 16.09 18.86 29.82 38.99 41.19 60.03.8 1.48 1.6 2.97 2.37 4.46.63 1.21 1.25 2.43 1.87 3.64.25.49.49.99.75 1.49.25.5.52 1.02.76 1.53.04.06.06.11.08.16.34.69.69 1.38 1.02 2.08.09.2.2.41.29.6.09.2.2.41.29.61.15.29.29.58.43.88.17.37.34.73.52 1.09.74 1.54 1.44 3.09 2.14 4.65a345.2 345.2 0 0119.67 55.2c-2.19-10.75-4.96-21.39-8.24-31.88-3.53-11.19-7.62-22.09-12.3-32.68l-2.34-5.16c-.15-.38-.34-.74-.5-1.12-.45-.95-.91-1.92-1.37-2.86-.29-.62-.59-1.25-.9-1.86-.44-.89-.88-1.79-1.33-2.69-11.03-22.01-24.63-42.59-40.72-61.56-.08-.12-.19-.24-.3-.36-.75-.9-1.52-1.78-2.3-2.67-.91-1.04-1.84-2.09-2.77-3.13-.96-1.09-1.95-2.18-2.94-3.26l-.06-.05c-.82-.9-1.63-1.78-2.46-2.65a308.599 308.599 0 00-40.18-35.91c-1.23-.91-2.46-1.82-3.71-2.71l-4.49-3.2c-.64-.45-1.29-.89-1.95-1.33-6.71-4.62-11.12-10.71-50.33-28.07a321.52 321.52 0 00-30.82-11.78z"/></g><g class="st0"><path class="st6" d="M1160.1 1315.97c.02.15.06.3.1.46.26 1.15.53 2.28.81 3.43.33 1.35.66 2.7 1 4.06.36 1.41.73 2.83 1.11 4.25l.02.07c.32 1.18.63 2.33.96 3.49 4.9 17.45 11.26 34.28 19.02 50.42.66 1.38 1.33 2.75 2.03 4.12l2.5 4.91c.36.7.73 1.39 1.11 2.09 3.82 7.19 4.91 14.64 31.65 48.16a320.5 320.5 0 0021.87 24.7 346.28 346.28 0 01-40.99-57.63c-.85-1.49-1.67-2.99-2.5-4.49-2.25-4.11-4.42-8.28-6.51-12.5-.11-.21-.22-.42-.32-.64-.39-.82-.8-1.62-1.18-2.44-.24-.48-.49-.97-.71-1.46-.16-.33-.31-.66-.46-.99-8.36-17.62-15.3-36.17-20.69-55.56-.37-1.28-.71-2.56-1.05-3.85-.35-1.3-.68-2.58-1.01-3.88-.36-1.43-.71-2.85-1.05-4.28-.1-.36-.18-.72-.25-1.06-.22-.9-.44-1.79-.62-2.68-5.55-24.16-8.41-48.36-8.75-72.28-.03-1.68-.05-3.36-.05-5.05l.03-4.08.03-1.67c0-.57.01-1.15.03-1.71 0-.08-.01-.13 0-.19.02-.76.03-1.54.06-2.31.01-.22.01-.45.02-.66.01-.22.01-.45.02-.68l.03-.98c.02-.4.04-.8.05-1.2.06-1.71.15-3.42.24-5.12 1.06-19.68 3.79-39.08 8.1-58.04-3.03 10.55-5.5 21.26-7.44 32.09-2.05 11.55-3.46 23.1-4.21 34.65l-.32 5.66c-.03.41-.04.81-.06 1.22-.05 1.06-.09 2.13-.12 3.18l-.06 2.06-.06 3c-.4 24.62 2.14 49.16 7.62 73.41z"/></g><path class="st4" d="M1857.64 1223.21c0 8.55-.3 17.05-.91 25.49-.14 2.07-.3 4.13-.48 6.19a352.264 352.264 0 01-5.56 38.42c-.33 1.66-.68 3.31-1.04 4.95-2.06 9.53-4.53 18.98-7.41 28.31-.02.09-.05.19-.08.28-.51 1.71-1.06 3.42-1.61 5.11-.03.1-.07.2-.1.3-3.09 9.51-6.6 18.89-10.51 28.16-2.16 5.1-4.43 10.15-6.82 15.12-.79 1.66-1.6 3.31-2.42 4.95-16.94 33.99-39.18 64.85-66.3 91.97-20.18 20.18-42.42 37.65-66.47 52.25-1.67 1.02-3.35 2.01-5.04 2.99a351.02 351.02 0 01-40.54 20.31c-6.95 2.94-13.98 5.65-21.07 8.13 21.68 26.24 39.33 55.35 52.66 86.86 18.38 43.46 27.7 89.62 27.7 137.21s-9.32 93.75-27.7 137.21c-17.76 41.98-43.17 79.67-75.54 112.04-32.38 32.38-70.07 57.79-112.05 75.55-43.46 18.38-89.62 27.7-137.21 27.7-17.13 0-40.94-1.21-62.89-3.62a341.282 341.282 0 01-3.6 19.17c-4.4 20.35-10.64 40.25-18.67 59.64-.34.84-.69 1.68-1.04 2.52-.31.74-.63 1.47-.95 2.2-17.7 41.1-42.79 78.04-74.59 109.84-32.38 32.38-70.07 57.79-112.05 75.55-39.95 16.9-82.18 26.14-125.71 27.51v-5c161.17-5.26 294.94-120.82 328.1-273.46.36-1.65.71-3.3 1.04-4.96a338.081 338.081 0 003.22-18.57c1.65.2 3.32.4 5 .58 21.6 2.37 45.13 3.6 62.14 3.6 191.61 0 347.5-155.89 347.5-347.5 0-84.47-30.3-162.01-80.61-222.29-.12-.14-.23-.28-.35-.42-.83.26-1.67.51-2.51.76-1.46.43-2.93.86-4.41 1.26l-5.32 1.43c-.76.21-1.51.39-2.29.58-7.9 1.99-15.16 6.18-57.95 8.82-11 .67-22 .79-32.99.34 23.41-.35 46.96-3.05 70.24-8.24 1.67-.38 3.33-.76 5-1.15 4.56-1.09 9.11-2.28 13.64-3.55.24-.07.46-.13.68-.2v-.01c.87-.24 1.75-.48 2.62-.75.52-.15 1.04-.29 1.56-.46.34-.09.69-.21 1.04-.31 11.67-3.51 26.45-9.02 40.29-14.86.14-.05.27-.11.4-.17a342.419 342.419 0 0032.09-16.29c1.72-.97 3.42-1.97 5.12-2.98 57.48-34.36 104.26-84.84 134.04-145.16.82-1.65 1.62-3.31 2.41-4.98a344.671 344.671 0 0016.97-43.03c.03-.09.06-.19.09-.28.56-1.72 1.09-3.45 1.61-5.19.03-.08.05-.17.07-.25 2.54-8.46 4.77-17.06 6.66-25.77.36-1.65.71-3.3 1.04-4.96 2.7-13.38 4.64-27.04 5.74-40.93.18-2.1.32-4.2.46-6.31.44-7.16.66-14.38.66-21.65 0-92.96-36.69-177.51-96.35-239.93-1.23-1.3-2.48-2.58-3.74-3.85-4.33-4.4-8.79-8.69-13.35-12.86-1.38-1.26-2.77-2.5-4.17-3.74a348.886 348.886 0 00-72.36-49.32 345.464 345.464 0 00-54.27-22.13c-1.62-.51-3.25-1.01-4.89-1.49-.39-.11-.77-.23-1.16-.34-.32-.1-.63-.19-.95-.28l-.64-.18-.64-.18c-.74-.22-1.49-.42-2.23-.63-.06-.02-.11-.03-.17-.05l-1.66-.45c-.54-.14-1.07-.29-1.61-.43-1.31-.35-2.63-.7-3.95-1.03-1.63-.42-3.27-.82-4.91-1.21-3.86-.92-7.74-1.77-11.65-2.55-14.84-3-30.01-5.04-45.45-6.06-.1-.01-.2-.02-.3-.02-1.84-.13-3.69-.23-5.54-.32-.03 0-.06-.01-.09 0-3.05-.16-6.11-.27-9.18-.34-.91-.04-1.82-.05-2.74-.06-.36-.01-.73-.02-1.1-.02-1.46-.02-2.93-.03-4.4-.03-1.13 0-2.25.01-3.38.03-.21-.01-.42 0-.63 0-1.33.01-2.66.03-3.99.07-.55.01-1.1.03-1.65.04a345.35 345.35 0 00-50.29 5.04c-.08.01-.17.03-.25.04-1.81.31-3.63.63-5.44.96-.8.12-1.59.27-2.4.43l-.3.06c-.34.06-.71.13-1.07.21-1.19.23-2.38.46-3.58.72l-.74.15c-1.31.26-2.61.54-3.92.84-1.3.28-2.59.57-3.89.88-19.6 4.54-38.44 10.67-56.41 18.25-.33.15-.67.28-.99.42-.51.21-1.01.43-1.51.65-.83.34-1.66.72-2.49 1.09v-.01c-.22.09-.43.18-.65.28a353.693 353.693 0 00-17.36 8.27 346.497 346.497 0 00-59.35 38.45c8.17-7.36 16.73-14.28 25.62-20.78 34.65-25.25 42.14-26.02 49.49-29.52.72-.36 1.41-.7 2.14-1.02l5.01-2.29c1.39-.63 2.79-1.24 4.2-1.84a308.699 308.699 0 0151.2-16.83c1.17-.28 2.34-.53 3.53-.8l.07-.02c1.42-.32 2.87-.63 4.29-.92 1.38-.29 2.74-.55 4.1-.83 1.16-.22 2.31-.45 3.46-.66.16-.03.32-.06.47-.08.16-.03.31-.06.47-.08l.3-.06c17.31-3.28 34.9-5.25 52.71-5.89-63.4-85.06-164.76-140.25-278.77-140.25-103.38 0-196.35 45.38-260.06 117.26-1.16 1.31-2.31 2.62-3.44 3.95v-7.88c4.59-5.15 9.34-10.18 14.25-15.09 32.37-32.37 70.06-57.78 112.04-75.54 43.46-18.38 89.62-27.7 137.21-27.7s93.75 9.32 137.21 27.7c41.98 17.76 79.67 43.17 112.05 75.54 13.1 13.1 25.05 27.07 35.82 41.84.82-.02 1.63-.04 2.45-.05h.08c1.46-.02 2.93-.03 4.39-.03 1.4 0 2.79.01 4.18.03 1.18.01 2.35.03 3.52.06.16 0 .32 0 .47.01 2.19.05 4.38.12 6.57.22 1.99.07 3.97.17 5.95.28 20.62 1.18 40.92 4.14 60.8 8.85 1.64.38 3.28.78 4.91 1.2 1.19.3 2.38.6 3.57.92 1.74.46 3.47.93 5.2 1.41.06.02.12.04.18.05l2.73.78c.33.09.66.19.99.28.41.13.82.25 1.23.37a350.236 350.236 0 0136.91 13.24c34.56 14.62 66.21 34.42 94.38 59.04 1.4 1.21 2.78 2.44 4.15 3.68 4.6 4.14 9.11 8.42 13.52 12.83.25.25.49.49.73.74 1.25 1.25 2.48 2.51 3.7 3.78 30.27 31.34 54.17 67.48 71.11 107.52 18.38 43.46 27.7 89.62 27.7 137.21z"/><path class="st4" d="M1276.96 2121.27c-4.63-.87-9.24-1.83-13.8-2.87-1.67-.39-3.33-.79-4.99-1.19a346.082 346.082 0 01-66.6-23.79c9.64 5.29 19.56 10.06 29.71 14.34 39.52 16.62 46.99 15.65 54.94 17.37m1.44-3.74"/><g class="st0"><path class="st6" d="M1838.3 1079c-16.52-39.05-39.65-74.38-68.86-105.17-1.22-1.29-2.45-2.56-3.68-3.83-1-1.02-2-2.03-3.01-3.04-3.41-3.41-6.88-6.74-10.4-9.98a242.82 242.82 0 00-4.14-3.77c-28.94-25.9-61.66-46.64-97.5-61.8a350.585 350.585 0 00-48.55-16.48c-4.85-1.26-9.72-2.41-14.62-3.45-.91-.2-1.83-.39-2.75-.57-.53-.12-1.06-.22-1.59-.33l-.62-.12a349.005 349.005 0 00-34.96-5.13c-.16-.02-.33-.03-.5-.05-8.45-.8-16.96-1.29-25.53-1.47-1.21-.03-2.41-.05-3.62-.07h-.08c-1.46-.02-2.93-.03-4.39-.03-1.4 0-2.79.01-4.18.03-.14 0-.29 0-.43.01-1.04.01-2.06.02-3.09.05-.16 0-.32 0-.47.01-.72.02-1.45.03-2.17.07-2.12.06-4.25.14-6.36.24-4.79.21-9.56.52-14.31.94-11-15.24-23.27-29.64-36.74-43.11-32.37-32.37-70.06-57.78-112.04-75.54-43.46-18.38-89.62-27.7-137.21-27.7s-93.75 9.32-137.21 27.7c-41.98 17.76-79.67 43.17-112.04 75.54-4.91 4.91-9.66 9.94-14.25 15.09-4.59-5.15-9.34-10.18-14.25-15.09-32.37-32.37-70.06-57.78-112.04-75.54-43.46-18.38-89.62-27.7-137.21-27.7s-93.75 9.32-137.21 27.7c-41.98 17.76-79.67 43.17-112.05 75.54a354.595 354.595 0 00-35.82 41.84c-.82-.02-1.63-.04-2.45-.05h-.08c-1.46-.02-2.93-.03-4.39-.03-1.4 0-2.79.01-4.18.03-1.18.01-2.35.03-3.52.06-.16 0-.32 0-.47.01-2.19.05-4.38.12-6.57.22-1.99.07-3.97.17-5.95.28a350.227 350.227 0 00-60.8 8.85c-1.64.38-3.28.78-4.91 1.2-1.19.3-2.38.6-3.57.92-1.74.46-3.47.93-5.2 1.41-.06.02-.12.04-.18.05l-2.73.78c-.33.09-.66.19-.99.28-.41.13-.82.25-1.23.37a350.236 350.236 0 00-36.91 13.24c-34.56 14.62-66.21 34.42-94.38 59.04-1.4 1.21-2.78 2.44-4.15 3.68-4.6 4.14-9.11 8.42-13.52 12.83-.25.25-.49.49-.73.74-1.25 1.25-2.48 2.51-3.7 3.78-30.27 31.34-54.17 67.48-71.11 107.52-18.38 43.46-27.7 89.62-27.7 137.21 0 8.55.3 17.05.91 25.49.14 2.07.3 4.13.48 6.19 1.15 12.95 3.01 25.76 5.56 38.42.33 1.66.68 3.31 1.04 4.95 2.06 9.53 4.53 18.98 7.41 28.31.02.09.05.19.08.28.51 1.71 1.06 3.42 1.61 5.11.03.1.07.2.1.3 3.09 9.51 6.6 18.89 10.51 28.16 2.16 5.1 4.43 10.15 6.82 15.12.79 1.66 1.6 3.31 2.42 4.95 16.94 33.99 39.18 64.85 66.3 91.97 20.18 20.18 42.42 37.65 66.47 52.25 1.67 1.02 3.35 2.01 5.04 2.99a351.02 351.02 0 0040.54 20.31c6.95 2.94 13.98 5.65 21.07 8.13-21.68 26.24-39.33 55.35-52.66 86.86-18.38 43.46-27.7 89.62-27.7 137.21s9.32 93.75 27.7 137.21c17.76 41.98 43.17 79.67 75.54 112.04 32.38 32.38 70.07 57.79 112.05 75.55 43.46 18.38 89.62 27.7 137.21 27.7 17.13 0 40.94-1.21 62.89-3.62a341.282 341.282 0 003.6 19.17c4.4 20.35 10.64 40.25 18.67 59.64.34.84.69 1.68 1.04 2.52.31.74.63 1.47.95 2.2 17.7 41.1 42.79 78.04 74.59 109.84 32.38 32.38 70.07 57.79 112.05 75.55 43.46 18.38 89.62 27.7 137.21 27.7s93.75-9.32 137.21-27.7c41.98-17.76 79.67-43.17 112.04-75.55 31.12-31.11 55.8-67.13 73.43-107.15.7-1.57 1.38-3.15 2.05-4.74.03-.05.05-.1.07-.15 8.17-19.32 14.56-39.17 19.12-59.46.37-1.64.73-3.29 1.07-4.94 1.08-5.13 2.04-10.29 2.88-15.47 17.99 1.44 36.88 2.16 50.13 2.16 47.59 0 93.75-9.32 137.21-27.7 41.98-17.76 79.67-43.17 112.04-75.55 32.38-32.37 57.79-70.06 75.55-112.04 18.38-43.46 27.7-89.62 27.7-137.21s-9.32-93.75-27.7-137.21c-12.6-29.77-29.04-57.4-49.11-82.48-.13-.16-.26-.33-.39-.49a237 237 0 005.72-1.82c9.17-3.01 18.24-6.41 27.19-10.2 14-5.92 27.52-12.7 40.53-20.3 1.69-.98 3.37-1.98 5.04-3 24.06-14.6 46.3-32.07 66.47-52.25 27.77-27.76 50.41-59.44 67.5-94.38.81-1.65 1.61-3.31 2.38-4.98 1.98-4.18 3.86-8.41 5.67-12.68 4.25-10.06 8.02-20.26 11.3-30.59.06-.21.13-.41.19-.62.51-1.6 1-3.21 1.49-4.82l.18-.61a338.36 338.36 0 005.96-22.82c.37-1.64.73-3.29 1.07-4.94 3.05-14.49 5.17-29.2 6.36-44.08a355.85 355.85 0 001.15-28.73c0-47.59-9.32-93.75-27.7-137.21zm22.21 155.69c-.11 2.14-.24 4.27-.4 6.4a344.855 344.855 0 01-7.65 51.85c-1.52 6.74-3.25 13.41-5.17 19.99-.05.2-.11.4-.17.6-.47 1.64-.97 3.28-1.47 4.91-.06.2-.13.41-.19.61a345.424 345.424 0 01-16.58 43.02c-.78 1.69-1.58 3.36-2.39 5.03-29.72 61.41-76.99 112.8-135.25 147.61-1.69 1.03-3.39 2.02-5.11 3a344.954 344.954 0 01-71.02 30.84c-.26.08-.51.16-.77.23-1.8.55-3.6 1.09-5.41 1.59.02.02.03.04.05.06a345.043 345.043 0 01-60.18 8.31c-.91.06-1.82.1-2.74.14-.35.01-.72.03-1.09.04-1.46.06-2.92.11-4.41.15-1.33.04-2.66.07-4 .08-1.34.02-2.65.04-3.99.03-20.12.09-39.87-1.55-59.1-4.8-.35-.06-.71-.11-1.06-.18-.54-.08-3.59 3.59 2 4.55s3.01.56 4.51.83c17.65 3.08 35.58 4.63 53.7 4.6 1.2.01 2.4-.01 3.61-.03h.08c1.46-.01 2.94-.04 4.39-.08 1.4-.04 2.8-.09 4.18-.14 1.18-.05 2.35-.09 3.52-.15l.47-.03c21.42-1.14 42.45-4.43 62.96-9.87.21.25.42.51.62.76.13.15.26.31.38.46 48.25 59.67 77.17 135.58 77.17 218.11 0 191.61-155.89 347.5-347.5 347.5-12.74 0-30.71-.69-47.98-2.04-.06-.01-.13-.01-.19-.02-9.51-.88-18.66-2.01-26.32-3.31-.36-.06-.72-.12-1.07-.18-.54-.08-1.08-.19-1.61-.28-.89-.15-1.78-.33-2.67-.49v.01c-.24-.04-.47-.09-.7-.13-4.63-.87-9.24-1.83-13.8-2.87-1.67-.39-3.33-.79-4.99-1.19a346.082 346.082 0 01-66.6-23.79c9.64 5.29 19.56 10.06 29.71 14.34 39.52 16.62 46.99 15.65 54.94 17.37.78.18 1.54.35 2.32.5l5.4 1.07c1.5.3 3.01.57 4.51.83 4.63.81 9.29 1.52 13.96 2.11-.03.16-.05.32-.08.48-.82 5-1.75 9.96-2.79 14.88-.35 1.65-.71 3.3-1.08 4.94-35.03 154.82-173.71 270.77-338.96 270.77-166.28 0-305.65-117.39-339.6-273.65-.36-1.65-.71-3.3-1.04-4.96a338.081 338.081 0 01-3.22-18.57c-1.65.2-3.32.4-5 .58-21.6 2.37-45.13 3.6-62.14 3.6-191.61 0-347.5-155.89-347.5-347.5 0-84.47 30.3-162.01 80.61-222.29.12-.14.23-.28.35-.42.83.26 1.67.51 2.51.76 1.46.43 2.93.86 4.41 1.26l5.32 1.43c.76.21 1.51.39 2.29.58 7.9 1.99 15.16 6.18 57.95 8.82 11 .67 22 .79 32.99.34-23.41-.35-46.96-3.05-70.24-8.24-1.67-.38-3.33-.76-5-1.15a364.36 364.36 0 01-13.64-3.55c-.24-.07-.46-.13-.68-.2v-.01c-.87-.24-1.75-.48-2.62-.75-.52-.15-1.04-.29-1.56-.46-.34-.09-.69-.21-1.04-.31-11.67-3.51-26.45-9.02-40.29-14.86-.14-.05-.27-.11-.4-.17a342.419 342.419 0 01-32.09-16.29c-1.72-.97-3.42-1.97-5.12-2.98-57.48-34.36-104.26-84.84-134.04-145.16-.82-1.65-1.62-3.31-2.41-4.98a344.671 344.671 0 01-16.97-43.03c-.03-.09-.06-.19-.09-.28-.56-1.72-1.09-3.45-1.61-5.19-.03-.08-.05-.17-.07-.25-2.54-8.46-4.77-17.06-6.66-25.77-.36-1.65-.71-3.3-1.04-4.96-2.7-13.38-4.64-27.04-5.74-40.93-.18-2.1-.32-4.2-.46-6.31-.44-7.16-.66-14.38-.66-21.65 0-92.96 36.69-177.51 96.35-239.93 1.23-1.3 2.48-2.58 3.74-3.85 4.33-4.4 8.79-8.69 13.35-12.86 1.38-1.26 2.77-2.5 4.17-3.74a348.886 348.886 0 0172.36-49.32 345.464 345.464 0 0154.27-22.13c1.62-.51 3.25-1.01 4.89-1.49.39-.11.77-.23 1.16-.34.32-.1.63-.19.95-.28l.64-.18.64-.18c.74-.22 1.49-.42 2.23-.63.06-.02.11-.03.17-.05l1.66-.45c.54-.14 1.07-.29 1.61-.43 1.31-.35 2.63-.7 3.95-1.03 1.63-.42 3.27-.82 4.91-1.21 3.86-.92 7.74-1.77 11.65-2.55 14.84-3 30.01-5.04 45.45-6.06.1-.01.2-.02.3-.02 1.84-.13 3.69-.23 5.54-.32.03 0 .06-.01.09 0 3.05-.16 6.11-.27 9.18-.34.91-.04 1.82-.05 2.74-.06.36-.01.73-.02 1.1-.02 1.46-.02 2.93-.03 4.4-.03 1.13 0 2.25.01 3.38.03.21-.01.42 0 .63 0 1.33.01 2.66.03 3.99.07.55.01 1.1.03 1.65.04 17.11.46 33.89 2.17 50.29 5.04.08.01.17.03.25.04 1.81.31 3.63.63 5.44.96.8.12 1.59.27 2.4.43l.3.06c.34.06.71.13 1.07.21 1.19.23 2.38.46 3.58.72l.74.15c1.31.26 2.61.54 3.92.84 1.3.28 2.59.57 3.89.88 19.6 4.54 38.44 10.67 56.41 18.25.33.15.67.28.99.42.51.21 1.01.43 1.51.65.83.34 1.66.72 2.49 1.09v-.01c.22.09.43.18.65.28a353.693 353.693 0 0117.36 8.27 346.497 346.497 0 0159.35 38.45c-8.17-7.36-16.73-14.28-25.62-20.78-34.65-25.25-42.14-26.02-49.49-29.52-.72-.36-1.41-.7-2.14-1.02l-5.01-2.29c-1.39-.63-2.79-1.24-4.2-1.84a308.699 308.699 0 00-51.2-16.83c-1.17-.28-2.34-.53-3.53-.8l-.07-.02c-1.42-.32-2.87-.63-4.29-.92-1.38-.29-2.74-.55-4.1-.83-1.16-.22-2.31-.45-3.46-.66-.16-.03-.32-.06-.47-.08-.16-.03-.31-.06-.47-.08l-.3-.06c-17.31-3.28-34.9-5.25-52.71-5.89 63.4-85.06 164.76-140.25 278.77-140.25 103.38 0 196.35 45.38 260.06 117.26 1.16 1.31 2.31 2.62 3.44 3.95 1.13-1.33 2.28-2.64 3.44-3.95 63.71-71.88 156.68-117.26 260.06-117.26 114.75 0 216.68 55.91 279.99 141.92-5.93.62-11.83 1.37-17.7 2.29h-.01c-4.17.47-6.78.79-6.78.79s-5 1-15.07 3.16c-7.96 1.7-14.39 2.26-53.34 20.18-10 4.62-19.75 9.72-29.21 15.32 20.78-10.77 42.8-19.54 65.77-25.99 1.65-.46 3.29-.91 4.95-1.35 1.01-.27 2.01-.53 3.02-.78 1.63-.42 3.27-.83 4.91-1.22.01.03.01.05.02.08 15.25-3.63 30.9-6.25 46.85-7.78 1.98-.19 3.97-.37 5.96-.52 6.42-.51 12.89-.84 19.4-.99.16-.01.33-.01.49-.01.75-.03 1.49-.04 2.25-.05.36-.01.73-.02 1.1-.02.78-.01 1.56-.02 2.35-.02.68-.01 1.37-.01 2.05-.01 1.34 0 2.67.01 4.01.03 1.33.01 2.66.03 3.99.07 20.12.45 39.81 2.62 58.95 6.38l1.06.21c.54.1 1.07.21 1.6.32.89.17 1.78.36 2.66.55l.69.15c4.61.99 9.18 2.07 13.72 3.24a345.846 345.846 0 0170.9 26.88c.01.01.03.02.05.02a349.203 349.203 0 0175.41 52.1c1.4 1.26 2.78 2.54 4.16 3.82 4.27 4 8.44 8.1 12.5 12.3 1.25 1.29 2.49 2.59 3.72 3.91 58.32 62.17 94.08 145.75 94.08 237.52 0 6.2-.16 12.36-.49 18.48z"/></g><path class="st7" d="M581.41 1882.38c1.31-33.12-1.56-58.3-1.53-83.55.01-4.56-1.45-6.02-6.16-6.45-18.64-1.7-21.19-6.4-17.87-24.91 2.21-12.31 6.17-21.72 19.94-23.52 3.87-.5 3.89-3.16 3.88-6.09-.04-7.49.09-14.98.04-22.48-.18-24.95 1.95-49.75 4.75-74.51 1.25-11.04.88-10.6-9.64-9.04-21.32 3.16-42.74 5.76-64.16 8.2-7.55.86-17.86-10.23-19.32-20.38-2.09-14.5 5.11-28.67 18.95-32.79 25.95-7.73 51.97-14.45 79.11-15.92 4.19-.23 6.57-.59 7.87-5.91 3.79-15.46 18.38-21.94 36.66-16.86 7.64 2.12 15.77 4.01 17.96 13.8.68 3.04 3.99 2.26 6.45 2.24 31.32-.23 62.75-1.88 93.89 2.17 40.49 5.26 80.86 11.65 118.67 28.35 11.74 5.19 13.74 10.79 8.59 22.22-.45 1-1.17 1.88-1.65 2.88-9.77 20.28-10.9 21.43-32.95 17.47-20.38-3.66-40.67-7.9-61.24-10.33-37.73-4.45-75.51-8.47-113.61-4.84-6.35.61-12.71 1.03-19.08 1.35-2.91.15-4.45.93-4.76 4.25-3.16 34.11-7.21 68.15-8.38 102.43-.2 5.78 2.25 6.24 6.8 6.22 21.08-.07 42.21-.75 63.23.4 21.49 1.18 43 3.34 64.02 8.66 4.12 1.04 7.81 2.89 11.28 5.1 7.89 5.03 9.53 11.4 5.53 19.87-.71 1.5-1.74 2.88-2.26 4.44-4.2 12.81-13.98 16.16-26.11 15.41-37.43-2.3-74.9-.88-112.35-1.12-11.25-.07-10.98.12-10.12 11.18 1.61 20.44 1.27 40.97 3.35 61.42 2.27 22.3 3.38 44.71 4.8 67.09.54 8.57.32 17.19.87 25.75.45 6.94-2.12 11.17-9.08 12.55-13.72 2.72-27.63 3.23-41.14.07-12.51-2.93-15.19-7.76-15.21-21.1-.04-23.84-.02-47.7-.02-63.72zm-77.97-593.32c-1.8-27.88-4.33-55.7-6.3-83.57-.28-3.97-.86-5.37-5.3-4.43-11.07 2.35-22.29 3.95-33.38 6.17-8.5 1.7-12.21-.23-15.13-8.41-3.08-8.61-2.43-17.45-1.97-26.29.18-3.43 2.37-5.46 5.15-7.05 6.48-3.7 12.49-6.77 20.23-9.33 13.76-4.56 27.9-6.38 42.27-8.44 10.97-1.57 18.07-2.62 33-2 13.69.57 26.3 2.98 39.98 4.87 57.72 7.97 105.78 33.97 143.91 78.02 17.5 20.22 32.56 41.96 39.52 68.36 15.04 57.03-9.92 109.99-56.49 141-25.58 17.03-54.03 26.2-83.75 32-17.86 3.49-35.74 7.05-53.97 8.33-10.79.76-13.05 3.45-9.55 15.29 2.17 7.31-1.1 9.41-6.28 10.5-10.85 2.27-21.87 3.23-33.02 2.97-6.35-.15-9.19-2.41-9.93-9.2-1.47-13.54-1.93-13.45-15.45-13.49-6.38-.02-12.8-.36-19.01 1.43-4.95 1.43-8.28-.62-10.1-4.84-4.81-11.16-4.24-22.68-1.16-34.13.86-3.2 3.26-4.47 7.08-4.06 9.95 1.06 19.88-.05 29.82-.97 4.58-.42 6.14-1.89 5.99-6.56-.34-10.53-.11-21.08-.11-31.62.18-.01-3.59-76.39-6.05-114.55zm55.85 130.58c0 1.66-.04 3.33.01 4.99.35 13.98.34 13.87 14.11 12.83 36.58-2.77 70.15-14.57 101.42-33.44 30.46-18.38 45.08-46.38 45.53-80.84.44-33.53-16.33-59.72-42.05-80.2-18.43-14.68-40.15-23.2-61.91-31.55-18.96-7.28-38.47-11.85-58.71-13.69-7.17-.65-9.14 1.71-8.5 8.61 1.05 11.31 1.55 22.67 1.92 34.03.91 28.25 1.17 56.53 2.53 84.76 1.53 31.5 5.79 94.49 5.65 94.5z"/><path class="st8" d="M1182.5 1346.72c-7.62 10.47-13.74 18.97-19.94 27.41-6.11 8.32-13.37 15.64-21.48 21.93-16.48 12.79-36.67 9.86-54.6-7.22-8.72-8.31-14.53-18.7-21.76-30.24-3.58 12.35-2.84 23.87-4.15 35-3.46 29.36-7.44 58.61-13.74 87.49-3.97 18.18-28.49 26.42-43.46 14.98-3.74-2.86-2.98-6.92-2.47-10.73 4.04-29.79 8.92-59.48 12.07-89.36 4.3-40.78 6.63-81.73 6.87-122.78.23-38.82.86-77.64.99-116.46.02-6.78 2.7-9.96 8.94-11.86 7.44-2.26 14.17-.84 20.96 2 3.91 1.64 5.93 4.46 6.86 8.65 4.2 18.97 5.67 38.31 8.22 57.5 5.57 41.91 11.82 83.65 28.08 123.12 2.56 6.21 5.83 11.99 10.77 16.62 7.96 7.46 17.49 7.52 24.98-.37 13.06-13.76 20.83-30.72 26.72-48.35 14.69-43.94 29.6-87.84 42.61-132.29 5.3-18.11 21.71-20.81 35.32-16.57 5.46 1.7 8.56 5.96 8.2 12.06-.65 11.34-1 22.7-2.07 34-2.67 28.4-3.73 56.89-5.3 85.35-2.39 43.41-2.99 86.91-7.1 130.22-1.05 11.02-1.73 22.08-2.14 33.14-.62 16.36-11.02 25.14-27.43 22.71-12.09-1.79-15.95-6.29-15.95-18.61v-107.34z"/><path class="st7" d="M1279 1808.71c0 26 .39 47.38 9.77 70.49 6.07 14.95 14.23 28.09 26.56 38.56 21.67 19.94 43.67 21.94 61.02-4.77 10.72-16.01 30.67-12.92 39.99 4.67 1.98 3.73 2.2 7.31-.2 10.97-10.26 15.64-21.72 30.45-37.62 40.52-18.34 11.61-38.42 11.84-59.02 6.04-30.8-8.68-49.67-30.48-65.13-56.83-15.83-26.98-22.23-56.6-23.99-87.02-1.31-22.54.27-45.35 4.14-67.79 1.11-6.43.51-10.11-7.69-10.51-11.84-.58-23.62-2.65-35.4-4.31-11.6-1.64-13.37-3.97-12.78-15.8.08-1.66.2-3.32.24-4.99.58-23.13 4.11-26.47 27.55-26.4 9.99.03 19.95.01 29.8 2.05 5.89 1.22 7.96-1.22 8.99-7.35 3.33-19.81 7.85-39.41 11.44-59.18 2.56-14.1 5.55-28.06 9.73-41.77 5.27-17.23 5.76-14.55 23.52-14 3.47.11 7 1.66 10.31 3.02 11.4 4.69 14.28 10.03 11.63 22.2-4.16 19.11-8.74 38.13-12.84 57.26-2.83 13.18-5.1 26.49-7.73 39.72-1.03 5.19 2.9 4.39 5.56 4.62 11.87 1.02 23.74 2.14 35.64 2.64 15.52.65 30.9 2.2 46.2 4.84 9.75 1.68 12.04 4.35 11.98 14.34-.04 6.1-.18 12.2-.18 18.3.01 12.49-5.15 17.1-17.42 16.18-27.62-2.08-55.26-3.84-82.88-5.98-5.68-.44-7.8 1.1-7.99 7.14-.44 14.12-3.2 30.14-3.2 43.14zm-331.05 63.58c-19.65 13.69-41.59 19.99-64.84 23.01-12.34 1.6-24.66 3.42-37.04 4.52-6.43.57-4.72 4.04-3.47 7.35 4.39 11.57 16.44 23.61 31.4 22.55 23.62-1.68 42.62-18.69 59.14-34.64 13.02-12.57 23.72-12.36 40.12-4.68 8.6 4.03 10.62 9.41 8.04 18.42-5.3 15.9-15.3 27.9-27.94 39.01-20.08 14.2-41.1 26.42-66.32 28.09-20.98 1.39-41.83-1.2-60.69-10.65-20.8-10.42-32.14-28.31-36.36-51.56-8.76-61.56 3-110 52-153 18.19-13.78 50.93-21.49 73.62-18.05 12.65 1.91 24.96 4.54 36.31 10.73 17.81 9.71 27.39 24.44 27.66 44.92.06 3.87.42 51.4-31.63 73.98zM858 1860.71c11-1 20.17-2.92 29-5 17-4 28.05-7.47 39.31-18.88 8.17-8.29 10.41-18.83 7.69-28.12-2.7-9.19-11.85-17.42-21-19-35-4-67.21 29.33-71 56-1.73 12.2 3 16 16 15zm239.27 117.74c-22.57-1.2-42.15-2.26-59.66-14.26-13.11-8.99-18.24-21.15-19.52-35.87-1.41-16.22 3.59-30.94 10.17-45.53 9.29-20.58 32.09-19.1 45.48-9.98 6.1 4.15 4.49 10.24 2.23 15.86-.83 2.07-2.5 3.84-3.93 5.64-16.03 20.24-4.78 33.88 11.32 41.67 13.54 6.55 41.68 3.3 55.7-9.11 12.94-11.46 11.2-44.12-9.71-55.18-20.89-11.05-42.63-19.29-65.84-23.93-11.19-2.24-22.75-3.97-32.52-10.5-25.42-16.98-25.39-44.5-9.58-67.63 12.76-18.67 32.18-27.03 54.05-31.23 19.12-3.68 37.02-1.25 54.27 7.16 12.24 5.96 20.89 15.67 26.14 27.94 6.72 15.7 2.35 24.29-14.03 29.41-4.35 1.36-8.81 2.44-13.29 3.35-3.79.77-6.58-.52-7.21-4.77-1.96-13.18-10.28-19.87-22.86-22.19-11.5-2.12-22.86-2.86-33.43 3.56-5.41 3.29-8.48 7.98-8.38 14.47.1 6.49 4.06 10.18 9.43 12.76 9.75 4.68 20.38 6.79 30.83 8.53 21.14 3.52 38.91 13.47 55.36 26.3 11.51 8.98 21.53 19.46 30.5 31.05 18.13 23.42 11.5 64.01-15.03 80.74-22.37 14.09-47.05 20.1-70.49 21.74z"/><path class="st8" d="M1387 1428.25c-8.66 3.25-14.37 9.16-21.04 13.49-8.07 5.24-16.41 9.84-25.12 13.99-33.19 15.82-65.57-8.75-72.07-32.45-11.14-40.6-9.39-80.47 15.76-116.13 21.23-30.1 50.71-42.96 87.68-37 18.93 3.05 37.13 9.06 55.57 13.99 15.28 4.08 17.09 8.51 13.88 23.3-3.83 17.62-5.08 35.61-5.65 53.51-1.36 42.66.47 85.3 2.78 127.9.65 11.96-4.08 18.99-15.81 23.06-18.85 6.54-30.35-1.36-32.1-21.09-1.81-20.54-3.95-41.03-3.88-62.57zm-79.19-47.63c.19 6.09.51 11.36 2.87 17.05 3.89 9.35 11.61 17.11 21.32 14.04 3.95-1.25 16-8 21-12 23.35-18.68 37.05-36.57 38.94-68.74.19-3.29 1.13-9.21-2.94-11.26-15.08-7.57-44.21-10.2-58 2-16.77 14.84-22.02 36.88-23.19 58.91z"/><path class="st7" d="M823.28 1343.7c.52-10.02 2.52-18.82 4.64-27.64 7.96-33.17 41.12-54.8 76.55-45.03 34.65 9.55 59.44 28.05 68.88 64.29 4.23 16.23 6.51 32.38 5.75 49.17-1.91 42.46-22.77 71.91-60.81 89.52-23.02 10.66-45.31 4.64-67.32-4.32-31.15-12.68-46.74-37.57-54.37-68.75-3.49-14.27-4.82-28.84-5.69-43.49-.45-7.5 1.17-14.19 8.05-17.69 7.09-3.61 14.48-3.13 20.96 2.33.6.51 1.45.72 3.36 1.61zm122 38.17c.63-27.89-5.83-50.55-25.49-68.16-16.19-14.5-35.01-14.15-46.59 1.11-3.9 5.14-5.81 11.17-7.6 17.32-3.5 12.02-3.77 24.51-5.38 36.77-1.19 9.06-6.62 12.12-13.89 14.06-2.64.71-5.51.93-8.25.81-3.44-.15-4.57.86-3.5 4.29 3.87 12.43 7.6 24.96 15.41 35.61 6.63 9.03 14.13 17.81 25.65 19.99 24.63 4.64 50.34-5.82 61.66-27.46 6.08-11.6 8.77-23.78 7.98-34.34z"/></svg>