<?xml version="1.0" encoding="utf-8"?>
<!-- Generator: Adobe Illustrator 26.0.0, SVG Export Plug-In . SVG Version: 6.00 Build 0)  -->
<svg version="1.1" id="Layer_1" xmlns="http://www.w3.org/2000/svg" xmlns:xlink="http://www.w3.org/1999/xlink" x="0px" y="0px"
	 viewBox="0 0 1891 2459.7" style="enable-background:new 0 0 1891 2459.7;" xml:space="preserve">
<style type="text/css">
	.st0{display:none;}
	.st1{display:inline;fill:none;stroke:#000000;stroke-width:5;stroke-miterlimit:10;}
	
		.st2{display:none;opacity:0.2;fill:none;stroke:#000000;stroke-width:20;stroke-linecap:round;stroke-linejoin:round;stroke-miterlimit:10;}
	.st3{fill:#C61F4A;stroke:#C61F4A;stroke-width:50;stroke-miterlimit:10;}
	.st4{fill:#C61F4A;stroke:#C61F4A;stroke-width:50;stroke-linecap:round;stroke-linejoin:round;stroke-miterlimit:10;}
	.st5{display:inline;fill:#2D6E50;}
	
		.st6{display:inline;fill:#C61F4A;stroke:#C61F4A;stroke-width:50;stroke-linecap:round;stroke-linejoin:round;stroke-miterlimit:10;}
	.st7{fill:#337454;}
	.st8{fill:#316951;}
</style>
<image style="display:none;overflow:visible;opacity:0.2;" width="791" height="1080" xlink:href="CA6409B5.jpg"  transform="matrix(2.3209 0 0 2.3209 25 140.7143)">
</image>
<g class="st0">
	<circle class="st1" cx="667.5" cy="1093.2" r="350"/>
	<circle class="st1" cx="942.5" cy="1372.2" r="350"/>
	<circle class="st1" cx="1514" cy="1283.5" r="350"/>
	<circle class="st1" cx="374.5" cy="1283.5" r="350"/>
	<circle class="st1" cx="1355.5" cy="1839.2" r="350"/>
	<circle class="st1" cx="516.5" cy="1839.2" r="350"/>
	<circle class="st1" cx="942.5" cy="2107.2" r="350"/>
	<circle class="st1" cx="1194.5" cy="1093.2" r="350"/>
</g>
<ellipse class="st2" cx="1530" cy="1280.7" rx="353" ry="366"/>
<g>
	<g>
		<path class="st3" d="M1082.3,630.9c-38.5,0-76.8-5.4-114.3-16.2l0,0c-0.7-0.2-1.3-0.7-1.6-1.4l0,0c-13.2-30.7-22.8-63.1-28.3-96.4
			c-9.3-55.4-7.4-111,5.5-165.2c12.5-52.3,34.8-101.2,66.2-145.2c31.4-44,70.3-80.9,115.8-109.8c47-29.9,99-49.7,154.4-59
			c61.9-10.4,123.7-6.9,183.6,10.4l0,0c0.7,0.2,1.3,0.7,1.6,1.4l0,0c13.2,30.7,22.8,63.1,28.3,96.4c9.3,55.4,7.4,111-5.5,165.2
			c-12.5,52.3-34.8,101.2-66.2,145.2c-31.4,44-70.3,80.9-115.8,109.8c-47,29.9-99,49.7-154.4,59
			C1128.5,629,1105.4,630.9,1082.3,630.9z M970.1,609.1c0.3,0.7,0.9,1.2,1.6,1.4c58.5,16.5,118.7,19.7,179.1,9.6
			c223.6-37.4,375.1-249.7,337.7-473.3c-5.4-32.1-14.5-63.4-27-93.1c-0.3-0.7-0.9-1.2-1.6-1.4c-58.5-16.5-118.7-19.7-179.1-9.6
			c-223.6,37.4-375.1,249.7-337.7,473.3C948.4,548.1,957.5,579.4,970.1,609.1z"/>
	</g>
	<g>
		<path class="st4" d="M1164.3,319.1c-46.2,26-51,34-58.7,40.4c-0.8,0.6-1.5,1.2-2.2,1.9l-5.2,4.5c-1.4,1.2-2.8,2.5-4.2,3.8
			c-16.4,14.9-31.5,31.2-45.3,48.9c-0.9,1.2-1.8,2.4-2.7,3.6l-0.1,0.1c-1.1,1.4-2.2,2.9-3.2,4.3c-1,1.4-2,2.8-3,4.2
			c-0.9,1.2-1.7,2.4-2.5,3.6c-0.1,0.2-0.2,0.3-0.3,0.5c-17.6,25.2-31.9,52.2-42.9,80.6c-0.4,1.1-0.9,2.3-1.3,3.5
			c-0.4,1.2-0.9,2.3-1.3,3.5c-0.4,1-0.7,2-1.1,2.9c-0.1,0.4-0.3,0.7-0.4,1.1l-2.3,6.6c-4.5,13.6-8.3,27.5-11.3,41.7
			c-2.8,13.3-5,26.7-6.4,40.2c3.9-23.7,9.8-47.2,17.7-70.3c0.7-2,1.4-4,2.1-6c0.2-0.5,0.3-0.9,0.5-1.4c0.1-0.4,0.3-0.8,0.4-1.1
			c0.1-0.3,0.2-0.5,0.3-0.8c0.1-0.2,0.2-0.5,0.3-0.8c0.3-0.9,0.7-1.8,1-2.7c0-0.1,0-0.1,0.1-0.2c0.2-0.7,0.5-1.3,0.8-2
			c0.3-0.6,0.5-1.3,0.8-1.9c0.6-1.6,1.2-3.1,1.9-4.7c0.8-1.9,1.6-3.9,2.4-5.8c11.5-27.2,26.1-53.6,43.7-78.7c0.6-0.9,1.3-1.9,2-2.8
			c0.2-0.4,0.5-0.7,0.8-1.1c1.1-1.5,2.1-2.9,3.2-4.4c1-1.3,2-2.7,3-4c1-1.3,2-2.6,3-3.9c15.2-19.7,31.8-37.7,49.6-54
			c0.3-0.3,0.7-0.6,1-0.9c0.5-0.5,1-0.9,1.5-1.4c0.8-0.8,1.7-1.5,2.5-2.2l0,0c0.2-0.2,0.4-0.4,0.7-0.6c4.4-3.9,8.8-7.6,13.3-11.3
			c1.6-1.3,3.3-2.7,5-4c23.1-18.3,47.9-34,73.8-46.9C1188.4,306.4,1176.2,312.5,1164.3,319.1z"/>
	</g>
</g>
<g class="st0">
	<path class="st5" d="M481.5,1158.7c-4.7-4.7-7.1-9.1-7.1-13.1c0-0.7,0.4-2.5,1.1-5.5c1.8-4.4,5.8-6.9,12-7.6l14.2-1.6
		c30.9,6.5,62.9,23.6,96,51.3c8.7,7.3,15.8,14.9,21.3,22.9c17.4,25.8,26.2,50,26.2,72.5c0,12.7-2.4,23.8-7.1,33.3
		c-1.8,4-3.5,8.2-5.2,12.5s-3.4,8.5-5.2,12.5c-3.6,8.4-8.4,16.2-14.2,23.4c-5.8,7.3-11.5,14.4-16.9,21.3
		c-5.5,6.9-11.1,13.8-16.9,20.7c-13.8,16.4-26.4,28.4-37.6,36c-3.6,4.4-7.5,8.7-11.7,13.1c-4.2,4.4-8.3,6.5-12.3,6.5
		c-2.5,0-6.7-1-12.5-3c-5.8-2-9.8-5.2-12-9.5c-1.1-15.3-1.6-31.6-1.6-49.1c0-9.1,0.2-20.2,0.5-33.3c0.4-13.1,0.9-28.5,1.6-46.3
		c0.7-17.8,1.3-33.3,1.6-46.3c0.4-13.1,0.5-24.2,0.5-33.3c0-11.6-0.3-22.9-0.8-33.8c-0.5-10.9-1.2-21.3-1.9-31.1L481.5,1158.7z
		 M538.2,1385c41.1-41.1,61.6-80.1,61.6-117.2c0-2.5-0.1-5.1-0.3-7.6c-0.2-2.5-0.5-5.1-0.8-7.6c-3.3-22.9-22.7-43.1-58.3-60.5
		c-0.7,20.7-1.4,41.7-1.9,63c-0.5,21.3-0.8,43.3-0.8,66.2c0,10.5,0,21.1,0,31.6C537.7,1363.4,537.9,1374.1,538.2,1385z"/>
	<path class="st5" d="M877.9,1302.8c-6,13.9-13.1,26.7-21.4,38.4c-8.3,11.7-17.4,21.8-27.1,30.4c-9.7,8.5-20.2,15.2-31.5,19.9
		s-22.9,7.1-34.8,7.1c-8.3,0-17.8-2.2-28.3-6.5c-10.5-4.4-20.4-10.9-29.8-19.6c-9.3-8.7-17.3-19.3-23.8-31.8
		c-6.5-12.5-9.8-27.1-9.8-43.7c0-13.1,2.5-28.3,7.4-45.5c5-17.3,11.5-33.6,19.6-49.1c8.1-15.5,17.6-28.6,28.3-39.3
		c10.7-10.7,21.8-16.1,33.3-16.1c2.8,0,5.1,0.4,6.8,1.2c1.8,0.8,3.8,1.8,6,3c2.2,1.2,4.9,2.8,8,4.8c3.2,2,7.5,4.2,13.1,6.5
		c3.6,1.6,7.6,3.3,12.2,5.1c4.6,1.8,10,3.7,16.4,5.7c11.9,4,21.8,10.3,29.8,19c7.9,8.7,14.3,18.2,19,28.3c4.8,10.1,8,20,9.8,29.8
		c1.8,9.7,2.7,17.6,2.7,23.5C883.8,1285.1,881.8,1294.8,877.9,1302.8z M830.2,1265.9c-2-15.9-5.3-28.7-9.8-38.4
		c-4.6-9.7-10.8-14.6-18.8-14.6c-2.4,0-5.5,1.5-9.2,4.5c-3.8,3-7.5,6.2-11.3,9.8c-3.8,3.6-7.3,6.8-10.7,9.8c-3.4,3-5.7,4.5-6.8,4.5
		c-3.2,0-6.9-1.6-11.3-4.8c-4.4-3.2-7.3-4.8-8.9-4.8c-4,0-7.4,2.1-10.4,6.2c-3,4.2-5.5,9.1-7.4,14.9c-2,5.8-3.5,11.9-4.5,18.5
		c-1,6.5-1.5,12.2-1.5,17c0,10.3,1.6,19.6,4.8,28c3.2,8.3,6.9,15.5,11.3,21.4c4.4,6,8.8,10.5,13.4,13.7c4.6,3.2,8,4.8,10.4,4.8
		c7.5,0,15.5-2.7,23.8-8c8.3-5.4,16-12.2,22.9-20.5c6.9-8.3,12.7-17.5,17.3-27.4c4.6-9.9,6.8-19.4,6.8-28.6V1265.9z"/>
	<path class="st5" d="M1044.9,1423.6c-8.2-1.7-14.5-4.9-18.8-9.5c-4.3-4.6-8.7-10.7-13.1-18.3c-2.8-4.8-5.5-11-8.2-18.5
		c-2.8-7.6-5.5-16.7-8.2-27.3c-2.8-12-5.5-24-8.2-36.1c-2.8-12-4.8-21.1-6.2-27.3c-3.8,18.2-7.7,36-11.9,53.3
		c-4.1,17.3-8.2,33.7-12.4,49.2s-8.2,29.6-12.4,42.5c-4.1,12.9-8.2,23.8-12.4,32.7c-1,2.4-3.3,3.6-6.7,3.6c-3.8,0-8.8-1.5-14.9-4.6
		c-4.8-2.4-8.2-5.3-10-8.8c-1.9-3.4-2.8-7.4-2.8-11.9c0-2.8,3.6-13.7,10.8-33c1.7-4.1,5.5-16,11.3-35.6
		c5.8-19.6,14.1-47.4,24.7-83.5c3.8-12.4,7.6-29.4,11.3-51c3.8-21.6,7.6-48.1,11.3-79.3c0.7-0.7,2.4-4.3,5.2-10.8
		c1.7-4.8,4.8-7.2,9.3-7.2c12.7,0,21.3,2.2,25.8,6.7c0,4.8,0,11.3,0,19.6s0.7,17.9,2.1,28.9c1.4,11,2.4,20.6,3.1,28.9
		c0.7,8.2,1,15.3,1,21.1c1,12.4,2.7,22.8,5.2,31.2c2.4,8.4,4.5,17.4,6.2,27c3.8,23,10.5,41.4,20.1,55.1c16.5-46,30-87.2,40.4-123.4
		c10.5-36.2,17.9-67.9,22.4-95.1c1.4-5.5,6.5-8.2,15.5-8.2c12.7,0,19.9,4.1,21.6,12.4c2.4,11,3.6,25.2,3.6,42.8
		c0,2.8-0.1,6.9-0.3,12.4c-0.2,5.5-0.4,12.7-0.8,21.6c-0.3,3.8-0.5,7.2-0.5,10.3c0,3.1,0,6,0,8.8c0,2.8,0,5.5,0,8.2
		c0,2.8,0.2,5.2,0.5,7.2c3.1,72.8,9.8,133.6,20.1,182.4c0,0.7,0.1,1.1,0.3,1.3c0.2,0.2,0.3,0.4,0.3,0.8c0,5.8-5.7,8.9-17,9.3
		c-6.9,0-14.1-3.3-21.6-9.8c-6.9-5.8-12-15.3-15.5-28.3c-3.8-11.7-5.8-28.7-6.2-51c0-6.2,0-13.2,0-21.1c0-7.9-0.1-15.5-0.3-22.9
		c-0.2-7.4-0.3-14.1-0.5-20.1c-0.2-6-0.4-10.4-0.8-13.1c-1,3.8-2.8,9.5-5.2,17c-2.4,7.6-5.1,15.9-8,25c-2.9,9.1-5.9,18.4-9,27.8
		c-3.1,9.5-5.8,18-8.2,25.5c-6.2,16.8-10,26.5-11.3,28.9c-5.2,9.6-11.3,14.4-18.5,14.4H1044.9z"/>
	<path class="st5" d="M1188.6,1454.5c0-13.4,3.8-29.4,11.3-47.9c10.3-25.1,16-43.3,17-54.6c0-2.7-2.2-5.8-6.7-9.3
		c-4.8-3.8-7.2-6.7-7.2-8.8s0.7-3.8,2.1-5.2c1.4-2.1,5-3.6,10.8-4.6c5.8-1.4,9.1-3.3,9.8-5.7c6.2-16.8,16-48.8,29.4-95.8
		c5.8-20.6,11.2-38.6,16.2-53.8c5-15.3,9.7-28.4,14.2-39.4c2.1-4.8,6.4-7.2,12.9-7.2c4.8,0,9.1,1.5,12.9,4.6
		c9.6,8.2,15.8,20.6,18.5,37.1c1,6.9,2.1,13.9,3.1,21.1c1,7.2,1.9,14.3,2.6,21.1c8.6,40.5,17.3,77.4,26.3,110.5
		c8.9,33.2,18,63.1,27.3,89.9c2.1,5.8,3.1,10.7,3.1,14.4c0,6.9-2.9,12.9-8.8,18c-5.5,4.8-9.5,7.2-11.8,7.2
		c-16.8-3.1-27.5-16.7-31.9-40.7c-4.5-26.1-10.1-47.9-17-65.4l-35,3.1c-13.4,1.7-23.9,5.8-31.4,12.4c-1.7,5.5-3.9,12.9-6.4,22.2
		s-5.4,20.8-8.5,34.5c-5.8,25.4-11.5,44.5-17,57.2c-1.7,4.1-5.2,6.2-10.3,6.2c-1,0-2.2,0-3.3,0c-1.2,0-2.5-0.3-3.9-1
		c-11.3-3.4-17.3-8.6-18-15.5V1454.5z M1313.8,1308.2c-0.7-6.9-1.5-13.8-2.6-20.9c-1-7-2.4-14.3-4.1-21.9
		c-1.7-6.9-3.3-13.7-4.9-20.6c-1.5-6.9-3.2-13.7-4.9-20.6c-10.3,28.9-19.2,57.4-26.8,85.5C1276,1308.7,1290.4,1308.2,1313.8,1308.2z
		"/>
</g>
<g class="st0">
	<path class="st5" d="M624.8,1795.1c-2.8,0.3-6.4,1-10.8,1.8c-4.5,0.9-9.8,2-16,3.3c-0.3,3.4-0.6,7-0.8,10.8
		c-0.2,3.8-0.3,7.9-0.3,12.4c0,4.1,0.1,9.3,0.3,15.5c0.2,6.2,0.4,13.6,0.8,22.2c1,17.2,1.5,29.7,1.5,37.6c0,29.9-4.6,53.2-13.9,70.1
		c-2.1,3.8-5.2,5.7-9.3,5.7c-4.1,0-8.4-1.9-12.9-5.7c-4.5-3.8-7.4-7.9-8.8-12.4c-3.4-10-5.2-22.3-5.2-37.1c0-2.4,0.3-7.7,0.8-16
		c0.5-8.2,1.5-19.6,2.8-34c0.3-4.5,0.6-8.8,0.8-12.9c0.2-4.1,0.3-8.1,0.3-11.9c0-11-0.7-19.4-2.1-25.2c-0.7-4.8-4.1-8.4-10.3-10.8
		c-7.9-3.4-12.9-6.2-14.9-8.2c-0.3-0.3-0.5-1.7-0.5-4.1c0-1.7,0.2-3.9,0.5-6.7c0.3-2.7,1.2-6,2.6-9.8c3.8,0,7-1.5,9.5-4.6
		c2.6-3.1,5.2-4.6,8-4.6c2.1,0,3.4,0.2,4.1,0.5c1.7-7.9,3-16.6,3.9-26c0.9-9.4,1.3-19.7,1.3-30.7c0-3.4-0.3-10.8-1-22.2
		c-0.7-11.3-1.5-26.8-2.6-46.4c0-1.7-0.1-3.5-0.3-5.4c-0.2-1.9-0.3-3.9-0.3-5.9c-6.5-2.1-13-6.1-19.3-12.1c-6.4-6-9.5-12.3-9.5-18.8
		c0-8.6,6.2-13.7,18.5-15.5c8.6-1.4,20.6-4.1,36.1-8.2c15.5-4.1,34.5-10,57.2-17.5c39.5-12.7,71.4-19.4,95.8-20.1
		c6.2,0,11.6,1.6,16.2,4.9c4.6,3.3,7,7.6,7,13.1c0,6.9-2.1,13.1-6.4,18.8c-4.3,5.7-9.9,9.2-16.7,10.6h-2.1c-3.1,0-6.6-0.9-10.6-2.6
		c-4-1.7-7.3-2.6-10-2.6c-7.9,0.7-16.4,2.4-25.5,5.2c-9.1,2.8-19.2,6.4-30.1,10.8c-14.4,5.8-26,10.5-34.8,13.9
		c-8.8,3.4-15.4,5.8-19.8,7.2c-0.7,11-1.2,22-1.5,33c-0.3,11-0.5,22-0.5,33c0,11,0.2,22.2,0.5,33.5c0.3,11.3,0.9,22.5,1.5,33.5
		c1.7,0.3,3.3,0.6,4.6,0.8c1.4,0.2,2.7,0.3,4.1,0.3c6.5,0,18.9-2.6,37.1-7.7c6.9-2.1,13.2-3.7,19.1-4.9c5.8-1.2,10.8-1.8,14.9-1.8
		c0.7,0,1.5,0.1,2.3,0.3c0.9,0.2,1.6,0.3,2.3,0.3c6.9,0.7,10.3,3.6,10.3,8.8c-2.1,13.4-10.7,23.7-25.8,30.9L624.8,1795.1z"/>
	<path class="st5" d="M726.8,1751.3c0.7-3.1,3.3-5.8,7.7-8.2c5.2-2.7,8.1-5.5,8.8-8.2c0.3-1.4,0.9-6,1.5-13.9
		c0.7-7.9,1.5-19.6,2.6-35c-18.9-3.4-28.3-10.6-28.3-21.6c0.3-10,6.4-17.9,18-23.7l33-13.4c6.5-3.4,13.7-6.5,21.6-9.3
		c7.9-2.7,16.7-5.5,26.3-8.2c8.6-2.4,17-4.6,25.2-6.7c8.2-2.1,16.7-4.1,25.2-6.2c0.7-0.3,2.7-0.5,6.2-0.5c9.3,0,20.1,3.6,32.5,10.8
		c0.3,1.4,1.2,4,2.6,7.7c1.4,3.8,2.1,6.5,2.1,8.2c0,3.1-1.2,5.3-3.6,6.7c-6.5,2.8-14.4,5.6-23.7,8.5c-9.3,2.9-20.1,6.1-32.5,9.5
		c-12.4,3.4-23.2,6.6-32.5,9.5c-9.3,2.9-17.2,5.8-23.7,8.5c-1.4,4.1-2.7,11.2-3.9,21.1c-1.2,10-2.1,22.8-2.8,38.6
		c5.5,2.1,11.8,3.1,19.1,3.1c2.7,0,6.1-0.3,10-0.8c3.9-0.5,8.7-1.1,14.2-1.8c5.5-0.7,10.2-1.3,14.2-1.8c3.9-0.5,7.3-0.8,10-0.8
		c9.6,0,17.9,2.1,24.7,6.2c4.8,6.9,7.2,11.3,7.2,13.4c0,2.4-1.2,4.3-3.6,5.7c-0.3,0.3-1.1,1-2.3,2.1c-1.2,1-2.8,2.8-4.9,5.2
		c-2.1,2.8-5.5,4.1-10.3,4.1c-7.2,1.4-20.4,2.4-39.7,3.1c-16.1,0.7-29,2.8-38.6,6.2c-6.5,24-9.8,44.1-9.8,60.3
		c0,9.3,1.4,17.2,4.1,23.7c14.1,10,37.3,14.9,69.6,14.9c2.4,0,4.7-0.1,7-0.3c2.2-0.2,4.7-0.3,7.5-0.3c2.7,0,5.7-1.3,8.8-3.9
		c3.1-2.6,5.7-3.9,7.7-3.9c0.7,0,1.2-0.1,1.5-0.3c0.3-0.2,0.9-0.3,1.5-0.3c8.2,0,13.6,7.4,16,22.2c0,0.7,0.1,1.4,0.3,2.1
		c0.2,0.7,0.3,1.4,0.3,2.1c0,4.8-1.5,9-4.4,12.6c-2.9,3.6-6.8,5.6-11.6,5.9c-3.1,0-6.2,0.1-9.3,0.3c-3.1,0.2-6.2,0.3-9.3,0.3
		c-33,0-62.9-3.4-89.7-10.3c-9.6-2.4-18.4-7.7-26.3-16c-7.9-8.2-12.4-17.5-13.4-27.8c-0.7-7.6-1.3-14.8-1.8-21.6
		c-0.5-6.9-0.8-13.7-0.8-20.6c0-6.9,0.3-13.5,0.8-19.8c0.5-6.4,1.1-12.4,1.8-18.3c-8.6-6.2-12.9-11.9-12.9-17V1751.3z"/>
	<path class="st5" d="M978.8,1941.4c-10.3-4.5-15.5-10.1-15.5-17c0-4.1,2.6-9.1,7.7-14.9c1.4-1.4,4.6-2.4,9.8-3.1
		c5.2-0.3,8.6-2.4,10.3-6.2c7.2-14.8,10.8-30.2,10.8-46.4c0-21.6-11.2-53.9-33.5-96.9c-22-42.6-33-76.6-33-102
		c0-20.9,4.1-39.7,12.4-56.2c9.3-18.9,22.5-32.5,39.7-40.7c8.6-3.8,16.3-5.7,23.2-5.7c14.4,0,25.2,4,32.5,11.9
		c3.4,3.4,5.2,7.2,5.2,11.3c0,6.9-5,12.9-14.9,18c-1.4,0.7-2.9,1-4.6,1c-2.1,0-3.4-0.2-4.1-0.5c-3.8-1.4-6.4-2.1-7.7-2.1
		c-2.1,0-4.1,1-6.2,3.1c-18.5,18.5-27.8,41.2-27.8,68c0,10,1.5,19.2,4.6,27.8c0.7,1.7,4.3,9.3,10.8,22.7c6.5,13.4,16,32.5,28.3,57.2
		c16.5,33,24.7,61,24.7,84c0,18.9-4.6,37.1-13.9,54.6c-3.1,5.8-10.8,13.4-23.2,22.7c-10,7.2-18.9,10.8-26.8,10.8
		C984.1,1943,981.2,1942.5,978.8,1941.4z"/>
	<path class="st5" d="M1211.2,1892.5c0,2.1-0.1,3.9-0.3,5.4c-0.2,1.5-0.4,3-0.8,4.4c-1.7,5.2-5.2,7.7-10.3,7.7
		c-10-0.3-18.1-4.6-24.5-12.6c-6.4-8.1-9.9-17.1-10.6-27c-1-12.7-1.5-26.1-1.5-40.2c0-22.7,1.5-58.6,4.6-107.7
		c1.4-20.6,2.4-39.1,3.1-55.4c0.7-16.3,1-30.5,1-42.5v-9.8h-6.7c-4.1,0-8.8,0.2-14.2,0.5c-5.3,0.3-11.3,1-17.8,2.1
		c-3.8,0.7-6.7,1.3-8.8,1.8c-2.1,0.5-5,0.8-8.8,0.8c-16.5,0-30.2-4.5-41.2-13.4c-4.1-8.6-6.2-13.2-6.2-13.9c0-2.7,1.2-5.3,3.6-7.7
		c5.5-1.7,11.8-3.3,19.1-4.9c7.2-1.5,16.1-2.8,26.8-3.9c28.9-3.1,68.1-7.4,68.1-7.4s25.7-3.4,40.1-3.4c14.4,0,29.2-1.9,44.3-5.7
		c2.1-0.3,5.3-1.1,9.8-2.3c4.5-1.2,9.1-2.5,13.9-3.9c8.2-2.4,16.3-3.6,24.2-3.6c1,0,2.1,0.1,3.3,0.3c1.2,0.2,2.3,0.3,3.3,0.3
		c5.2,0,7.7,1.9,7.7,5.7v2.1c9.3,0,13.9,3.1,13.9,9.3c-3.1,12.4-8.9,19.6-17.5,21.6c-11,2.8-25,5.8-42,9c-17,3.3-39.2,7.1-66.7,11.6
		c-3.4,43.3-6,82.4-7.7,117.5c-1.7,35-2.6,67.2-2.6,96.3c0,11,0.1,21.7,0.3,32.2c0.2,10.5,0.4,21,0.8,31.7V1892.5z"/>
</g>
<g>
	<g>
		<g>
			<path class="st4" d="M1053.3,973.7c-28.5-12.9-33.9-12.3-39.7-13.7c-0.6-0.1-1.1-0.3-1.7-0.4l-3.9-0.9c-1.1-0.2-2.2-0.5-3.3-0.7
				c-12.8-2.6-25.8-4.1-39-4.4c-0.9,0-1.8,0-2.6,0h-0.1c-1.1,0-2.1,0-3.2,0c-1,0-2,0-3.1,0c-0.9,0-1.7,0-2.6,0h-0.3
				c-1.9,0.1-3.9,0.1-5.8,0.2c-16.1,0.8-32,3.3-47.5,7.5c-0.7,0.2-1.4,0.4-2.1,0.6c-0.5,0.1-1,0.3-1.4,0.4c-0.7,0.2-1.5,0.4-2.2,0.7
				c-0.3,0.1-0.6,0.2-0.8,0.3l-3.9,1.2c-8,2.6-15.9,5.7-23.8,9.2c-7.3,3.3-14.4,7-21.3,11c12.6-6.4,25.8-11.9,39.6-16.1
				c1.2-0.4,2.4-0.7,3.6-1.1c0.3-0.1,0.6-0.2,0.8-0.2c0.2-0.1,0.5-0.1,0.7-0.2c0.1,0,0.3-0.1,0.5-0.1c0.2,0,0.3-0.1,0.5-0.1
				c0.5-0.2,1.1-0.3,1.6-0.5c0,0,0.1,0,0.1,0c0.4-0.1,0.8-0.2,1.2-0.3c0.4-0.1,0.8-0.2,1.2-0.3c1-0.2,1.9-0.5,2.9-0.8
				c1.2-0.3,2.4-0.6,3.6-0.9c15.2-3.6,30.8-5.9,46.9-6.6c1.9-0.1,3.8-0.2,5.7-0.2c0.7,0,1.3,0,2-0.1c0.3,0,0.5,0,0.8,0
				c1.1,0,2.1,0,3.2,0c1,0,1.9,0,2.9,0c1,0,1.9,0,2.9,0.1c14.7,0.3,29,1.9,43,4.7l0.8,0.2c0.4,0.1,0.8,0.2,1.2,0.2
				c0.7,0.1,1.3,0.3,1.9,0.4v0c0.2,0,0.3,0.1,0.5,0.1c3.4,0.7,6.7,1.5,10,2.4c1.2,0.3,2.4,0.6,3.6,1c16.8,4.6,32.9,10.9,48.1,18.6
				C1067.7,980.7,1060.6,977,1053.3,973.7z"/>
		</g>
		<g class="st0">
			<path class="st6" d="M805.9,1733.5c-39.2,17.4-43.6,23.4-50.3,28.1c-0.7,0.4-1.3,0.9-2,1.3l-4.5,3.2c-1.2,0.9-2.5,1.8-3.7,2.7
				c-14.3,10.7-27.8,22.7-40.2,35.9c-0.8,0.9-1.6,1.8-2.5,2.7l-0.1,0c-1,1.1-2,2.2-2.9,3.3c-0.9,1-1.9,2.1-2.8,3.1
				c-0.8,0.9-1.6,1.8-2.3,2.7c-0.1,0.1-0.2,0.2-0.3,0.4c-16.1,19-29.7,39.5-40.7,61.6c-0.4,0.9-0.9,1.8-1.3,2.7
				c-0.3,0.6-0.6,1.2-0.9,1.9c-0.5,0.9-0.9,1.9-1.4,2.9c-0.2,0.4-0.4,0.7-0.5,1.1l-2.3,5.2c-4.7,10.6-8.8,21.5-12.3,32.7
				c-3.3,10.5-6,21.1-8.2,31.9c5-18.8,11.5-37.3,19.7-55.2c0.7-1.6,1.4-3.1,2.1-4.6c0.2-0.4,0.3-0.7,0.5-1.1
				c0.1-0.3,0.3-0.6,0.4-0.9c0.1-0.2,0.2-0.4,0.3-0.6c0.1-0.2,0.2-0.4,0.3-0.6c0.3-0.7,0.7-1.4,1-2.1c0-0.1,0-0.1,0.1-0.2
				c0.2-0.5,0.5-1,0.8-1.5c0.3-0.5,0.5-1,0.8-1.5c0.6-1.2,1.2-2.4,1.9-3.6c0.8-1.5,1.6-3,2.4-4.5c11.4-21,25.1-41.2,41.2-60
				c0.6-0.7,1.2-1.4,1.8-2.1c0.2-0.3,0.5-0.5,0.7-0.8c1-1.1,1.9-2.2,2.9-3.3c0.9-1,1.8-2,2.7-3c0.9-1,1.8-2,2.7-2.9
				c13.7-14.7,28.5-27.9,44-39.7c0.3-0.2,0.6-0.4,0.9-0.6c0.4-0.3,0.9-0.7,1.3-1c0.7-0.5,1.5-1.1,2.2-1.6c0.2-0.1,0.4-0.3,0.6-0.4
				c3.8-2.8,7.7-5.5,11.6-8.1c1.4-0.9,2.9-1.9,4.3-2.8c20-13,41.2-23.7,63-32.1C826.2,1725.1,816,1729,805.9,1733.5z"/>
		</g>
		<g class="st0">
			<path class="st6" d="M745.2,1242.6c0-1,0-2-0.1-3c0-0.7,0-1.4-0.1-2.1c0-1.1-0.1-2.1-0.1-3.2c0-0.4,0-0.8-0.1-1.2l-0.3-5.7
				c-0.8-11.6-2.2-23.1-4.2-34.7c-1.9-10.8-4.4-21.5-7.4-32.1c4.3,19,7,38.4,8.1,58c0.1,1.7,0.2,3.4,0.2,5.1c0,0.4,0,0.8,0.1,1.2
				c0,0.3,0,0.7,0,1c0,0.2,0,0.5,0,0.7c0,0.2,0,0.4,0,0.7c0,0.8,0,1.6,0.1,2.3c0,0.1,0,0.1,0,0.2c0,0.6,0,1.1,0,1.7
				c0,0.6,0,1.1,0,1.7c0,1.3,0,2.7,0,4.1c0,1.7,0,3.4-0.1,5c-0.3,23.9-3.2,48.1-8.8,72.3c-0.2,0.9-0.4,1.8-0.6,2.7
				c-0.1,0.3-0.2,0.7-0.2,1.1c-0.3,1.4-0.7,2.9-1.1,4.3c-0.3,1.3-0.7,2.6-1,3.9c-0.3,1.3-0.7,2.6-1.1,3.8
				c-5.4,19.4-12.3,37.9-20.7,55.6c-0.2,0.3-0.3,0.7-0.5,1c-0.2,0.5-0.5,1-0.7,1.5c-0.4,0.8-0.8,1.6-1.2,2.4
				c-0.1,0.2-0.2,0.4-0.3,0.6c-2.1,4.2-4.3,8.4-6.5,12.5c-0.8,1.5-1.7,3-2.5,4.5c-11.8,20.8-25.5,40-41,57.6
				c7.7-7.8,15-16.1,21.9-24.7c26.7-33.5,27.8-41,31.7-48.2c0.4-0.7,0.8-1.4,1.1-2.1l2.5-4.9c0.7-1.4,1.4-2.7,2-4.1
				c7.8-16.1,14.1-33,19-50.4c0.3-1.2,0.6-2.3,1-3.5l0-0.1c0.4-1.4,0.8-2.8,1.1-4.2c0.3-1.4,0.7-2.7,1-4.1c0.3-1.1,0.5-2.3,0.8-3.4
				c0-0.2,0.1-0.3,0.1-0.5C743,1291.7,745.6,1267.2,745.2,1242.6z"/>
		</g>
		<g>
			<path class="st4" d="M684.5,730.7c103.4,0,196.3,45.4,260.1,117.3c1.2,1.3,2.3,2.6,3.4,3.9V844c-4.6-5.1-9.3-10.2-14.2-15.1
				c-32.4-32.4-70.1-57.8-112-75.5c-43.5-18.4-89.6-27.7-137.2-27.7s-93.8,9.3-137.2,27.7c-42,17.8-79.7,43.2-112.1,75.5
				c-13.1,13.1-25.1,27.1-35.8,41.8c-0.8,0-1.6,0-2.4,0h-0.1c-1.5,0-2.9,0-4.4,0c-1.4,0-2.8,0-4.2,0c-1.2,0-2.4,0-3.5,0.1
				c-0.2,0-0.3,0-0.5,0c-2.2,0-4.4,0.1-6.6,0.2c-2,0.1-4,0.2-5.9,0.3c-20.6,1.2-40.9,4.1-60.8,8.9c-1.6,0.4-3.3,0.8-4.9,1.2
				c-1.2,0.3-2.4,0.6-3.6,0.9c-1.7,0.5-3.5,0.9-5.2,1.4c-0.1,0-0.1,0-0.2,0c-0.9,0.3-1.8,0.5-2.7,0.8c-0.3,0.1-0.7,0.2-1,0.3
				c-0.4,0.1-0.8,0.2-1.2,0.4c-1.6,0.5-3.3,1-4.9,1.5c-10.8,3.4-21.5,7.3-32,11.8c-34.6,14.6-66.2,34.4-94.4,59
				c-1.4,1.2-2.8,2.4-4.1,3.7c-4.6,4.1-9.1,8.4-13.5,12.8c-0.2,0.2-0.5,0.5-0.7,0.7c-1.2,1.2-2.5,2.5-3.7,3.8
				c-30.3,31.3-54.2,67.5-71.1,107.5c-18.4,43.5-27.7,89.6-27.7,137.2c0,8.6,0.3,17.1,0.9,25.5c0.1,2.1,0.3,4.1,0.5,6.2
				c1.1,13,3,25.8,5.6,38.4c0.3,1.7,0.7,3.3,1,5c2.1,9.5,4.5,19,7.4,28.3c0,0.1,0,0.2,0.1,0.3c0.5,1.7,1.1,3.4,1.6,5.1
				c0,0.1,0.1,0.2,0.1,0.3c3.1,9.5,6.6,18.9,10.5,28.2c2.2,5.1,4.4,10.2,6.8,15.1c0.8,1.7,1.6,3.3,2.4,5c16.9,34,39.2,64.8,66.3,92
				c20.2,20.2,42.4,37.6,66.5,52.2c1.7,1,3.3,2,5,3c13,7.6,26.5,14.4,40.5,20.3c7,2.9,14,5.6,21.1,8.1
				c-21.7,26.2-39.3,55.4-52.7,86.9c-18.4,43.5-27.7,89.6-27.7,137.2c0,47.6,9.3,93.8,27.7,137.2c17.8,42,43.2,79.7,75.5,112
				c32.4,32.4,70.1,57.8,112.1,75.6c43.5,18.4,89.6,27.7,137.2,27.7c17.1,0,40.9-1.2,62.9-3.6c0.8,4.8,1.6,9.5,2.6,14.2
				c0.3,1.7,0.7,3.3,1,4.9c4.4,20.3,10.6,40.2,18.7,59.6c0.3,0.8,0.7,1.7,1,2.5c0.3,0.7,0.6,1.5,1,2.2c17.7,41.1,42.8,78,74.6,109.8
				c32.4,32.4,70.1,57.8,112.1,75.6c39.9,16.9,82.2,26.1,125.7,27.5v-5c-161.2-5.3-294.9-120.8-328.1-273.5c-0.4-1.7-0.7-3.3-1-5
				c-0.9-4.5-1.7-9-2.5-13.6c-0.3-1.7-0.5-3.3-0.8-5c-1.7,0.2-3.3,0.4-5,0.6c-21.6,2.4-45.1,3.6-62.1,3.6
				c-191.6,0-347.5-155.9-347.5-347.5c0-84.5,30.3-162,80.6-222.3c0.1-0.1,0.2-0.3,0.4-0.4c0.8,0.3,1.7,0.5,2.5,0.8
				c1.5,0.4,2.9,0.9,4.4,1.3l5.3,1.4c0.8,0.2,1.5,0.4,2.3,0.6c7.9,2,15.2,6.2,57.9,8.8c11,0.7,22,0.8,33,0.3
				c-23.4-0.3-47-3.1-70.2-8.2c-1.7-0.4-3.3-0.8-5-1.2c-4.6-1.1-9.1-2.3-13.6-3.5c-0.2-0.1-0.5-0.1-0.7-0.2v0
				c-0.9-0.2-1.8-0.5-2.6-0.8c-0.5-0.2-1-0.3-1.6-0.5c-0.3-0.1-0.7-0.2-1-0.3c-11.7-3.5-26.5-9-40.3-14.9c-0.1-0.1-0.3-0.1-0.4-0.2
				c-11-4.9-21.7-10.3-32.1-16.3c-1.7-1-3.4-2-5.1-3c-57.5-34.4-104.3-84.8-134-145.2c-0.8-1.7-1.6-3.3-2.4-5
				c-6.6-13.9-12.3-28.2-17-43c0-0.1-0.1-0.2-0.1-0.3c-0.6-1.7-1.1-3.5-1.6-5.2c0-0.1,0-0.2-0.1-0.2c-2.5-8.5-4.8-17.1-6.7-25.8
				c-0.4-1.7-0.7-3.3-1-5c-2.7-13.4-4.6-27-5.7-40.9c-0.2-2.1-0.3-4.2-0.5-6.3c-0.4-7.2-0.7-14.4-0.7-21.6
				c0-93,36.7-177.5,96.3-239.9c1.2-1.3,2.5-2.6,3.7-3.9c4.3-4.4,8.8-8.7,13.3-12.9c1.4-1.3,2.8-2.5,4.2-3.7
				c21.9-19.3,46.2-35.9,72.4-49.3c17.3-8.8,35.5-16.3,54.3-22.1c1.6-0.5,3.2-1,4.9-1.5c0.4-0.1,0.8-0.2,1.2-0.3
				c0.3-0.1,0.6-0.2,1-0.3c0.2-0.1,0.4-0.1,0.6-0.2c0.2-0.1,0.4-0.1,0.6-0.2c0.7-0.2,1.5-0.4,2.2-0.6c0.1,0,0.1,0,0.2-0.1
				c0.6-0.1,1.1-0.3,1.7-0.4c0.5-0.1,1.1-0.3,1.6-0.4c1.3-0.4,2.6-0.7,4-1c1.6-0.4,3.3-0.8,4.9-1.2c3.9-0.9,7.7-1.8,11.6-2.5
				c14.8-3,30-5,45.5-6.1c0.1,0,0.2,0,0.3,0c1.8-0.1,3.7-0.2,5.5-0.3c0,0,0.1,0,0.1,0c3-0.2,6.1-0.3,9.2-0.3c0.9,0,1.8,0,2.7-0.1
				c0.4,0,0.7,0,1.1,0c1.5,0,2.9,0,4.4,0c1.1,0,2.2,0,3.4,0c0.2,0,0.4,0,0.6,0c1.3,0,2.7,0,4,0.1c0.6,0,1.1,0,1.7,0
				c17.1,0.5,33.9,2.2,50.3,5c0.1,0,0.2,0,0.2,0c1.8,0.3,3.6,0.6,5.4,1c0.8,0.1,1.6,0.3,2.4,0.4c0.1,0,0.2,0,0.3,0.1
				c0.3,0.1,0.7,0.1,1.1,0.2c1.2,0.2,2.4,0.5,3.6,0.7c0.2,0,0.5,0.1,0.7,0.2c1.3,0.3,2.6,0.5,3.9,0.8c1.3,0.3,2.6,0.6,3.9,0.9
				c19.6,4.5,38.4,10.7,56.4,18.2c0.3,0.2,0.7,0.3,1,0.4c0.5,0.2,1,0.4,1.5,0.6c0.8,0.3,1.7,0.7,2.5,1.1v0c0.2,0.1,0.4,0.2,0.7,0.3
				c4.3,1.9,8.6,3.9,12.8,6c1.5,0.8,3.1,1.5,4.6,2.3c21.2,10.8,41.1,23.8,59.4,38.5c-8.2-7.4-16.7-14.3-25.6-20.8
				c-34.6-25.2-42.1-26-49.5-29.5c-0.7-0.4-1.4-0.7-2.1-1l-5-2.3c-1.4-0.6-2.8-1.2-4.2-1.8c-16.5-7.1-33.6-12.7-51.2-16.8
				c-1.2-0.3-2.3-0.5-3.5-0.8l-0.1,0c-1.4-0.3-2.9-0.6-4.3-0.9c-1.4-0.3-2.7-0.5-4.1-0.8c-1.2-0.2-2.3-0.4-3.5-0.7
				c-0.2,0-0.3-0.1-0.5-0.1c-0.2,0-0.3-0.1-0.5-0.1c-0.1,0-0.2,0-0.3-0.1c-17.3-3.3-34.9-5.2-52.7-5.9
				C469.1,785.9,570.5,730.7,684.5,730.7z"/>
		</g>
	</g>
	<g>
		<g class="st0">
			<path class="st6" d="M1060.9,1721.7c21.8,8.5,43,19.2,63,32.1c1.4,0.9,2.9,1.9,4.3,2.8c3.9,2.6,7.8,5.3,11.6,8.1
				c0.2,0.1,0.4,0.3,0.6,0.4c0.7,0.5,1.5,1.1,2.2,1.6c0.4,0.3,0.9,0.6,1.3,1c0.3,0.2,0.6,0.4,0.9,0.6c15.6,11.8,30.3,25,44,39.7
				c0.9,1,1.8,1.9,2.7,2.9c0.9,1,1.8,2,2.7,3c1,1.1,2,2.2,2.9,3.3c0.2,0.3,0.5,0.6,0.7,0.8c0.6,0.7,1.2,1.4,1.8,2.1
				c16.1,18.9,29.8,39,41.2,60c0.8,1.5,1.6,3,2.4,4.5c0.6,1.2,1.2,2.4,1.9,3.6c0.2,0.5,0.5,1,0.8,1.5c0.2,0.5,0.5,1,0.8,1.5
				c0,0.1,0.1,0.1,0.1,0.2c0.3,0.7,0.7,1.4,1,2.1c0.1,0.2,0.2,0.4,0.3,0.6c0.1,0.2,0.2,0.4,0.3,0.6c0.1,0.3,0.3,0.6,0.4,0.9
				c0.2,0.4,0.3,0.7,0.5,1.1c0.7,1.5,1.4,3.1,2.1,4.6c8.2,17.9,14.7,36.4,19.7,55.2c-2.2-10.8-5-21.4-8.2-31.9
				c-3.5-11.2-7.6-22.1-12.3-32.7l-2.3-5.2c-0.1-0.4-0.3-0.7-0.5-1.1c-0.4-0.9-0.9-1.9-1.4-2.9c-0.3-0.6-0.6-1.2-0.9-1.9
				c-0.4-0.9-0.9-1.8-1.3-2.7c-11-22-24.6-42.6-40.7-61.6c-0.1-0.1-0.2-0.2-0.3-0.4c-0.8-0.9-1.5-1.8-2.3-2.7
				c-0.9-1-1.8-2.1-2.8-3.1c-1-1.1-1.9-2.2-2.9-3.3l-0.1,0c-0.8-0.9-1.6-1.8-2.5-2.7c-12.4-13.2-25.8-25.2-40.2-35.9
				c-1.2-0.9-2.5-1.8-3.7-2.7l-4.5-3.2c-0.6-0.4-1.3-0.9-2-1.3c-6.7-4.6-11.1-10.7-50.3-28.1
				C1081.7,1729,1071.4,1725.1,1060.9,1721.7z"/>
		</g>
		<g class="st0">
			<path class="st6" d="M1160.1,1316c0,0.1,0.1,0.3,0.1,0.5c0.3,1.2,0.5,2.3,0.8,3.4c0.3,1.4,0.7,2.7,1,4.1c0.4,1.4,0.7,2.8,1.1,4.2
				l0,0.1c0.3,1.2,0.6,2.3,1,3.5c4.9,17.4,11.3,34.3,19,50.4c0.7,1.4,1.3,2.8,2,4.1l2.5,4.9c0.4,0.7,0.7,1.4,1.1,2.1
				c3.8,7.2,4.9,14.6,31.7,48.2c6.9,8.6,14.2,16.9,21.9,24.7c-15.5-17.6-29.2-36.9-41-57.6c-0.8-1.5-1.7-3-2.5-4.5
				c-2.2-4.1-4.4-8.3-6.5-12.5c-0.1-0.2-0.2-0.4-0.3-0.6c-0.4-0.8-0.8-1.6-1.2-2.4c-0.2-0.5-0.5-1-0.7-1.5c-0.2-0.3-0.3-0.7-0.5-1
				c-8.4-17.6-15.3-36.2-20.7-55.6c-0.4-1.3-0.7-2.6-1.1-3.8c-0.3-1.3-0.7-2.6-1-3.9c-0.4-1.4-0.7-2.8-1.1-4.3
				c-0.1-0.4-0.2-0.7-0.2-1.1c-0.2-0.9-0.4-1.8-0.6-2.7c-5.6-24.2-8.4-48.4-8.8-72.3c0-1.7-0.1-3.4-0.1-5c0-1.4,0-2.7,0-4.1
				c0-0.6,0-1.1,0-1.7c0-0.6,0-1.2,0-1.7c0-0.1,0-0.1,0-0.2c0-0.8,0-1.5,0.1-2.3c0-0.2,0-0.4,0-0.7c0-0.2,0-0.4,0-0.7
				c0-0.3,0-0.7,0-1c0-0.4,0-0.8,0.1-1.2c0.1-1.7,0.1-3.4,0.2-5.1c1.1-19.7,3.8-39.1,8.1-58c-3,10.6-5.5,21.3-7.4,32.1
				c-2,11.6-3.5,23.1-4.2,34.7l-0.3,5.7c0,0.4,0,0.8-0.1,1.2c-0.1,1.1-0.1,2.1-0.1,3.2c0,0.7,0,1.4-0.1,2.1c0,1,0,2-0.1,3
				C1152.1,1267.2,1154.6,1291.7,1160.1,1316z"/>
		</g>
		<g>
			<path class="st4" d="M1857.6,1223.2c0,8.6-0.3,17.1-0.9,25.5c-0.1,2.1-0.3,4.1-0.5,6.2c-1.2,13-3,25.8-5.6,38.4
				c-0.3,1.7-0.7,3.3-1,5c-2.1,9.5-4.5,19-7.4,28.3c0,0.1-0.1,0.2-0.1,0.3c-0.5,1.7-1.1,3.4-1.6,5.1c0,0.1-0.1,0.2-0.1,0.3
				c-3.1,9.5-6.6,18.9-10.5,28.2c-2.2,5.1-4.4,10.2-6.8,15.1c-0.8,1.7-1.6,3.3-2.4,5c-16.9,34-39.2,64.8-66.3,92
				c-20.2,20.2-42.4,37.6-66.5,52.2c-1.7,1-3.3,2-5,3c-13,7.6-26.5,14.4-40.5,20.3c-6.9,2.9-14,5.6-21.1,8.1
				c21.7,26.2,39.3,55.4,52.7,86.9c18.4,43.5,27.7,89.6,27.7,137.2c0,47.6-9.3,93.8-27.7,137.2c-17.8,42-43.2,79.7-75.5,112
				c-32.4,32.4-70.1,57.8-112.1,75.6c-43.5,18.4-89.6,27.7-137.2,27.7c-17.1,0-40.9-1.2-62.9-3.6c-0.8,4.8-1.6,9.5-2.6,14.2
				c-0.3,1.7-0.7,3.3-1,4.9c-4.4,20.3-10.6,40.2-18.7,59.6c-0.3,0.8-0.7,1.7-1,2.5c-0.3,0.7-0.6,1.5-0.9,2.2
				c-17.7,41.1-42.8,78-74.6,109.8c-32.4,32.4-70.1,57.8-112.1,75.6c-39.9,16.9-82.2,26.1-125.7,27.5v-5
				c161.2-5.3,294.9-120.8,328.1-273.5c0.4-1.7,0.7-3.3,1-5c0.9-4.5,1.7-9,2.5-13.6c0.3-1.7,0.5-3.3,0.8-5c1.7,0.2,3.3,0.4,5,0.6
				c21.6,2.4,45.1,3.6,62.1,3.6c191.6,0,347.5-155.9,347.5-347.5c0-84.5-30.3-162-80.6-222.3c-0.1-0.1-0.2-0.3-0.4-0.4
				c-0.8,0.3-1.7,0.5-2.5,0.8c-1.5,0.4-2.9,0.9-4.4,1.3l-5.3,1.4c-0.8,0.2-1.5,0.4-2.3,0.6c-7.9,2-15.2,6.2-58,8.8
				c-11,0.7-22,0.8-33,0.3c23.4-0.3,47-3.1,70.2-8.2c1.7-0.4,3.3-0.8,5-1.2c4.6-1.1,9.1-2.3,13.6-3.5c0.2-0.1,0.5-0.1,0.7-0.2v0
				c0.9-0.2,1.8-0.5,2.6-0.8c0.5-0.2,1-0.3,1.6-0.5c0.3-0.1,0.7-0.2,1-0.3c11.7-3.5,26.4-9,40.3-14.9c0.1-0.1,0.3-0.1,0.4-0.2
				c11-4.9,21.7-10.3,32.1-16.3c1.7-1,3.4-2,5.1-3c57.5-34.4,104.3-84.8,134-145.2c0.8-1.7,1.6-3.3,2.4-5c6.6-13.9,12.3-28.2,17-43
				c0-0.1,0.1-0.2,0.1-0.3c0.6-1.7,1.1-3.5,1.6-5.2c0-0.1,0.1-0.2,0.1-0.2c2.5-8.5,4.8-17.1,6.7-25.8c0.4-1.7,0.7-3.3,1-5
				c2.7-13.4,4.6-27,5.7-40.9c0.2-2.1,0.3-4.2,0.5-6.3c0.4-7.2,0.7-14.4,0.7-21.6c0-93-36.7-177.5-96.3-239.9
				c-1.2-1.3-2.5-2.6-3.7-3.9c-4.3-4.4-8.8-8.7-13.4-12.9c-1.4-1.3-2.8-2.5-4.2-3.7c-21.9-19.3-46.2-35.9-72.4-49.3
				c-17.3-8.8-35.4-16.3-54.3-22.1c-1.6-0.5-3.2-1-4.9-1.5c-0.4-0.1-0.8-0.2-1.2-0.3c-0.3-0.1-0.6-0.2-0.9-0.3
				c-0.2-0.1-0.4-0.1-0.6-0.2s-0.4-0.1-0.6-0.2c-0.7-0.2-1.5-0.4-2.2-0.6c-0.1,0-0.1,0-0.2-0.1c-0.6-0.1-1.1-0.3-1.7-0.4
				c-0.5-0.1-1.1-0.3-1.6-0.4c-1.3-0.4-2.6-0.7-3.9-1c-1.6-0.4-3.3-0.8-4.9-1.2c-3.9-0.9-7.7-1.8-11.7-2.5c-14.8-3-30-5-45.4-6.1
				c-0.1,0-0.2,0-0.3,0c-1.8-0.1-3.7-0.2-5.5-0.3c0,0-0.1,0-0.1,0c-3.1-0.2-6.1-0.3-9.2-0.3c-0.9,0-1.8,0-2.7-0.1
				c-0.4,0-0.7,0-1.1,0c-1.5,0-2.9,0-4.4,0c-1.1,0-2.2,0-3.4,0c-0.2,0-0.4,0-0.6,0c-1.3,0-2.7,0-4,0.1c-0.5,0-1.1,0-1.7,0
				c-17.1,0.5-33.9,2.2-50.3,5c-0.1,0-0.2,0-0.2,0c-1.8,0.3-3.6,0.6-5.4,1c-0.8,0.1-1.6,0.3-2.4,0.4c-0.1,0-0.2,0-0.3,0.1
				c-0.3,0.1-0.7,0.1-1.1,0.2c-1.2,0.2-2.4,0.5-3.6,0.7c-0.2,0-0.5,0.1-0.7,0.2c-1.3,0.3-2.6,0.5-3.9,0.8c-1.3,0.3-2.6,0.6-3.9,0.9
				c-19.6,4.5-38.4,10.7-56.4,18.2c-0.3,0.2-0.7,0.3-1,0.4c-0.5,0.2-1,0.4-1.5,0.6c-0.8,0.3-1.7,0.7-2.5,1.1v0
				c-0.2,0.1-0.4,0.2-0.6,0.3c-4.3,1.9-8.6,3.9-12.8,6c-1.5,0.8-3.1,1.5-4.6,2.3c-21.2,10.8-41.1,23.8-59.3,38.5
				c8.2-7.4,16.7-14.3,25.6-20.8c34.7-25.2,42.1-26,49.5-29.5c0.7-0.4,1.4-0.7,2.1-1l5-2.3c1.4-0.6,2.8-1.2,4.2-1.8
				c16.5-7.1,33.6-12.7,51.2-16.8c1.2-0.3,2.3-0.5,3.5-0.8l0.1,0c1.4-0.3,2.9-0.6,4.3-0.9c1.4-0.3,2.7-0.5,4.1-0.8
				c1.2-0.2,2.3-0.4,3.5-0.7c0.2,0,0.3-0.1,0.5-0.1c0.2,0,0.3-0.1,0.5-0.1c0.1,0,0.2,0,0.3-0.1c17.3-3.3,34.9-5.2,52.7-5.9
				c-63.4-85.1-164.8-140.2-278.8-140.2c-103.4,0-196.4,45.4-260.1,117.3c-1.2,1.3-2.3,2.6-3.4,3.9V844c4.6-5.1,9.3-10.2,14.2-15.1
				c32.4-32.4,70.1-57.8,112-75.5c43.5-18.4,89.6-27.7,137.2-27.7s93.8,9.3,137.2,27.7c42,17.8,79.7,43.2,112.1,75.5
				c13.1,13.1,25,27.1,35.8,41.8c0.8,0,1.6,0,2.4,0h0.1c1.5,0,2.9,0,4.4,0c1.4,0,2.8,0,4.2,0c1.2,0,2.3,0,3.5,0.1c0.2,0,0.3,0,0.5,0
				c2.2,0,4.4,0.1,6.6,0.2c2,0.1,4,0.2,6,0.3c20.6,1.2,40.9,4.1,60.8,8.9c1.6,0.4,3.3,0.8,4.9,1.2c1.2,0.3,2.4,0.6,3.6,0.9
				c1.7,0.5,3.5,0.9,5.2,1.4c0.1,0,0.1,0,0.2,0c0.9,0.3,1.8,0.5,2.7,0.8c0.3,0.1,0.7,0.2,1,0.3c0.4,0.1,0.8,0.2,1.2,0.4
				c1.6,0.5,3.3,1,4.9,1.5c10.8,3.4,21.5,7.3,32,11.8c34.6,14.6,66.2,34.4,94.4,59c1.4,1.2,2.8,2.4,4.2,3.7
				c4.6,4.1,9.1,8.4,13.5,12.8c0.2,0.2,0.5,0.5,0.7,0.7c1.2,1.2,2.5,2.5,3.7,3.8c30.3,31.3,54.2,67.5,71.1,107.5
				C1848.3,1129.5,1857.6,1175.6,1857.6,1223.2z"/>
		</g>
	</g>
	<g>
		<path class="st4" d="M1277,2121.3c-4.6-0.9-9.2-1.8-13.8-2.9c-1.7-0.4-3.3-0.8-5-1.2c-23.2-5.7-45.5-13.7-66.6-23.8
			c9.6,5.3,19.6,10.1,29.7,14.3c39.5,16.6,47,15.6,54.9,17.4 M1277.7,2121.4"/>
	</g>
</g>
<g class="st0">
	<path class="st6" d="M1838.3,1079c-16.5-39.1-39.7-74.4-68.9-105.2c-1.2-1.3-2.4-2.6-3.7-3.8c-1-1-2-2-3-3
		c-3.4-3.4-6.9-6.7-10.4-10c-1.4-1.3-2.8-2.5-4.1-3.8c-28.9-25.9-61.7-46.6-97.5-61.8c-14.2-6-28.8-11.1-43.6-15.1
		c-1.7-0.5-3.3-0.9-5-1.3c-4.8-1.3-9.7-2.4-14.6-3.5c-0.9-0.2-1.8-0.4-2.8-0.6c-0.5-0.1-1.1-0.2-1.6-0.3c-0.2,0-0.4-0.1-0.6-0.1
		c-1.1-0.2-2.1-0.4-3.1-0.6c-10.5-2-21.1-3.5-31.8-4.5c-0.2,0-0.3,0-0.5,0c-8.5-0.8-17-1.3-25.5-1.5c-1.2,0-2.4,0-3.6-0.1h-0.1
		c-1.5,0-2.9,0-4.4,0c-1.4,0-2.8,0-4.2,0c-0.1,0-0.3,0-0.4,0c-1,0-2.1,0-3.1,0c-0.2,0-0.3,0-0.5,0c-0.7,0-1.5,0-2.2,0.1
		c-2.1,0.1-4.2,0.1-6.4,0.2c-4.8,0.2-9.6,0.5-14.3,0.9c-11-15.2-23.3-29.6-36.7-43.1c-32.4-32.4-70.1-57.8-112-75.5
		c-43.5-18.4-89.6-27.7-137.2-27.7s-93.8,9.3-137.2,27.7c-42,17.8-79.7,43.2-112,75.5c-4.9,4.9-9.7,9.9-14.2,15.1
		c-4.6-5.1-9.3-10.2-14.2-15.1c-32.4-32.4-70.1-57.8-112-75.5c-43.5-18.4-89.6-27.7-137.2-27.7s-93.8,9.3-137.2,27.7
		c-42,17.8-79.7,43.2-112.1,75.5c-13.1,13.1-25.1,27.1-35.8,41.8c-0.8,0-1.6,0-2.4,0h-0.1c-1.5,0-2.9,0-4.4,0c-1.4,0-2.8,0-4.2,0
		c-1.2,0-2.4,0-3.5,0.1c-0.2,0-0.3,0-0.5,0c-2.2,0-4.4,0.1-6.6,0.2c-2,0.1-4,0.2-5.9,0.3c-20.6,1.2-40.9,4.1-60.8,8.9
		c-1.6,0.4-3.3,0.8-4.9,1.2c-1.2,0.3-2.4,0.6-3.6,0.9c-1.7,0.5-3.5,0.9-5.2,1.4c-0.1,0-0.1,0-0.2,0c-0.9,0.3-1.8,0.5-2.7,0.8
		c-0.3,0.1-0.7,0.2-1,0.3c-0.4,0.1-0.8,0.2-1.2,0.4c-1.6,0.5-3.3,1-4.9,1.5c-10.8,3.4-21.5,7.3-32,11.7
		c-34.6,14.6-66.2,34.4-94.4,59c-1.4,1.2-2.8,2.4-4.1,3.7c-4.6,4.1-9.1,8.4-13.5,12.8c-0.2,0.2-0.5,0.5-0.7,0.7
		c-1.2,1.2-2.5,2.5-3.7,3.8c-30.3,31.3-54.2,67.5-71.1,107.5c-18.4,43.5-27.7,89.6-27.7,137.2c0,8.6,0.3,17.1,0.9,25.5
		c0.1,2.1,0.3,4.1,0.5,6.2c1.1,13,3,25.8,5.6,38.4c0.3,1.7,0.7,3.3,1,5c2.1,9.5,4.5,19,7.4,28.3c0,0.1,0,0.2,0.1,0.3
		c0.5,1.7,1.1,3.4,1.6,5.1c0,0.1,0.1,0.2,0.1,0.3c3.1,9.5,6.6,18.9,10.5,28.2c2.2,5.1,4.4,10.2,6.8,15.1c0.8,1.7,1.6,3.3,2.4,5
		c16.9,34,39.2,64.8,66.3,92c20.2,20.2,42.4,37.6,66.5,52.2c1.7,1,3.3,2,5,3c13,7.6,26.5,14.4,40.5,20.3c7,2.9,14,5.6,21.1,8.1
		c-21.7,26.2-39.3,55.4-52.7,86.9c-18.4,43.5-27.7,89.6-27.7,137.2c0,47.6,9.3,93.8,27.7,137.2c17.8,42,43.2,79.7,75.5,112
		c32.4,32.4,70.1,57.8,112.1,75.6c43.5,18.4,89.6,27.7,137.2,27.7c17.1,0,40.9-1.2,62.9-3.6c0.8,4.8,1.6,9.5,2.6,14.2
		c0.3,1.7,0.7,3.3,1,4.9c4.4,20.3,10.6,40.2,18.7,59.6c0.3,0.8,0.7,1.7,1,2.5c0.3,0.7,0.6,1.5,1,2.2c17.7,41.1,42.8,78,74.6,109.8
		c32.4,32.4,70.1,57.8,112.1,75.6c43.5,18.4,89.6,27.7,137.2,27.7s93.8-9.3,137.2-27.7c42-17.8,79.7-43.2,112-75.6
		c31.1-31.1,55.8-67.1,73.4-107.1c0.7-1.6,1.4-3.2,2.1-4.7c0,0,0.1-0.1,0.1-0.1c8.2-19.3,14.6-39.2,19.1-59.5
		c0.4-1.6,0.7-3.3,1.1-4.9c1.1-5.1,2-10.3,2.9-15.5c18,1.4,36.9,2.2,50.1,2.2c47.6,0,93.8-9.3,137.2-27.7
		c42-17.8,79.7-43.2,112-75.6c32.4-32.4,57.8-70.1,75.6-112c18.4-43.5,27.7-89.6,27.7-137.2c0-47.6-9.3-93.8-27.7-137.2
		c-12.6-29.8-29-57.4-49.1-82.5c-0.1-0.2-0.3-0.3-0.4-0.5c1.9-0.6,3.8-1.2,5.7-1.8c9.2-3,18.2-6.4,27.2-10.2
		c14-5.9,27.5-12.7,40.5-20.3c1.7-1,3.4-2,5-3c24.1-14.6,46.3-32.1,66.5-52.2c27.8-27.8,50.4-59.4,67.5-94.4c0.8-1.7,1.6-3.3,2.4-5
		c2-4.2,3.9-8.4,5.7-12.7c4.2-10.1,8-20.3,11.3-30.6c0.1-0.2,0.1-0.4,0.2-0.6c0.5-1.6,1-3.2,1.5-4.8c0.1-0.2,0.1-0.4,0.2-0.6
		c2.2-7.5,4.2-15.2,6-22.8c0.4-1.6,0.7-3.3,1.1-4.9c3.1-14.5,5.2-29.2,6.4-44.1c0.2-2.1,0.3-4.2,0.4-6.3c0.5-7.4,0.7-14.9,0.7-22.4
		C1866,1168.6,1856.7,1122.5,1838.3,1079z M1860.5,1234.7c-0.1,2.1-0.2,4.3-0.4,6.4c-1.1,15.9-3.3,31.6-6.6,46.9
		c-0.4,1.6-0.7,3.3-1.1,4.9c-1.5,6.7-3.2,13.4-5.2,20c-0.1,0.2-0.1,0.4-0.2,0.6c-0.5,1.6-1,3.3-1.5,4.9c-0.1,0.2-0.1,0.4-0.2,0.6
		c-4.6,14.8-10.1,29.2-16.6,43c-0.8,1.7-1.6,3.4-2.4,5c-29.7,61.4-77,112.8-135.2,147.6c-1.7,1-3.4,2-5.1,3
		c-22.2,12.8-46,23.2-71,30.8c-0.3,0.1-0.5,0.2-0.8,0.2c-1.8,0.5-3.6,1.1-5.4,1.6c0,0,0,0,0.1,0.1c-19.5,4.5-39.6,7.3-60.2,8.3
		c-0.9,0.1-1.8,0.1-2.7,0.1c-0.4,0-0.7,0-1.1,0c-1.5,0.1-2.9,0.1-4.4,0.2c-1.3,0-2.7,0.1-4,0.1c-1.3,0-2.7,0-4,0
		c-20.1,0.1-39.9-1.6-59.1-4.8c-0.3-0.1-0.7-0.1-1.1-0.2c-0.5-0.1-3.6,3.6,2,4.6s3,0.6,4.5,0.8c17.7,3.1,35.6,4.6,53.7,4.6
		c1.2,0,2.4,0,3.6,0h0.1c1.5,0,2.9,0,4.4-0.1c1.4,0,2.8-0.1,4.2-0.1c1.2-0.1,2.4-0.1,3.5-0.1c0.2,0,0.3,0,0.5,0
		c21.4-1.1,42.4-4.4,63-9.9c0.2,0.2,0.4,0.5,0.6,0.8c0.1,0.2,0.3,0.3,0.4,0.5c48.2,59.7,77.2,135.6,77.2,218.1
		c0,191.6-155.9,347.5-347.5,347.5c-12.7,0-30.7-0.7-48-2c-0.1,0-0.1,0-0.2,0c-9.5-0.9-18.7-2-26.3-3.3c-0.4-0.1-0.7-0.1-1.1-0.2
		c-0.5-0.1-1.1-0.2-1.6-0.3c-0.9-0.1-1.8-0.3-2.7-0.5v0c-0.2,0-0.5-0.1-0.7-0.1c-4.6-0.9-9.2-1.8-13.8-2.9c-1.7-0.4-3.3-0.8-5-1.2
		c-23.2-5.7-45.5-13.7-66.6-23.8c9.6,5.3,19.6,10.1,29.7,14.3c39.5,16.6,47,15.6,54.9,17.4c0.8,0.2,1.5,0.4,2.3,0.5l5.4,1.1
		c1.5,0.3,3,0.6,4.5,0.8c4.6,0.8,9.3,1.5,14,2.1c0,0.2,0,0.3-0.1,0.5c-0.8,5-1.8,10-2.8,14.9c-0.4,1.6-0.7,3.3-1.1,4.9
		c-35,154.8-173.7,270.8-339,270.8c-166.3,0-305.7-117.4-339.6-273.6c-0.4-1.7-0.7-3.3-1-5c-0.9-4.5-1.7-9-2.5-13.6
		c-0.3-1.7-0.5-3.3-0.8-5c-1.7,0.2-3.3,0.4-5,0.6c-21.6,2.4-45.1,3.6-62.1,3.6c-191.6,0-347.5-155.9-347.5-347.5
		c0-84.5,30.3-162,80.6-222.3c0.1-0.1,0.2-0.3,0.4-0.4c0.8,0.3,1.7,0.5,2.5,0.8c1.5,0.4,2.9,0.9,4.4,1.3l5.3,1.4
		c0.8,0.2,1.5,0.4,2.3,0.6c7.9,2,15.2,6.2,57.9,8.8c11,0.7,22,0.8,33,0.3c-23.4-0.3-47-3.1-70.2-8.2c-1.7-0.4-3.3-0.8-5-1.2
		c-4.6-1.1-9.1-2.3-13.6-3.5c-0.2-0.1-0.5-0.1-0.7-0.2v0c-0.9-0.2-1.8-0.5-2.6-0.8c-0.5-0.2-1-0.3-1.6-0.5c-0.3-0.1-0.7-0.2-1-0.3
		c-11.7-3.5-26.5-9-40.3-14.9c-0.1-0.1-0.3-0.1-0.4-0.2c-11-4.9-21.7-10.3-32.1-16.3c-1.7-1-3.4-2-5.1-3
		c-57.5-34.4-104.3-84.8-134-145.2c-0.8-1.7-1.6-3.3-2.4-5c-6.6-13.9-12.3-28.2-17-43c0-0.1-0.1-0.2-0.1-0.3
		c-0.6-1.7-1.1-3.5-1.6-5.2c0-0.1,0-0.2-0.1-0.2c-2.5-8.5-4.8-17.1-6.7-25.8c-0.4-1.7-0.7-3.3-1-5c-2.7-13.4-4.6-27-5.7-40.9
		c-0.2-2.1-0.3-4.2-0.5-6.3c-0.4-7.2-0.7-14.4-0.7-21.6c0-93,36.7-177.5,96.3-239.9c1.2-1.3,2.5-2.6,3.7-3.9
		c4.3-4.4,8.8-8.7,13.3-12.9c1.4-1.3,2.8-2.5,4.2-3.7c21.9-19.3,46.2-35.9,72.4-49.3c17.3-8.8,35.5-16.3,54.3-22.1
		c1.6-0.5,3.2-1,4.9-1.5c0.4-0.1,0.8-0.2,1.2-0.3c0.3-0.1,0.6-0.2,1-0.3c0.2-0.1,0.4-0.1,0.6-0.2s0.4-0.1,0.6-0.2
		c0.7-0.2,1.5-0.4,2.2-0.6c0.1,0,0.1,0,0.2-0.1c0.6-0.1,1.1-0.3,1.7-0.4c0.5-0.1,1.1-0.3,1.6-0.4c1.3-0.4,2.6-0.7,4-1
		c1.6-0.4,3.3-0.8,4.9-1.2c3.9-0.9,7.7-1.8,11.6-2.5c14.8-3,30-5,45.5-6.1c0.1,0,0.2,0,0.3,0c1.8-0.1,3.7-0.2,5.5-0.3
		c0,0,0.1,0,0.1,0c3-0.2,6.1-0.3,9.2-0.3c0.9,0,1.8,0,2.7-0.1c0.4,0,0.7,0,1.1,0c1.5,0,2.9,0,4.4,0c1.1,0,2.2,0,3.4,0
		c0.2,0,0.4,0,0.6,0c1.3,0,2.7,0,4,0.1c0.6,0,1.1,0,1.7,0c17.1,0.5,33.9,2.2,50.3,5c0.1,0,0.2,0,0.2,0c1.8,0.3,3.6,0.6,5.4,1
		c0.8,0.1,1.6,0.3,2.4,0.4c0.1,0,0.2,0,0.3,0.1c0.3,0.1,0.7,0.1,1.1,0.2c1.2,0.2,2.4,0.5,3.6,0.7c0.2,0,0.5,0.1,0.7,0.2
		c1.3,0.3,2.6,0.5,3.9,0.8c1.3,0.3,2.6,0.6,3.9,0.9c19.6,4.5,38.4,10.7,56.4,18.2c0.3,0.2,0.7,0.3,1,0.4c0.5,0.2,1,0.4,1.5,0.7
		c0.8,0.3,1.7,0.7,2.5,1.1v0c0.2,0.1,0.4,0.2,0.7,0.3c4.3,1.9,8.6,3.9,12.8,6c1.5,0.8,3.1,1.5,4.6,2.3
		c21.2,10.9,41.1,23.8,59.4,38.5c-8.2-7.4-16.7-14.3-25.6-20.8c-34.6-25.2-42.1-26-49.5-29.5c-0.7-0.4-1.4-0.7-2.1-1l-5-2.3
		c-1.4-0.6-2.8-1.2-4.2-1.8c-16.5-7.1-33.6-12.7-51.2-16.8c-1.2-0.3-2.3-0.5-3.5-0.8l-0.1,0c-1.4-0.3-2.9-0.6-4.3-0.9
		c-1.4-0.3-2.7-0.5-4.1-0.8c-1.2-0.2-2.3-0.4-3.5-0.7c-0.2,0-0.3-0.1-0.5-0.1c-0.2,0-0.3-0.1-0.5-0.1c-0.1,0-0.2,0-0.3-0.1
		c-17.3-3.3-34.9-5.2-52.7-5.9c63.4-85.1,164.8-140.2,278.8-140.2c103.4,0,196.3,45.4,260.1,117.3c1.2,1.3,2.3,2.6,3.4,3.9
		c1.1-1.3,2.3-2.6,3.4-3.9c63.7-71.9,156.7-117.3,260.1-117.3c114.8,0,216.7,55.9,280,141.9c-5.9,0.6-11.8,1.4-17.7,2.3h0
		c-4.2,0.5-6.8,0.8-6.8,0.8s-5,1-15.1,3.2c-8,1.7-14.4,2.3-53.3,20.2c-10,4.6-19.8,9.7-29.2,15.3c20.8-10.8,42.8-19.5,65.8-26
		c1.7-0.5,3.3-0.9,5-1.3c1-0.3,2-0.5,3-0.8c1.6-0.4,3.3-0.8,4.9-1.2c0,0,0,0,0,0.1c15.2-3.6,30.9-6.2,46.8-7.8c2-0.2,4-0.4,6-0.5
		c6.4-0.5,12.9-0.8,19.4-1c0.2,0,0.3,0,0.5,0c0.8,0,1.5,0,2.2,0c0.4,0,0.7,0,1.1,0c0.8,0,1.6,0,2.3,0c0.7,0,1.4,0,2.1,0
		c1.3,0,2.7,0,4,0c1.3,0,2.7,0,4,0.1c20.1,0.5,39.8,2.6,58.9,6.4c0.4,0.1,0.7,0.1,1.1,0.2c0.5,0.1,1.1,0.2,1.6,0.3
		c0.9,0.2,1.8,0.4,2.7,0.5c0.2,0,0.5,0.1,0.7,0.1c4.6,1,9.2,2.1,13.7,3.2c1.7,0.4,3.3,0.9,5,1.3c23,6.3,45.1,14.9,65.9,25.6
		c0,0,0,0,0,0c27.4,14,52.8,31.6,75.4,52.1c1.4,1.3,2.8,2.5,4.2,3.8c4.3,4,8.4,8.1,12.5,12.3c1.2,1.3,2.5,2.6,3.7,3.9
		c58.3,62.2,94.1,145.7,94.1,237.5C1861,1222.4,1860.8,1228.6,1860.5,1234.7z"/>
</g>
<g>
	<path class="st7" d="M626.6,1840.4c1.2-29.4-1.4-51.7-1.4-74.1c0-4-1.3-5.3-5.5-5.7c-16.5-1.5-18.8-5.7-15.9-22.1
		c2-10.9,5.5-19.3,17.7-20.9c3.4-0.4,3.5-2.8,3.4-5.4c0-6.6,0.1-13.3,0-19.9c-0.2-22.1,1.7-44.1,4.2-66.1c1.1-9.8,0.8-9.4-8.6-8
		c-18.9,2.8-37.9,5.1-56.9,7.3c-6.7,0.8-15.8-9.1-17.1-18.1c-1.9-12.9,4.5-25.4,16.8-29.1c23-6.9,46.1-12.8,70.2-14.1
		c3.7-0.2,5.8-0.5,7-5.2c3.4-13.7,16.3-19.5,32.5-15c6.8,1.9,14,3.6,15.9,12.2c0.6,2.7,3.5,2,5.7,2c27.8-0.2,55.7-1.7,83.3,1.9
		c35.9,4.7,71.7,10.3,105.3,25.2c10.4,4.6,12.2,9.6,7.6,19.7c-0.4,0.9-1,1.7-1.5,2.6c-8.7,18-9.7,19-29.2,15.5
		c-18.1-3.2-36.1-7-54.3-9.2c-33.5-4-67-7.5-100.8-4.3c-5.6,0.5-11.3,0.9-16.9,1.2c-2.6,0.1-3.9,0.8-4.2,3.8
		c-2.8,30.3-6.4,60.5-7.4,90.9c-0.2,5.1,2,5.5,6,5.5c18.7-0.1,37.4-0.7,56.1,0.4c19.1,1,38.2,3,56.8,7.7c3.7,0.9,6.9,2.6,10,4.5
		c7,4.5,8.5,10.1,4.9,17.6c-0.6,1.3-1.5,2.6-2,3.9c-3.7,11.4-12.4,14.3-23.2,13.7c-33.2-2-66.4-0.8-99.7-1c-10-0.1-9.7,0.1-9,9.9
		c1.4,18.1,1.1,36.3,3,54.5c2,19.8,3,39.7,4.3,59.5c0.5,7.6,0.3,15.2,0.8,22.8c0.4,6.2-1.9,9.9-8.1,11.1
		c-12.2,2.4-24.5,2.9-36.5,0.1c-11.1-2.6-13.5-6.9-13.5-18.7C626.6,1875.8,626.6,1854.6,626.6,1840.4z"/>
	<path class="st7" d="M1245.5,1775.1c0,23.1,0.3,42,8.7,62.5c5.4,13.3,12.6,24.9,23.6,34.2c19.2,17.7,38.7,19.5,54.1-4.2
		c9.5-14.2,27.2-11.5,35.5,4.1c1.8,3.3,2,6.5-0.2,9.7c-9.1,13.9-19.3,27-33.4,35.9c-16.3,10.3-34.1,10.5-52.4,5.4
		c-27.3-7.7-44.1-27-57.8-50.4c-14-23.9-19.7-50.2-21.3-77.2c-1.2-20,0.2-40.2,3.7-60.1c1-5.7,0.5-9-6.8-9.3
		c-10.5-0.5-21-2.4-31.4-3.8c-10.3-1.5-11.9-3.5-11.3-14c0.1-1.5,0.2-2.9,0.2-4.4c0.5-20.5,3.6-23.5,24.4-23.4
		c8.9,0,17.7,0,26.4,1.8c5.2,1.1,7.1-1.1,8-6.5c3-17.6,7-35,10.2-52.5c2.3-12.5,4.9-24.9,8.6-37.1c4.7-15.3,5.1-12.9,20.9-12.4
		c3.1,0.1,6.2,1.5,9.1,2.7c10.1,4.2,12.7,8.9,10.3,19.7c-3.7,17-7.8,33.8-11.4,50.8c-2.5,11.7-4.5,23.5-6.9,35.2
		c-0.9,4.6,2.6,3.9,4.9,4.1c10.5,0.9,21.1,1.9,31.6,2.3c13.8,0.6,27.4,2,41,4.3c8.7,1.5,10.7,3.9,10.6,12.7c0,5.4-0.2,10.8-0.2,16.2
		c0,11.1-4.6,15.2-15.5,14.4c-24.5-1.8-49-3.4-73.5-5.3c-5-0.4-6.9,1-7.1,6.3C1247.9,1749.3,1245.5,1763.5,1245.5,1775.1z"/>
	<path class="st7" d="M951.8,1831.5c-17.4,12.1-36.9,17.7-57.5,20.4c-10.9,1.4-21.9,3-32.9,4c-5.7,0.5-4.2,3.6-3.1,6.5
		c3.9,10.3,14.6,20.9,27.9,20c21-1.5,37.8-16.6,52.5-30.7c11.6-11.2,21-11,35.6-4.2c7.6,3.6,9.4,8.3,7.1,16.3
		c-4.7,14.1-13.6,24.8-24.8,34.6c-17.8,12.6-36.5,23.4-58.8,24.9c-18.6,1.2-37.1-1.1-53.8-9.4c-18.5-9.2-28.5-25.1-32.3-45.7
		c-7.8-54.6,2.7-97.6,46.1-135.7c16.1-12.2,45.2-19.1,65.3-16c11.2,1.7,22.1,4,32.2,9.5c15.8,8.6,24.3,21.7,24.5,39.8
		C979.9,1769.3,980.2,1811.4,951.8,1831.5z M872,1821.2c9.8-0.9,17.9-2.6,25.7-4.4c15.1-3.5,24.9-6.6,34.9-16.8
		c7.3-7.4,9.2-16.7,6.8-24.9c-2.4-8.2-10.5-15.5-18.6-16.9c-31.1-3.5-59.6,26-63,49.7C856.3,1818.7,860.5,1822.1,872,1821.2z"/>
	<path class="st7" d="M1084.3,1925.6c-20-1.1-37.4-2-52.9-12.7c-11.6-8-16.2-18.8-17.3-31.8c-1.2-14.4,3.2-27.5,9-40.4
		c8.2-18.3,28.5-16.9,40.3-8.9c5.4,3.7,4,9.1,2,14.1c-0.7,1.8-2.2,3.4-3.5,5c-14.2,18-4.2,30.1,10,37c12,5.8,37,2.9,49.4-8.1
		c11.5-10.2,9.9-39.1-8.6-49c-18.5-9.8-37.8-17.1-58.4-21.2c-9.9-2-20.2-3.5-28.8-9.3c-22.5-15.1-22.5-39.5-8.5-60
		c11.3-16.6,28.5-24,48-27.7c17-3.3,32.8-1.1,48.1,6.3c10.9,5.3,18.5,13.9,23.2,24.8c6,13.9,2.1,21.5-12.5,26.1
		c-3.9,1.2-7.8,2.2-11.8,3c-3.4,0.7-5.8-0.5-6.4-4.2c-1.7-11.7-9.1-17.6-20.3-19.7c-10.2-1.9-20.3-2.5-29.7,3.2
		c-4.8,2.9-7.5,7.1-7.4,12.8c0.1,5.8,3.6,9,8.4,11.3c8.7,4.2,18.1,6,27.4,7.6c18.8,3.1,34.5,12,49.1,23.3
		c10.2,8,19.1,17.3,27.1,27.5c16.1,20.8,10.2,56.8-13.3,71.6C1127,1918.8,1105.1,1924.2,1084.3,1925.6z"/>
</g>
<g>
	<path class="st8" d="M647.7,1330c-10.7,4.1-13.6,11.4-17.7,17.3c-8.1,12.2-17.3,23.2-28,32.8c-18.4,16.2-33.9,17.3-55.3,4.8
		c-12.2-7.4-20.6-18.1-28.4-29.9c-1.5-2.6-3.7-6.3-5.9-8.5c-1.5-1.5-6.3-5.2-6.3-5.2s-1.5,11.8-1.8,16.6
		c-4.1,41.3-8.8,82.6-17.3,123.1c-4.4,21.4-14,28-35.8,24c-13.3-2.6-15.5-5.2-13.6-18.4c2.2-17,4.8-34.3,7-51.2
		c11.1-75.9,14-152.6,14.4-229.3c0-31.7,1.5-63.4,1.5-95.1c0-8.8,2.6-14.4,11.8-15.9c12.2-1.8,23.2,2.2,25.8,11.4
		c3.3,12.2,4.8,24.7,6.3,37.2c7,56,12.9,112.1,33.5,165.5c2.9,8.1,6.3,16.2,11.8,22.9c12.9,15.9,27.6,15.9,40.2-0.4
		c14.4-18.4,23.6-39.4,31-61.6c15.5-48.3,31.3-96.6,46.8-144.9c5.5-17,16.6-22.9,32.8-18.8c8.5,1.8,13.3,6.3,12.5,15.5
		c-0.7,11.1-0.7,21.8-1.5,32.8c-5.9,67.8-8.1,135.7-10.7,203.5c-1.1,32.1-6.3,64.1-7,96.6c-0.4,11.8-12.5,19.5-26.2,18.4
		c-14-1.1-19.9-6.6-19.9-20.3c0-35.8,0-71.5,0-107.3C647.7,1341.4,647.7,1337,647.7,1330z"/>
	<path class="st8" d="M872.9,1401.5c0,0-13.1,8-17.9,11.7c-18.2,14.2-36.8,26.6-60.2,31c-21.9,4-39.4-3.6-50.3-23
		c-4.7-8.4-8.4-17.5-9.1-27.4c-2.6-33.6,2.2-66,18.2-96.3c22.3-42,58.7-56.2,103.6-40.9c5.5,1.8,10.9,3.6,16.1,6.2
		c8.4,4.4,27.7,9.9,27.7,9.9s4-1.5,7.7-2.6c4-1.5,9.1,0.4,13.5,1.5c14.6,4,17.5,8.8,13.1,23.7c-9.5,32.8-15.7,66.4-16.8,100.7
		c1.3,38.7,0.5,35.1,4,63.6c0.4,3.3,1.1,6.9,1.5,10.2c1.5,18.6-1.1,22.6-15,25.2c-18.6,3.6-28.4-3.2-32.4-18.9
		c-2.9-10.9-3.6-22.6-3.6-33.9c0.4-27.4,0.4-13.3,0.7-40.7C872.9,1399,872.9,1401.5,872.9,1401.5z M774.8,1368.7
		c0,11.3,1.5,22.3,12.8,27.7c10.6,5.5,20.1,0.7,28.8-5.1c3.3-2.2,6.6-4.7,9.5-7.3c18.2-15.3,29.9-35.8,42.3-55.5
		c4-6.2,2.6-11.7-1.5-17.1c-15-21.2-46-23-66-2.6C784.3,1325.3,776.3,1345.7,774.8,1368.7z"/>
	<path class="st8" d="M1264.2,1392c0.4-20.1-0.7-39.8-2.2-59.8c-0.4-6.2-1.8-12.4-4-18.2c-8-20.8-31-27.7-49.3-15.3
		c-8.8,5.8-9.9,14.6-10.6,24.1c-1.8,31.4-2.9,62.4-0.4,93.8c1.8,20.1-0.4,21.2-20.8,20.8c-3.3,0-6.9-0.4-10.2-0.4
		c-9.5,0-14.6-4.7-16.8-13.9c-3.6-14.6-5.5-29.2-5.8-43.8c-0.4-40.9,0.4-82.1,3.6-122.9c0.7-9.1,4.7-13.9,12.8-15.3
		c12.4-2.2,25.2-5.1,33.6,8.4c1.5,2.6,1.8,5.8,1.8,5.8s8-3.3,10.9-4.7c19.3-10.2,39.4-13.5,60.9-7.7c14.2,4,24.4,12,29.9,25.5
		c4,10.2,6.2,20.8,6.9,31.7c2.6,51.1,4.4,85.1,10.2,135.8c1.1,8.4,2.2,16.8,4.7,25.2c1.1,4,1.8,7.7-1.5,10.9
		c-12.4,12.4-40.9,5.8-46.3-10.9c-5.8-17.5-6.8-35.9-7.5-54.1C1264.3,1396,1264.2,1402.6,1264.2,1392z"/>
	<path class="st8" d="M966.1,1315.1c-0.7-63.1,4.4-125.1,18.2-186.8c5.1-21.9,24.1-27.7,42-13.1c6.6,5.5,5.5,12.4,4.4,19
		c-4.4,26.3-8,52.9-11.3,79.5c-6.2,55.1-11.7,109.8-3.6,165.3c2.6,18.6,5.5,37.2,4.7,56.2c-0.4,16.1-6.2,23.3-19.7,24.4
		c-14.6,1.1-24.4-6.6-27-21.9c-6.6-37.2-7.7-74.8-7.7-112.4C966.1,1322,966.1,1318.7,966.1,1315.1z"/>
	<path class="st8" d="M1055.9,1378.9c2.2-41.6,4-83.2,6.6-124.4c1.1-15,2.6-15.7,17.5-16.4c2.9,0,5.8,0,8.4,0
		c14.2,1.1,17.9,4.4,17.9,19c-0.7,29.6-1.8,59.1-2.9,88.7c-1.1,29.6-1.8,59.1,1.5,88.7c0.4,2.9,0.4,5.5-1.5,8
		c-4.7,6.9-20.4,11.3-29.6,9.1c-10.9-2.6-13.9-10.2-14.6-20.1C1057.7,1413.9,1055.2,1396.4,1055.9,1378.9z"/>
	<path class="st8" d="M1063.9,1192.5c0.7-5.1,2.2-15,3.6-24.4c1.5-9.1,6.2-13.9,15.7-15c6.2-0.7,12.4-0.7,18.6,0.7
		c12.4,3.6,15,8,13.5,21.2c-1.1,9.1-2.2,17.9-3.3,27c-1.1,10.2-6.9,15-16.8,16.1c-4,0.4-8,0.4-12,0
		C1067.9,1216.9,1063.5,1212.5,1063.9,1192.5z"/>
	<path class="st8" d="M1436.4,1234.8c28.1-0.4,53.6,9.9,79.9,17.1c11.3,3.3,12,7.3,9.9,19.3c-9.1,49.3-8,98.9-5.5,148.1
		c0.7,16.1,0.4,32.1,1.8,47.8c1.5,13.9-10.2,21.2-24.4,22.3c-14.2,1.1-20.8-4.7-21.9-19.7c-1.5-18.2-2.6-36.5-4-54.4
		c-0.4-4.7-1.1-15.3-1.1-15.3s-10.6,4.4-13.9,6.9c-11.3,8.4-23.3,16.4-36.5,21.9c-31.4,12.8-65.7-2.9-74.8-35.8
		c-9.9-35-8.8-70.4,7.7-103.2C1370,1256.3,1396.2,1234.8,1436.4,1234.8z M1383.8,1352.3c0.7,3.6,0.7,9.5,2.2,15
		c4,13.5,15,18.2,28.1,13.1c6.6-2.6,12-6.6,17.1-11.3c11.3-9.9,20.1-21.9,28.8-33.6c9.1-11.7,8.8-25.5,11.3-39
		c1.1-5.1-2.2-8.4-6.6-10.6c-15.7-8.8-37.2-7.7-51.8,3.3C1393,1304.8,1384.6,1326,1383.8,1352.3z"/>
</g>
</svg>
